{"glyphs":{"0":{"ha":899,"x_min":69,"x_max":829,"o":"m 450 -14 q 69 436 69 -14 q 158 790 69 671 q 450 908 246 908 q 741 790 653 908 q 829 436 829 671 q 450 -14 829 -14 m 450 83 q 653 175 590 83 q 715 436 715 267 q 655 718 715 625 q 450 811 594 811 q 244 719 304 811 q 183 436 183 626 q 247 176 183 268 q 450 83 310 83 z "},"1":{"ha":422,"x_min":69,"x_max":325,"o":"m 211 797 l 69 772 l 69 868 l 325 908 l 325 0 l 211 0 l 211 797 z "},"2":{"ha":703,"x_min":69,"x_max":633,"o":"m 69 61 q 164 212 101 142 q 315 357 226 282 q 437 467 397 425 q 493 550 476 510 q 510 646 510 590 q 466 771 510 731 q 313 811 422 811 q 104 771 210 811 l 104 872 q 212 898 150 888 q 331 908 274 908 q 548 839 472 908 q 624 646 624 769 q 601 531 624 582 q 541 438 579 481 q 438 338 503 396 l 408 313 q 282 194 326 240 q 210 89 238 147 l 633 89 l 633 0 l 69 0 l 69 61 z "},"3":{"ha":714,"x_min":69,"x_max":644,"o":"m 644 246 q 556 52 644 118 q 310 -14 468 -14 q 179 -3 249 -14 q 69 24 110 8 l 69 124 q 296 83 172 83 q 474 120 418 83 q 531 246 531 157 q 325 410 531 410 l 196 410 l 207 496 l 314 496 q 462 539 413 496 q 511 663 511 582 q 460 775 511 739 q 299 811 408 811 q 189 800 244 811 q 86 771 133 789 l 86 869 q 190 897 126 886 q 314 908 254 908 q 547 842 468 908 q 625 664 625 775 q 588 534 625 592 q 476 454 550 476 q 603 379 561 435 q 644 246 644 324 z "},"4":{"ha":751,"x_min":42,"x_max":710,"o":"m 615 0 l 501 0 l 501 206 l 42 206 l 42 292 l 514 894 l 615 894 l 615 299 l 710 299 l 710 206 l 615 206 l 615 0 m 156 296 l 517 296 l 517 758 l 156 296 z "},"5":{"ha":711,"x_min":69,"x_max":642,"o":"m 642 267 q 557 60 642 133 q 311 -14 472 -14 q 180 -4 246 -14 q 74 24 114 6 l 74 125 q 299 83 176 83 q 473 128 418 83 q 528 267 528 172 q 484 402 528 360 q 328 444 440 444 l 69 444 l 69 524 l 93 894 l 578 894 l 567 806 l 189 806 l 171 535 l 339 535 q 568 468 494 535 q 642 267 642 401 z "},"6":{"ha":790,"x_min":69,"x_max":721,"o":"m 721 279 q 638 65 721 143 q 396 -14 556 -14 q 151 69 233 -14 q 69 326 69 151 l 69 538 q 113 732 69 649 q 239 862 157 815 q 431 908 321 908 q 636 879 549 908 l 636 781 q 436 811 551 811 q 242 744 306 811 q 178 558 178 678 l 178 490 q 294 548 229 528 q 418 568 360 568 q 645 494 569 568 q 721 279 721 421 m 618 276 q 572 428 618 378 q 408 479 525 479 q 178 403 283 479 l 178 294 q 232 131 178 185 q 396 76 286 76 q 562 129 506 76 q 618 276 618 182 z "},"7":{"ha":692,"x_min":56,"x_max":636,"o":"m 176 0 l 517 806 l 56 806 l 56 894 l 636 894 l 636 815 l 292 0 l 176 0 z "},"8":{"ha":811,"x_min":69,"x_max":742,"o":"m 406 908 q 639 842 561 908 q 717 658 717 776 q 680 531 717 586 q 563 449 643 476 q 699 373 656 425 q 742 236 742 321 q 656 49 742 113 q 406 -14 571 -14 q 156 49 242 -14 q 69 236 69 113 q 114 378 69 318 q 242 463 158 439 q 131 538 167 486 q 94 658 94 590 q 174 842 94 775 q 406 908 253 908 m 444 485 q 574 544 533 506 q 614 657 614 583 q 560 777 614 736 q 406 818 507 818 q 251 778 304 818 q 197 658 197 738 q 235 559 197 599 q 339 506 272 519 l 444 485 m 406 76 q 639 238 639 76 q 598 343 639 308 q 469 396 557 378 l 349 421 q 217 360 263 403 q 172 239 172 318 q 406 76 172 76 z "},"9":{"ha":790,"x_min":69,"x_max":721,"o":"m 69 615 q 152 830 69 751 q 394 908 235 908 q 639 826 557 908 q 721 568 721 743 l 721 357 q 677 163 721 246 q 551 33 633 79 q 360 -14 469 -14 q 154 15 242 -14 l 154 114 q 354 83 239 83 q 549 150 485 83 q 613 336 613 217 l 613 404 q 496 347 561 367 q 372 326 431 326 q 145 400 221 326 q 69 615 69 474 m 172 618 q 219 466 172 517 q 382 415 265 415 q 613 492 507 415 l 613 600 q 558 764 613 710 q 394 818 504 818 q 228 765 285 818 q 172 618 172 713 z "},"\r":{"ha":556,"x_min":0,"x_max":0,"o":""}," ":{"ha":528,"x_min":0,"x_max":0,"o":""},"A":{"ha":951,"x_min":69,"x_max":882,"o":"m 188 0 l 69 0 l 410 894 l 543 894 l 882 0 l 765 0 l 671 246 l 282 246 l 188 0 m 301 336 l 650 336 l 475 796 l 301 336 z "},"Á":{"ha":951,"x_min":69,"x_max":882,"o":"m 504 1189 l 607 1189 l 497 956 l 406 956 l 504 1189 m 188 0 l 69 0 l 410 894 l 543 894 l 882 0 l 765 0 l 671 246 l 282 246 l 188 0 m 301 336 l 650 336 l 475 796 l 301 336 z "},"Ă":{"ha":951,"x_min":69,"x_max":882,"o":"m 379 1131 q 404 1053 379 1079 q 474 1028 429 1028 q 571 1131 571 1028 l 651 1131 q 606 1003 651 1050 q 474 956 560 956 q 344 1003 389 956 q 299 1131 299 1050 l 379 1131 m 188 0 l 69 0 l 410 894 l 543 894 l 882 0 l 765 0 l 671 246 l 282 246 l 188 0 m 301 336 l 650 336 l 475 796 l 301 336 z "},"Ắ":{"ha":951,"x_min":69,"x_max":882,"o":"m 507 1274 l 597 1274 l 503 1100 l 421 1100 l 507 1274 m 475 1022 q 572 1055 536 1022 q 607 1150 607 1088 l 679 1150 q 622 1003 679 1050 q 475 956 565 956 q 328 1003 385 956 q 271 1150 271 1050 l 343 1150 q 378 1055 343 1088 q 475 1022 414 1022 m 188 0 l 69 0 l 410 894 l 543 894 l 882 0 l 765 0 l 671 246 l 282 246 l 188 0 m 301 336 l 650 336 l 475 796 l 301 336 z "},"Ặ":{"ha":951,"x_min":69,"x_max":882,"o":"m 379 1131 q 404 1053 379 1079 q 474 1028 429 1028 q 571 1131 571 1028 l 651 1131 q 606 1003 651 1050 q 474 956 560 956 q 344 1003 389 956 q 299 1131 299 1050 l 379 1131 m 188 0 l 69 0 l 410 894 l 543 894 l 882 0 l 765 0 l 671 246 l 282 246 l 188 0 m 301 336 l 650 336 l 475 796 l 301 336 m 419 -121 l 531 -121 l 531 -228 l 419 -228 l 419 -121 z "},"Ằ":{"ha":951,"x_min":69,"x_max":882,"o":"m 353 1274 l 443 1274 l 529 1100 l 447 1100 l 353 1274 m 475 1022 q 572 1055 536 1022 q 607 1150 607 1088 l 679 1150 q 622 1003 679 1050 q 475 956 565 956 q 328 1003 385 956 q 271 1150 271 1050 l 343 1150 q 378 1055 343 1088 q 475 1022 414 1022 m 188 0 l 69 0 l 410 894 l 543 894 l 882 0 l 765 0 l 671 246 l 282 246 l 188 0 m 301 336 l 650 336 l 475 796 l 301 336 z "},"Ẳ":{"ha":951,"x_min":69,"x_max":882,"o":"m 615 1251 q 590 1182 615 1206 q 506 1149 564 1158 l 506 1101 l 422 1101 l 422 1182 q 513 1199 489 1185 q 536 1244 536 1214 q 518 1285 536 1272 q 463 1299 500 1299 q 383 1281 422 1299 l 383 1338 q 486 1354 429 1354 q 581 1327 547 1354 q 615 1251 615 1300 m 475 1022 q 572 1055 536 1022 q 607 1150 607 1088 l 679 1150 q 622 1003 679 1050 q 475 956 565 956 q 328 1003 385 956 q 271 1150 271 1050 l 343 1150 q 378 1055 343 1088 q 475 1022 414 1022 m 188 0 l 69 0 l 410 894 l 543 894 l 882 0 l 765 0 l 671 246 l 282 246 l 188 0 m 301 336 l 650 336 l 475 796 l 301 336 z "},"Ẵ":{"ha":951,"x_min":69,"x_max":882,"o":"m 572 1179 q 529 1185 550 1179 q 471 1206 508 1192 q 428 1221 450 1214 q 388 1228 406 1228 q 282 1183 319 1228 l 282 1261 q 328 1288 297 1278 q 388 1299 358 1299 q 434 1292 411 1299 q 486 1274 457 1286 q 572 1250 539 1250 q 671 1296 638 1250 l 671 1217 q 631 1190 658 1200 q 572 1179 604 1179 m 475 1022 q 572 1055 536 1022 q 607 1150 607 1088 l 679 1150 q 622 1003 679 1050 q 475 956 565 956 q 328 1003 385 956 q 271 1150 271 1050 l 343 1150 q 378 1055 343 1088 q 475 1022 414 1022 m 188 0 l 69 0 l 410 894 l 543 894 l 882 0 l 765 0 l 671 246 l 282 246 l 188 0 m 301 336 l 650 336 l 475 796 l 301 336 z "},"Ǎ":{"ha":951,"x_min":69,"x_max":882,"o":"m 429 956 l 269 1161 l 368 1161 l 475 1019 l 582 1161 l 681 1161 l 521 956 l 429 956 m 188 0 l 69 0 l 410 894 l 543 894 l 882 0 l 765 0 l 671 246 l 282 246 l 188 0 m 301 336 l 650 336 l 475 796 l 301 336 z "},"Â":{"ha":951,"x_min":69,"x_max":882,"o":"m 582 956 l 475 1097 l 368 956 l 269 956 l 429 1161 l 521 1161 l 681 956 l 582 956 m 188 0 l 69 0 l 410 894 l 543 894 l 882 0 l 765 0 l 671 246 l 282 246 l 188 0 m 301 336 l 650 336 l 475 796 l 301 336 z "},"Ấ":{"ha":951,"x_min":69,"x_max":882,"o":"m 665 1281 l 756 1281 l 661 1107 l 579 1107 l 665 1281 m 572 956 l 468 1071 l 365 956 l 268 956 l 422 1119 l 514 1119 l 668 956 l 572 956 m 188 0 l 69 0 l 410 894 l 543 894 l 882 0 l 765 0 l 671 246 l 282 246 l 188 0 m 301 336 l 650 336 l 475 796 l 301 336 z "},"Ậ":{"ha":951,"x_min":69,"x_max":882,"o":"m 582 956 l 475 1097 l 368 956 l 269 956 l 429 1161 l 521 1161 l 681 956 l 582 956 m 188 0 l 69 0 l 410 894 l 543 894 l 882 0 l 765 0 l 671 246 l 282 246 l 188 0 m 301 336 l 650 336 l 475 796 l 301 336 m 419 -121 l 531 -121 l 531 -228 l 419 -228 l 419 -121 z "},"Ầ":{"ha":951,"x_min":69,"x_max":882,"o":"m 183 1281 l 274 1281 l 360 1107 l 278 1107 l 183 1281 m 517 1119 l 671 956 l 574 956 l 471 1071 l 367 956 l 271 956 l 425 1119 l 517 1119 m 188 0 l 69 0 l 410 894 l 543 894 l 882 0 l 765 0 l 671 246 l 282 246 l 188 0 m 301 336 l 650 336 l 475 796 l 301 336 z "},"Ẩ":{"ha":951,"x_min":69,"x_max":882,"o":"m 790 1229 q 764 1158 790 1183 q 681 1126 738 1133 l 681 1078 l 596 1078 l 596 1165 q 685 1181 663 1168 q 707 1224 707 1194 q 690 1262 707 1250 q 638 1274 674 1274 q 558 1257 596 1274 l 558 1317 q 657 1333 601 1333 q 755 1306 719 1333 q 790 1229 790 1278 m 519 1119 l 674 956 l 578 956 l 474 1071 l 371 956 l 274 956 l 428 1119 l 519 1119 m 188 0 l 69 0 l 410 894 l 543 894 l 882 0 l 765 0 l 671 246 l 282 246 l 188 0 m 301 336 l 650 336 l 475 796 l 301 336 z "},"Ẫ":{"ha":951,"x_min":69,"x_max":882,"o":"m 574 1122 q 531 1128 551 1122 q 472 1149 510 1135 q 429 1164 451 1157 q 389 1171 407 1171 q 283 1126 321 1171 l 283 1204 q 329 1231 299 1221 q 389 1242 360 1242 q 435 1235 413 1242 q 488 1217 458 1229 q 574 1193 540 1193 q 672 1239 639 1193 l 672 1160 q 633 1133 660 1143 q 574 1122 606 1122 m 521 1119 l 675 956 l 579 956 l 475 1071 l 372 956 l 275 956 l 429 1119 l 521 1119 m 188 0 l 69 0 l 410 894 l 543 894 l 882 0 l 765 0 l 671 246 l 282 246 l 188 0 m 301 336 l 650 336 l 475 796 l 301 336 z "},"Ä":{"ha":951,"x_min":69,"x_max":882,"o":"m 299 1090 l 407 1090 l 407 986 l 299 986 l 299 1090 m 543 1090 l 651 1090 l 651 986 l 543 986 l 543 1090 m 188 0 l 69 0 l 410 894 l 543 894 l 882 0 l 765 0 l 671 246 l 282 246 l 188 0 m 301 336 l 650 336 l 475 796 l 301 336 z "},"Ạ":{"ha":951,"x_min":69,"x_max":882,"o":"m 188 0 l 69 0 l 410 894 l 543 894 l 882 0 l 765 0 l 671 246 l 282 246 l 188 0 m 301 336 l 650 336 l 475 796 l 301 336 m 419 -121 l 531 -121 l 531 -228 l 419 -228 l 419 -121 z "},"À":{"ha":951,"x_min":69,"x_max":882,"o":"m 301 1189 l 404 1189 l 503 956 l 411 956 l 301 1189 m 188 0 l 69 0 l 410 894 l 543 894 l 882 0 l 765 0 l 671 246 l 282 246 l 188 0 m 301 336 l 650 336 l 475 796 l 301 336 z "},"Ả":{"ha":951,"x_min":69,"x_max":882,"o":"m 643 1151 q 615 1063 643 1093 q 519 1022 588 1032 l 519 956 l 428 956 l 428 1071 q 510 1081 482 1074 q 547 1103 538 1089 q 557 1143 557 1117 q 531 1191 557 1176 q 449 1206 506 1206 q 401 1201 426 1206 q 357 1189 375 1196 l 357 1260 q 411 1273 378 1268 q 475 1278 444 1278 q 600 1244 557 1278 q 643 1151 643 1211 m 188 0 l 69 0 l 410 894 l 543 894 l 882 0 l 765 0 l 671 246 l 282 246 l 188 0 m 301 336 l 650 336 l 475 796 l 301 336 z "},"Ā":{"ha":951,"x_min":69,"x_max":882,"o":"m 675 989 l 275 989 l 275 1071 l 675 1071 l 675 989 m 188 0 l 69 0 l 410 894 l 543 894 l 882 0 l 765 0 l 671 246 l 282 246 l 188 0 m 301 336 l 650 336 l 475 796 l 301 336 z "},"Ą":{"ha":951,"x_min":69,"x_max":893,"o":"m 824 -226 q 861 -222 842 -226 q 893 -211 881 -218 l 893 -289 q 799 -306 860 -306 q 699 -276 738 -306 q 661 -183 661 -246 q 690 -81 661 -131 q 765 0 718 -32 l 671 246 l 282 246 l 188 0 l 69 0 l 410 894 l 543 894 l 882 0 l 854 0 q 780 -79 806 -36 q 754 -167 754 -122 q 771 -213 754 -200 q 824 -226 788 -226 m 650 336 l 475 796 l 301 336 l 650 336 z "},"Å":{"ha":951,"x_min":69,"x_max":882,"o":"m 882 0 l 765 0 l 671 246 l 282 246 l 188 0 l 69 0 l 399 864 q 342 917 363 883 q 322 994 322 951 q 365 1101 322 1058 q 474 1144 408 1144 q 585 1101 542 1144 q 628 994 628 1058 q 608 919 628 953 q 554 865 589 885 l 882 0 m 474 1079 q 413 1055 438 1079 q 389 994 389 1031 q 413 934 389 958 q 474 910 438 910 q 535 934 511 910 q 560 994 560 958 q 535 1055 560 1031 q 474 1079 511 1079 m 650 336 l 475 796 l 301 336 l 650 336 z "},"Ǻ":{"ha":951,"x_min":69,"x_max":882,"o":"m 496 1183 l 404 1183 l 503 1417 l 606 1417 l 496 1183 m 882 0 l 765 0 l 671 246 l 282 246 l 188 0 l 69 0 l 399 864 q 342 917 363 883 q 322 994 322 951 q 365 1101 322 1058 q 474 1144 408 1144 q 585 1101 542 1144 q 628 994 628 1058 q 608 919 628 953 q 554 865 589 885 l 882 0 m 474 1079 q 413 1055 438 1079 q 389 994 389 1031 q 413 934 389 958 q 474 910 438 910 q 535 934 511 910 q 560 994 560 958 q 535 1055 560 1031 q 474 1079 511 1079 m 650 336 l 475 796 l 301 336 l 650 336 z "},"Ã":{"ha":951,"x_min":69,"x_max":882,"o":"m 579 976 q 469 1004 539 976 q 422 1022 446 1014 q 379 1029 397 1029 q 264 981 306 1029 l 264 1068 q 313 1098 281 1086 q 379 1110 346 1110 q 430 1103 406 1110 q 485 1082 454 1096 q 538 1063 519 1068 q 579 1057 557 1057 q 686 1107 650 1057 l 686 1018 q 643 988 672 999 q 579 976 614 976 m 188 0 l 69 0 l 410 894 l 543 894 l 882 0 l 765 0 l 671 246 l 282 246 l 188 0 m 301 336 l 650 336 l 475 796 l 301 336 z "},"Æ":{"ha":1167,"x_min":69,"x_max":1097,"o":"m 568 247 l 286 247 l 192 0 l 69 0 l 410 894 l 1097 894 l 1097 804 l 682 804 l 682 492 l 1047 492 l 1047 403 l 682 403 l 682 89 l 1097 89 l 1097 0 l 568 0 l 568 247 m 568 804 l 497 804 l 321 336 l 568 336 l 568 804 z "},"Ǽ":{"ha":1167,"x_min":69,"x_max":1097,"o":"m 699 1189 l 801 1189 l 692 956 l 600 956 l 699 1189 m 568 247 l 286 247 l 192 0 l 69 0 l 410 894 l 1097 894 l 1097 804 l 682 804 l 682 492 l 1047 492 l 1047 403 l 682 403 l 682 89 l 1097 89 l 1097 0 l 568 0 l 568 247 m 568 804 l 497 804 l 321 336 l 568 336 l 568 804 z "},"B":{"ha":871,"x_min":97,"x_max":801,"o":"m 801 256 q 533 0 801 0 l 97 0 l 97 894 l 511 894 q 767 658 767 894 q 738 537 767 586 q 654 461 708 488 q 801 256 801 425 m 660 650 q 622 769 660 732 q 483 807 583 807 l 211 807 l 211 503 l 504 503 q 660 650 660 503 m 514 86 q 646 126 604 86 q 688 260 688 167 q 644 378 688 340 q 496 417 601 417 l 211 417 l 211 86 l 514 86 z "},"C":{"ha":826,"x_min":69,"x_max":757,"o":"m 510 83 q 757 124 650 83 l 757 22 q 499 -14 640 -14 q 178 104 288 -14 q 69 428 69 222 q 174 782 69 656 q 497 908 279 908 q 757 867 640 908 l 757 767 q 507 811 639 811 q 258 714 333 811 q 183 428 183 617 q 510 83 183 83 z "},"Ć":{"ha":826,"x_min":69,"x_max":757,"o":"m 519 1189 l 622 1189 l 513 956 l 421 956 l 519 1189 m 510 83 q 757 124 650 83 l 757 22 q 499 -14 640 -14 q 178 104 288 -14 q 69 428 69 222 q 174 782 69 656 q 497 908 279 908 q 757 867 640 908 l 757 767 q 507 811 639 811 q 258 714 333 811 q 183 428 183 617 q 510 83 183 83 z "},"Č":{"ha":826,"x_min":69,"x_max":757,"o":"m 450 956 l 290 1161 l 389 1161 l 496 1019 l 603 1161 l 701 1161 l 542 956 l 450 956 m 510 83 q 757 124 650 83 l 757 22 q 499 -14 640 -14 q 178 104 288 -14 q 69 428 69 222 q 174 782 69 656 q 497 908 279 908 q 757 867 640 908 l 757 767 q 507 811 639 811 q 258 714 333 811 q 183 428 183 617 q 510 83 183 83 z "},"Ç":{"ha":826,"x_min":69,"x_max":757,"o":"m 507 811 q 258 714 333 811 q 183 428 183 617 q 510 83 183 83 q 757 124 650 83 l 757 22 q 515 -14 646 -12 l 497 -67 q 612 -99 572 -67 q 651 -192 651 -132 q 453 -333 651 -333 q 401 -330 431 -333 q 356 -322 372 -326 l 356 -253 q 443 -264 396 -264 q 539 -248 510 -264 q 568 -190 568 -232 q 541 -139 568 -151 q 450 -126 514 -126 l 399 -126 l 435 -11 q 162 123 254 7 q 69 428 69 239 q 174 782 69 656 q 497 908 279 908 q 757 867 640 908 l 757 767 q 507 811 639 811 z "},"Ĉ":{"ha":826,"x_min":69,"x_max":757,"o":"m 567 956 l 460 1097 l 353 956 l 254 956 l 414 1161 l 506 1161 l 665 956 l 567 956 m 510 83 q 757 124 650 83 l 757 22 q 499 -14 640 -14 q 178 104 288 -14 q 69 428 69 222 q 174 782 69 656 q 497 908 279 908 q 757 867 640 908 l 757 767 q 507 811 639 811 q 258 714 333 811 q 183 428 183 617 q 510 83 183 83 z "},"Ċ":{"ha":826,"x_min":69,"x_max":757,"o":"m 433 1093 l 544 1093 l 544 986 l 433 986 l 433 1093 m 510 83 q 757 124 650 83 l 757 22 q 499 -14 640 -14 q 178 104 288 -14 q 69 428 69 222 q 174 782 69 656 q 497 908 279 908 q 757 867 640 908 l 757 767 q 507 811 639 811 q 258 714 333 811 q 183 428 183 617 q 510 83 183 83 z "},"D":{"ha":892,"x_min":97,"x_max":822,"o":"m 822 442 q 733 106 822 211 q 447 0 644 0 l 97 0 l 97 894 l 447 894 q 733 788 643 894 q 822 442 822 682 m 708 442 q 681 662 708 583 q 592 772 653 740 q 426 804 532 804 l 211 804 l 211 89 l 426 89 q 587 118 526 89 q 678 224 647 147 q 708 442 708 300 z "},"Ð":{"ha":922,"x_min":28,"x_max":853,"o":"m 478 894 q 763 788 674 894 q 853 442 853 682 q 764 106 853 211 q 478 0 675 0 l 128 0 l 128 394 l 28 394 l 28 485 l 128 485 l 128 894 l 478 894 m 457 89 q 617 118 557 89 q 708 224 678 147 q 739 442 739 300 q 711 662 739 583 q 623 772 683 740 q 457 804 563 804 l 242 804 l 242 485 l 493 485 l 493 394 l 242 394 l 242 89 l 457 89 z "},"Ď":{"ha":892,"x_min":97,"x_max":822,"o":"m 368 956 l 208 1161 l 307 1161 l 414 1019 l 521 1161 l 619 1161 l 460 956 l 368 956 m 822 442 q 733 106 822 211 q 447 0 644 0 l 97 0 l 97 894 l 447 894 q 733 788 643 894 q 822 442 822 682 m 708 442 q 681 662 708 583 q 592 772 653 740 q 426 804 532 804 l 211 804 l 211 89 l 426 89 q 587 118 526 89 q 678 224 647 147 q 708 442 708 300 z "},"Đ":{"ha":922,"x_min":28,"x_max":853,"o":"m 478 894 q 763 788 674 894 q 853 442 853 682 q 764 106 853 211 q 478 0 675 0 l 128 0 l 128 394 l 28 394 l 28 485 l 128 485 l 128 894 l 478 894 m 457 89 q 617 118 557 89 q 708 224 678 147 q 739 442 739 300 q 711 662 739 583 q 623 772 683 740 q 457 804 563 804 l 242 804 l 242 485 l 493 485 l 493 394 l 242 394 l 242 89 l 457 89 z "},"Ḍ":{"ha":892,"x_min":97,"x_max":822,"o":"m 822 442 q 733 106 822 211 q 447 0 644 0 l 97 0 l 97 894 l 447 894 q 733 788 643 894 q 822 442 822 682 m 708 442 q 681 662 708 583 q 592 772 653 740 q 426 804 532 804 l 211 804 l 211 89 l 426 89 q 587 118 526 89 q 678 224 647 147 q 708 442 708 300 m 385 -121 l 496 -121 l 496 -228 l 385 -228 l 385 -121 z "},"Ḏ":{"ha":892,"x_min":97,"x_max":822,"o":"m 822 442 q 733 106 822 211 q 447 0 644 0 l 97 0 l 97 894 l 447 894 q 733 788 643 894 q 822 442 822 682 m 708 442 q 681 662 708 583 q 592 772 653 740 q 426 804 532 804 l 211 804 l 211 89 l 426 89 q 587 118 526 89 q 678 224 647 147 q 708 442 708 300 m 594 -200 l 194 -200 l 194 -118 l 594 -118 l 594 -200 z "},"E":{"ha":771,"x_min":97,"x_max":701,"o":"m 97 894 l 701 894 l 701 804 l 211 804 l 211 492 l 651 492 l 651 403 l 211 403 l 211 89 l 701 89 l 701 0 l 97 0 l 97 894 z "},"É":{"ha":771,"x_min":97,"x_max":701,"o":"m 431 1189 l 533 1189 l 424 956 l 332 956 l 431 1189 m 97 894 l 701 894 l 701 804 l 211 804 l 211 492 l 651 492 l 651 403 l 211 403 l 211 89 l 701 89 l 701 0 l 97 0 l 97 894 z "},"Ĕ":{"ha":771,"x_min":97,"x_max":701,"o":"m 301 1131 q 326 1053 301 1079 q 396 1028 351 1028 q 493 1131 493 1028 l 574 1131 q 528 1003 574 1050 q 396 956 482 956 q 266 1003 311 956 q 221 1131 221 1050 l 301 1131 m 97 894 l 701 894 l 701 804 l 211 804 l 211 492 l 651 492 l 651 403 l 211 403 l 211 89 l 701 89 l 701 0 l 97 0 l 97 894 z "},"Ě":{"ha":771,"x_min":97,"x_max":701,"o":"m 353 956 l 193 1161 l 292 1161 l 399 1019 l 506 1161 l 604 1161 l 444 956 l 353 956 m 97 894 l 701 894 l 701 804 l 211 804 l 211 492 l 651 492 l 651 403 l 211 403 l 211 89 l 701 89 l 701 0 l 97 0 l 97 894 z "},"Ê":{"ha":771,"x_min":97,"x_max":701,"o":"m 488 956 l 381 1097 l 274 956 l 175 956 l 335 1161 l 426 1161 l 586 956 l 488 956 m 97 894 l 701 894 l 701 804 l 211 804 l 211 492 l 651 492 l 651 403 l 211 403 l 211 89 l 701 89 l 701 0 l 97 0 l 97 894 z "},"Ế":{"ha":771,"x_min":97,"x_max":701,"o":"m 579 1279 l 669 1279 l 575 1106 l 493 1106 l 579 1279 m 486 954 l 382 1069 l 279 954 l 182 954 l 336 1118 l 428 1118 l 582 954 l 486 954 m 97 894 l 701 894 l 701 804 l 211 804 l 211 492 l 651 492 l 651 403 l 211 403 l 211 89 l 701 89 l 701 0 l 97 0 l 97 894 z "},"Ệ":{"ha":771,"x_min":97,"x_max":701,"o":"m 482 956 l 375 1097 l 268 956 l 169 956 l 329 1161 l 421 1161 l 581 956 l 482 956 m 97 894 l 701 894 l 701 804 l 211 804 l 211 492 l 651 492 l 651 403 l 211 403 l 211 89 l 701 89 l 701 0 l 97 0 l 97 894 m 319 -121 l 431 -121 l 431 -228 l 319 -228 l 319 -121 z "},"Ề":{"ha":771,"x_min":97,"x_max":701,"o":"m 119 1279 l 210 1279 l 296 1106 l 214 1106 l 119 1279 m 453 1118 l 607 954 l 510 954 l 407 1069 l 303 954 l 207 954 l 361 1118 l 453 1118 m 97 894 l 701 894 l 701 804 l 211 804 l 211 492 l 651 492 l 651 403 l 211 403 l 211 89 l 701 89 l 701 0 l 97 0 l 97 894 z "},"Ể":{"ha":771,"x_min":97,"x_max":706,"o":"m 706 1228 q 679 1157 706 1182 q 596 1125 653 1132 l 596 1076 l 511 1076 l 511 1164 q 600 1180 578 1167 q 622 1222 622 1193 q 606 1260 622 1249 q 553 1272 589 1272 q 474 1256 511 1272 l 474 1315 q 572 1332 517 1332 q 670 1304 635 1332 q 706 1228 706 1276 m 435 1118 l 589 954 l 493 954 l 389 1069 l 286 954 l 189 954 l 343 1118 l 435 1118 m 97 894 l 701 894 l 701 804 l 211 804 l 211 492 l 651 492 l 651 403 l 211 403 l 211 89 l 701 89 l 701 0 l 97 0 l 97 894 z "},"Ễ":{"ha":771,"x_min":97,"x_max":701,"o":"m 489 1122 q 446 1128 467 1122 q 388 1149 425 1135 q 344 1164 367 1157 q 304 1171 322 1171 q 199 1126 236 1171 l 199 1204 q 244 1231 214 1221 q 304 1242 275 1242 q 351 1235 328 1242 q 403 1217 374 1229 q 489 1193 456 1193 q 588 1239 554 1193 l 588 1160 q 548 1133 575 1143 q 489 1122 521 1122 m 436 1119 l 590 956 l 494 956 l 390 1071 l 288 956 l 190 956 l 344 1119 l 436 1119 m 97 894 l 701 894 l 701 804 l 211 804 l 211 492 l 651 492 l 651 403 l 211 403 l 211 89 l 701 89 l 701 0 l 97 0 l 97 894 z "},"Ë":{"ha":771,"x_min":97,"x_max":701,"o":"m 213 1092 l 321 1092 l 321 988 l 213 988 l 213 1092 m 457 1092 l 565 1092 l 565 988 l 457 988 l 457 1092 m 97 894 l 701 894 l 701 804 l 211 804 l 211 492 l 651 492 l 651 403 l 211 403 l 211 89 l 701 89 l 701 0 l 97 0 l 97 894 z "},"Ė":{"ha":771,"x_min":97,"x_max":701,"o":"m 332 1093 l 443 1093 l 443 986 l 332 986 l 332 1093 m 97 894 l 701 894 l 701 804 l 211 804 l 211 492 l 651 492 l 651 403 l 211 403 l 211 89 l 701 89 l 701 0 l 97 0 l 97 894 z "},"Ẹ":{"ha":771,"x_min":97,"x_max":701,"o":"m 97 894 l 701 894 l 701 804 l 211 804 l 211 492 l 651 492 l 651 403 l 211 403 l 211 89 l 701 89 l 701 0 l 97 0 l 97 894 m 328 -121 l 439 -121 l 439 -228 l 328 -228 l 328 -121 z "},"È":{"ha":771,"x_min":97,"x_max":701,"o":"m 247 1189 l 350 1189 l 449 956 l 357 956 l 247 1189 m 97 894 l 701 894 l 701 804 l 211 804 l 211 492 l 651 492 l 651 403 l 211 403 l 211 89 l 701 89 l 701 0 l 97 0 l 97 894 z "},"Ẻ":{"ha":771,"x_min":97,"x_max":701,"o":"m 549 1151 q 521 1063 549 1093 q 425 1022 493 1032 l 425 956 l 333 956 l 333 1071 q 415 1081 388 1074 q 453 1103 443 1089 q 463 1143 463 1117 q 437 1191 463 1176 q 354 1206 411 1206 q 306 1201 332 1206 q 263 1189 281 1196 l 263 1260 q 317 1273 283 1268 q 381 1278 350 1278 q 506 1244 463 1278 q 549 1151 549 1211 m 97 894 l 701 894 l 701 804 l 211 804 l 211 492 l 651 492 l 651 403 l 211 403 l 211 89 l 701 89 l 701 0 l 97 0 l 97 894 z "},"Ē":{"ha":771,"x_min":97,"x_max":701,"o":"m 581 1000 l 181 1000 l 181 1082 l 581 1082 l 581 1000 m 97 894 l 701 894 l 701 804 l 211 804 l 211 492 l 651 492 l 651 403 l 211 403 l 211 89 l 701 89 l 701 0 l 97 0 l 97 894 z "},"Ę":{"ha":771,"x_min":97,"x_max":701,"o":"m 211 804 l 211 492 l 651 492 l 651 403 l 211 403 l 211 89 l 701 89 l 701 0 l 650 0 q 576 -79 601 -36 q 550 -167 550 -122 q 567 -213 550 -200 q 619 -226 583 -226 q 657 -222 638 -226 q 689 -211 676 -218 l 689 -289 q 594 -306 656 -306 q 495 -276 533 -306 q 457 -183 457 -246 q 485 -81 457 -131 q 561 0 514 -32 l 97 0 l 97 894 l 701 894 l 701 804 l 211 804 z "},"Ẽ":{"ha":771,"x_min":97,"x_max":701,"o":"m 489 983 q 379 1011 449 983 q 331 1028 356 1021 q 289 1036 307 1036 q 174 988 215 1036 l 174 1075 q 223 1105 190 1093 q 289 1117 256 1117 q 340 1110 315 1117 q 394 1089 364 1103 q 448 1069 429 1075 q 489 1064 467 1064 q 596 1114 560 1064 l 596 1025 q 553 994 582 1006 q 489 983 524 983 m 97 894 l 701 894 l 701 804 l 211 804 l 211 492 l 651 492 l 651 403 l 211 403 l 211 89 l 701 89 l 701 0 l 97 0 l 97 894 z "},"F":{"ha":725,"x_min":97,"x_max":683,"o":"m 97 894 l 683 894 l 683 804 l 211 804 l 211 492 l 632 492 l 632 403 l 211 403 l 211 0 l 97 0 l 97 894 z "},"G":{"ha":888,"x_min":69,"x_max":818,"o":"m 506 83 q 719 119 626 83 l 719 404 l 481 404 l 481 482 l 818 482 l 818 57 q 499 -14 707 -14 q 178 104 288 -14 q 69 428 69 222 q 174 782 69 656 q 497 908 279 908 q 757 867 640 908 l 757 767 q 507 811 639 811 q 258 714 333 811 q 183 428 183 617 q 261 171 183 258 q 506 83 339 83 z "},"Ğ":{"ha":888,"x_min":69,"x_max":818,"o":"m 390 1131 q 415 1053 390 1079 q 485 1028 440 1028 q 582 1131 582 1028 l 663 1131 q 617 1003 663 1050 q 485 956 571 956 q 355 1003 400 956 q 310 1131 310 1050 l 390 1131 m 506 83 q 719 119 626 83 l 719 404 l 481 404 l 481 482 l 818 482 l 818 57 q 499 -14 707 -14 q 178 104 288 -14 q 69 428 69 222 q 174 782 69 656 q 497 908 279 908 q 757 867 640 908 l 757 767 q 507 811 639 811 q 258 714 333 811 q 183 428 183 617 q 261 171 183 258 q 506 83 339 83 z "},"Ǧ":{"ha":888,"x_min":69,"x_max":818,"o":"m 440 954 l 281 1160 l 379 1160 l 486 1018 l 593 1160 l 692 1160 l 532 954 l 440 954 m 506 83 q 719 119 626 83 l 719 404 l 481 404 l 481 482 l 818 482 l 818 57 q 499 -14 707 -14 q 178 104 288 -14 q 69 428 69 222 q 174 782 69 656 q 497 908 279 908 q 757 867 640 908 l 757 767 q 507 811 639 811 q 258 714 333 811 q 183 428 183 617 q 261 171 183 258 q 506 83 339 83 z "},"Ĝ":{"ha":888,"x_min":69,"x_max":818,"o":"m 601 956 l 494 1097 l 388 956 l 289 956 l 449 1161 l 540 1161 l 700 956 l 601 956 m 506 83 q 719 119 626 83 l 719 404 l 481 404 l 481 482 l 818 482 l 818 57 q 499 -14 707 -14 q 178 104 288 -14 q 69 428 69 222 q 174 782 69 656 q 497 908 279 908 q 757 867 640 908 l 757 767 q 507 811 639 811 q 258 714 333 811 q 183 428 183 617 q 261 171 183 258 q 506 83 339 83 z "},"Ģ":{"ha":888,"x_min":69,"x_max":818,"o":"m 506 83 q 719 119 626 83 l 719 404 l 481 404 l 481 482 l 818 482 l 818 57 q 499 -14 707 -14 q 178 104 288 -14 q 69 428 69 222 q 174 782 69 656 q 497 908 279 908 q 757 867 640 908 l 757 767 q 507 811 639 811 q 258 714 333 811 q 183 428 183 617 q 261 171 183 258 q 506 83 339 83 m 464 -65 l 567 -65 l 508 -311 l 425 -311 l 464 -65 z "},"Ġ":{"ha":888,"x_min":69,"x_max":818,"o":"m 433 1093 l 544 1093 l 544 986 l 433 986 l 433 1093 m 506 83 q 719 119 626 83 l 719 404 l 481 404 l 481 482 l 818 482 l 818 57 q 499 -14 707 -14 q 178 104 288 -14 q 69 428 69 222 q 174 782 69 656 q 497 908 279 908 q 757 867 640 908 l 757 767 q 507 811 639 811 q 258 714 333 811 q 183 428 183 617 q 261 171 183 258 q 506 83 339 83 z "},"Ḡ":{"ha":888,"x_min":69,"x_max":818,"o":"m 689 996 l 289 996 l 289 1078 l 689 1078 l 689 996 m 506 83 q 719 119 626 83 l 719 404 l 481 404 l 481 482 l 818 482 l 818 57 q 499 -14 707 -14 q 178 104 288 -14 q 69 428 69 222 q 174 782 69 656 q 497 908 279 908 q 757 867 640 908 l 757 767 q 507 811 639 811 q 258 714 333 811 q 183 428 183 617 q 261 171 183 258 q 506 83 339 83 z "},"H":{"ha":894,"x_min":97,"x_max":797,"o":"m 683 403 l 211 403 l 211 0 l 97 0 l 97 894 l 211 894 l 211 492 l 683 492 l 683 894 l 797 894 l 797 0 l 683 0 l 683 403 z "},"Ħ":{"ha":894,"x_min":14,"x_max":881,"o":"m 881 644 l 797 644 l 797 0 l 683 0 l 683 403 l 211 403 l 211 0 l 97 0 l 97 644 l 14 644 l 14 735 l 97 735 l 97 894 l 211 894 l 211 735 l 683 735 l 683 894 l 797 894 l 797 735 l 881 735 l 881 644 m 683 644 l 211 644 l 211 492 l 683 492 l 683 644 z "},"Ḫ":{"ha":894,"x_min":97,"x_max":797,"o":"m 683 403 l 211 403 l 211 0 l 97 0 l 97 894 l 211 894 l 211 492 l 683 492 l 683 894 l 797 894 l 797 0 l 683 0 l 683 403 m 351 -97 q 376 -174 351 -149 q 446 -200 401 -200 q 543 -97 543 -200 l 624 -97 q 578 -225 624 -178 q 446 -272 532 -272 q 316 -225 361 -272 q 271 -97 271 -178 l 351 -97 z "},"Ĥ":{"ha":894,"x_min":97,"x_max":797,"o":"m 554 956 l 447 1097 l 340 956 l 242 956 l 401 1161 l 493 1161 l 653 956 l 554 956 m 683 403 l 211 403 l 211 0 l 97 0 l 97 894 l 211 894 l 211 492 l 683 492 l 683 894 l 797 894 l 797 0 l 683 0 l 683 403 z "},"Ḥ":{"ha":894,"x_min":97,"x_max":797,"o":"m 683 403 l 211 403 l 211 0 l 97 0 l 97 894 l 211 894 l 211 492 l 683 492 l 683 894 l 797 894 l 797 0 l 683 0 l 683 403 m 393 -121 l 504 -121 l 504 -228 l 393 -228 l 393 -121 z "},"I":{"ha":308,"x_min":97,"x_max":211,"o":"m 97 894 l 211 894 l 211 0 l 97 0 l 97 894 z "},"Ĳ":{"ha":872,"x_min":97,"x_max":782,"o":"m 97 894 l 211 894 l 211 0 l 97 0 l 97 894 m 782 246 q 713 53 782 121 q 508 -14 644 -14 q 321 18 401 -14 l 321 115 q 402 91 354 100 q 494 82 450 82 q 629 122 590 82 q 668 254 668 163 l 668 894 l 782 894 l 782 246 z "},"Í":{"ha":308,"x_min":97,"x_max":299,"o":"m 196 1189 l 299 1189 l 189 956 l 97 956 l 196 1189 m 97 894 l 211 894 l 211 0 l 97 0 l 97 894 z "},"Ĭ":{"ha":308,"x_min":-22,"x_max":331,"o":"m 58 1140 q 83 1063 58 1089 q 153 1038 108 1038 q 250 1140 250 1038 l 331 1140 q 285 1013 331 1060 q 153 965 239 965 q 23 1013 68 965 q -22 1140 -22 1060 l 58 1140 m 97 894 l 211 894 l 211 0 l 97 0 l 97 894 z "},"Ǐ":{"ha":308,"x_min":-50,"x_max":361,"o":"m 110 956 l -50 1161 l 49 1161 l 156 1019 l 263 1161 l 361 1161 l 201 956 l 110 956 m 97 894 l 211 894 l 211 0 l 97 0 l 97 894 z "},"Î":{"ha":308,"x_min":-51,"x_max":360,"o":"m 261 956 l 154 1097 l 47 956 l -51 956 l 108 1161 l 200 1161 l 360 956 l 261 956 m 97 894 l 211 894 l 211 0 l 97 0 l 97 894 z "},"Ï":{"ha":308,"x_min":-22,"x_max":331,"o":"m -22 1094 l 86 1094 l 86 990 l -22 990 l -22 1094 m 222 1094 l 331 1094 l 331 990 l 222 990 l 222 1094 m 97 894 l 211 894 l 211 0 l 97 0 l 97 894 z "},"İ":{"ha":308,"x_min":97,"x_max":211,"o":"m 99 1096 l 210 1096 l 210 989 l 99 989 l 99 1096 m 97 894 l 211 894 l 211 0 l 97 0 l 97 894 z "},"Ị":{"ha":308,"x_min":97,"x_max":211,"o":"m 97 894 l 211 894 l 211 0 l 97 0 l 97 894 m 99 -121 l 210 -121 l 210 -228 l 99 -228 l 99 -121 z "},"Ì":{"ha":308,"x_min":1,"x_max":211,"o":"m 1 1189 l 104 1189 l 203 956 l 111 956 l 1 1189 m 97 894 l 211 894 l 211 0 l 97 0 l 97 894 z "},"Ỉ":{"ha":308,"x_min":36,"x_max":322,"o":"m 322 1151 q 294 1063 322 1093 q 199 1022 267 1032 l 199 956 l 107 956 l 107 1071 q 189 1081 161 1074 q 226 1103 217 1089 q 236 1143 236 1117 q 210 1191 236 1176 q 128 1206 185 1206 q 80 1201 106 1206 q 36 1189 54 1196 l 36 1260 q 90 1273 57 1268 q 154 1278 124 1278 q 279 1244 236 1278 q 322 1151 322 1211 m 97 894 l 211 894 l 211 0 l 97 0 l 97 894 z "},"Ī":{"ha":308,"x_min":-46,"x_max":354,"o":"m 354 1000 l -46 1000 l -46 1082 l 354 1082 l 354 1000 m 97 894 l 211 894 l 211 0 l 97 0 l 97 894 z "},"Į":{"ha":308,"x_min":10,"x_max":242,"o":"m 172 -226 q 210 -222 190 -226 q 242 -211 229 -218 l 242 -289 q 147 -306 208 -306 q 48 -276 86 -306 q 10 -183 10 -246 q 38 -81 10 -131 q 114 0 67 -32 l 97 0 l 97 894 l 211 894 l 211 0 l 203 0 q 128 -79 154 -36 q 103 -167 103 -122 q 119 -213 103 -200 q 172 -226 136 -226 z "},"Ĩ":{"ha":308,"x_min":-57,"x_max":365,"o":"m 258 963 q 149 990 218 963 q 101 1008 125 1000 q 58 1015 76 1015 q -57 967 -15 1015 l -57 1054 q -8 1084 -40 1072 q 58 1096 25 1096 q 109 1089 85 1096 q 164 1068 133 1082 q 217 1049 199 1054 q 258 1043 236 1043 q 365 1093 329 1043 l 365 1004 q 322 974 351 985 q 258 963 293 963 m 97 894 l 211 894 l 211 0 l 97 0 l 97 894 z "},"J":{"ha":593,"x_min":42,"x_max":503,"o":"m 503 246 q 434 53 503 121 q 229 -14 365 -14 q 42 18 122 -14 l 42 115 q 123 91 75 100 q 215 82 171 82 q 350 122 311 82 q 389 254 389 163 l 389 894 l 503 894 l 503 246 z "},"Ĵ":{"ha":593,"x_min":42,"x_max":649,"o":"m 550 956 l 443 1097 l 336 956 l 238 956 l 397 1161 l 489 1161 l 649 956 l 550 956 m 503 246 q 434 53 503 121 q 229 -14 365 -14 q 42 18 122 -14 l 42 115 q 123 91 75 100 q 215 82 171 82 q 350 122 311 82 q 389 254 389 163 l 389 894 l 503 894 l 503 246 z "},"K":{"ha":843,"x_min":97,"x_max":774,"o":"m 774 0 l 651 0 l 357 463 l 211 308 l 211 0 l 97 0 l 97 894 l 211 894 l 211 451 l 629 894 l 763 894 l 429 536 l 774 0 z "},"Ķ":{"ha":843,"x_min":97,"x_max":774,"o":"m 774 0 l 651 0 l 357 463 l 211 308 l 211 0 l 97 0 l 97 894 l 211 894 l 211 451 l 629 894 l 763 894 l 429 536 l 774 0 m 382 -51 l 485 -51 l 426 -297 l 343 -297 l 382 -51 z "},"L":{"ha":729,"x_min":97,"x_max":688,"o":"m 688 89 l 688 0 l 97 0 l 97 894 l 211 894 l 211 89 l 688 89 z "},"Ĺ":{"ha":729,"x_min":97,"x_max":688,"o":"m 196 1189 l 299 1189 l 189 956 l 97 956 l 196 1189 m 688 89 l 688 0 l 97 0 l 97 894 l 211 894 l 211 89 l 688 89 z "},"Ľ":{"ha":729,"x_min":97,"x_max":688,"o":"m 457 1035 l 560 1035 l 501 789 l 418 789 l 457 1035 m 688 89 l 688 0 l 97 0 l 97 894 l 211 894 l 211 89 l 688 89 z "},"Ļ":{"ha":729,"x_min":97,"x_max":688,"o":"m 688 89 l 688 0 l 97 0 l 97 894 l 211 894 l 211 89 l 688 89 m 346 -51 l 449 -51 l 390 -297 l 307 -297 l 346 -51 z "},"Ŀ":{"ha":729,"x_min":97,"x_max":688,"o":"m 688 89 l 688 0 l 97 0 l 97 894 l 211 894 l 211 89 l 688 89 m 450 467 l 561 467 l 561 360 l 450 360 l 450 467 z "},"Ḷ":{"ha":729,"x_min":97,"x_max":688,"o":"m 688 89 l 688 0 l 97 0 l 97 894 l 211 894 l 211 89 l 688 89 m 326 -121 l 438 -121 l 438 -228 l 326 -228 l 326 -121 z "},"Ḹ":{"ha":729,"x_min":-42,"x_max":688,"o":"m 358 996 l -42 996 l -42 1078 l 358 1078 l 358 996 m 688 89 l 688 0 l 97 0 l 97 894 l 211 894 l 211 89 l 688 89 m 326 -121 l 438 -121 l 438 -228 l 326 -228 l 326 -121 z "},"Ḻ":{"ha":729,"x_min":97,"x_max":688,"o":"m 688 89 l 688 0 l 97 0 l 97 894 l 211 894 l 211 89 l 688 89 m 571 -183 l 171 -183 l 171 -101 l 571 -101 l 571 -183 z "},"Ł":{"ha":729,"x_min":-42,"x_max":688,"o":"m 688 89 l 688 0 l 97 0 l 97 386 l -42 325 l -42 424 l 97 485 l 97 894 l 211 894 l 211 535 l 397 617 l 397 518 l 211 436 l 211 89 l 688 89 z "},"M":{"ha":1044,"x_min":97,"x_max":947,"o":"m 210 717 l 210 0 l 97 0 l 97 894 l 219 894 l 522 274 l 825 894 l 947 894 l 947 0 l 835 0 l 835 717 l 561 156 l 485 156 l 210 717 z "},"Ṃ":{"ha":1044,"x_min":97,"x_max":947,"o":"m 210 717 l 210 0 l 97 0 l 97 894 l 219 894 l 522 274 l 825 894 l 947 894 l 947 0 l 835 0 l 835 717 l 561 156 l 485 156 l 210 717 m 467 -121 l 578 -121 l 578 -228 l 467 -228 l 467 -121 z "},"N":{"ha":921,"x_min":97,"x_max":824,"o":"m 211 0 l 97 0 l 97 894 l 200 894 l 710 175 l 710 894 l 824 894 l 824 0 l 719 0 l 211 718 l 211 0 z "},"Ń":{"ha":921,"x_min":97,"x_max":824,"o":"m 510 1189 l 613 1189 l 503 956 l 411 956 l 510 1189 m 211 0 l 97 0 l 97 894 l 200 894 l 710 175 l 710 894 l 824 894 l 824 0 l 719 0 l 211 718 l 211 0 z "},"Ň":{"ha":921,"x_min":97,"x_max":824,"o":"m 435 956 l 275 1161 l 374 1161 l 481 1019 l 588 1161 l 686 1161 l 526 956 l 435 956 m 211 0 l 97 0 l 97 894 l 200 894 l 710 175 l 710 894 l 824 894 l 824 0 l 719 0 l 211 718 l 211 0 z "},"Ņ":{"ha":921,"x_min":97,"x_max":824,"o":"m 211 0 l 97 0 l 97 894 l 200 894 l 710 175 l 710 894 l 824 894 l 824 0 l 719 0 l 211 718 l 211 0 m 426 -51 l 529 -51 l 471 -297 l 388 -297 l 426 -51 z "},"Ṅ":{"ha":921,"x_min":97,"x_max":824,"o":"m 424 1093 l 535 1093 l 535 986 l 424 986 l 424 1093 m 211 0 l 97 0 l 97 894 l 200 894 l 710 175 l 710 894 l 824 894 l 824 0 l 719 0 l 211 718 l 211 0 z "},"Ṇ":{"ha":921,"x_min":97,"x_max":824,"o":"m 211 0 l 97 0 l 97 894 l 200 894 l 710 175 l 710 894 l 824 894 l 824 0 l 719 0 l 211 718 l 211 0 m 404 -121 l 515 -121 l 515 -228 l 404 -228 l 404 -121 z "},"Ŋ":{"ha":921,"x_min":97,"x_max":824,"o":"m 824 -131 q 772 -273 824 -221 q 622 -325 719 -325 q 499 -306 553 -325 l 499 -215 q 583 -229 542 -229 q 683 -205 657 -229 q 710 -121 710 -181 l 710 14 l 211 718 l 211 0 l 97 0 l 97 894 l 200 894 l 710 175 l 710 894 l 824 894 l 824 -131 z "},"Ṉ":{"ha":921,"x_min":97,"x_max":824,"o":"m 211 0 l 97 0 l 97 894 l 200 894 l 710 175 l 710 894 l 824 894 l 824 0 l 719 0 l 211 718 l 211 0 m 668 -181 l 268 -181 l 268 -99 l 668 -99 l 668 -181 z "},"Ñ":{"ha":921,"x_min":97,"x_max":824,"o":"m 561 983 q 451 1011 521 983 q 403 1028 428 1021 q 361 1036 379 1036 q 246 988 288 1036 l 246 1075 q 295 1105 263 1093 q 361 1117 328 1117 q 412 1110 388 1117 q 467 1089 436 1103 q 520 1069 501 1075 q 561 1064 539 1064 q 668 1114 632 1064 l 668 1025 q 625 994 654 1006 q 561 983 596 983 m 211 0 l 97 0 l 97 894 l 200 894 l 710 175 l 710 894 l 824 894 l 824 0 l 719 0 l 211 718 l 211 0 z "},"O":{"ha":964,"x_min":69,"x_max":894,"o":"m 894 447 q 794 97 894 208 q 482 -14 693 -14 q 170 97 271 -14 q 69 447 69 208 q 170 797 69 686 q 482 908 271 908 q 794 797 693 908 q 894 447 894 686 m 781 447 q 749 660 781 581 q 651 776 717 740 q 482 811 586 811 q 313 776 378 811 q 215 660 247 740 q 183 447 183 581 q 215 234 183 314 q 313 119 247 154 q 482 83 378 83 q 651 119 586 83 q 749 234 717 154 q 781 447 781 314 z "},"Ó":{"ha":964,"x_min":69,"x_max":894,"o":"m 532 1189 l 635 1189 l 525 956 l 433 956 l 532 1189 m 894 447 q 794 97 894 208 q 482 -14 693 -14 q 170 97 271 -14 q 69 447 69 208 q 170 797 69 686 q 482 908 271 908 q 794 797 693 908 q 894 447 894 686 m 781 447 q 749 660 781 581 q 651 776 717 740 q 482 811 586 811 q 313 776 378 811 q 215 660 247 740 q 183 447 183 581 q 215 234 183 314 q 313 119 247 154 q 482 83 378 83 q 651 119 586 83 q 749 234 717 154 q 781 447 781 314 z "},"Ŏ":{"ha":964,"x_min":69,"x_max":894,"o":"m 386 1131 q 411 1053 386 1079 q 481 1028 436 1028 q 578 1131 578 1028 l 658 1131 q 613 1003 658 1050 q 481 956 567 956 q 351 1003 396 956 q 306 1131 306 1050 l 386 1131 m 894 447 q 794 97 894 208 q 482 -14 693 -14 q 170 97 271 -14 q 69 447 69 208 q 170 797 69 686 q 482 908 271 908 q 794 797 693 908 q 894 447 894 686 m 781 447 q 749 660 781 581 q 651 776 717 740 q 482 811 586 811 q 313 776 378 811 q 215 660 247 740 q 183 447 183 581 q 215 234 183 314 q 313 119 247 154 q 482 83 378 83 q 651 119 586 83 q 749 234 717 154 q 781 447 781 314 z "},"Ǒ":{"ha":964,"x_min":69,"x_max":894,"o":"m 436 956 l 276 1161 l 375 1161 l 482 1019 l 589 1161 l 688 1161 l 528 956 l 436 956 m 894 447 q 794 97 894 208 q 482 -14 693 -14 q 170 97 271 -14 q 69 447 69 208 q 170 797 69 686 q 482 908 271 908 q 794 797 693 908 q 894 447 894 686 m 781 447 q 749 660 781 581 q 651 776 717 740 q 482 811 586 811 q 313 776 378 811 q 215 660 247 740 q 183 447 183 581 q 215 234 183 314 q 313 119 247 154 q 482 83 378 83 q 651 119 586 83 q 749 234 717 154 q 781 447 781 314 z "},"Ô":{"ha":964,"x_min":69,"x_max":894,"o":"m 589 956 l 482 1097 l 375 956 l 276 956 l 436 1161 l 528 1161 l 688 956 l 589 956 m 894 447 q 794 97 894 208 q 482 -14 693 -14 q 170 97 271 -14 q 69 447 69 208 q 170 797 69 686 q 482 908 271 908 q 794 797 693 908 q 894 447 894 686 m 781 447 q 749 660 781 581 q 651 776 717 740 q 482 811 586 811 q 313 776 378 811 q 215 660 247 740 q 183 447 183 581 q 215 234 183 314 q 313 119 247 154 q 482 83 378 83 q 651 119 586 83 q 749 234 717 154 q 781 447 781 314 z "},"Ố":{"ha":964,"x_min":69,"x_max":894,"o":"m 685 1281 l 775 1281 l 681 1107 l 599 1107 l 685 1281 m 592 956 l 488 1071 l 385 956 l 288 956 l 442 1119 l 533 1119 l 688 956 l 592 956 m 894 447 q 794 97 894 208 q 482 -14 693 -14 q 170 97 271 -14 q 69 447 69 208 q 170 797 69 686 q 482 908 271 908 q 794 797 693 908 q 894 447 894 686 m 781 447 q 749 660 781 581 q 651 776 717 740 q 482 811 586 811 q 313 776 378 811 q 215 660 247 740 q 183 447 183 581 q 215 234 183 314 q 313 119 247 154 q 482 83 378 83 q 651 119 586 83 q 749 234 717 154 q 781 447 781 314 z "},"Ộ":{"ha":964,"x_min":69,"x_max":894,"o":"m 589 956 l 482 1097 l 375 956 l 276 956 l 436 1161 l 528 1161 l 688 956 l 589 956 m 894 447 q 794 97 894 208 q 482 -14 693 -14 q 170 97 271 -14 q 69 447 69 208 q 170 797 69 686 q 482 908 271 908 q 794 797 693 908 q 894 447 894 686 m 781 447 q 749 660 781 581 q 651 776 717 740 q 482 811 586 811 q 313 776 378 811 q 215 660 247 740 q 183 447 183 581 q 215 234 183 314 q 313 119 247 154 q 482 83 378 83 q 651 119 586 83 q 749 234 717 154 q 781 447 781 314 m 426 -121 l 538 -121 l 538 -228 l 426 -228 l 426 -121 z "},"Ồ":{"ha":964,"x_min":69,"x_max":894,"o":"m 178 1281 l 268 1281 l 354 1107 l 272 1107 l 178 1281 m 511 1119 l 665 956 l 568 956 l 465 1071 l 361 956 l 265 956 l 419 1119 l 511 1119 m 894 447 q 794 97 894 208 q 482 -14 693 -14 q 170 97 271 -14 q 69 447 69 208 q 170 797 69 686 q 482 908 271 908 q 794 797 693 908 q 894 447 894 686 m 781 447 q 749 660 781 581 q 651 776 717 740 q 482 811 586 811 q 313 776 378 811 q 215 660 247 740 q 183 447 183 581 q 215 234 183 314 q 313 119 247 154 q 482 83 378 83 q 651 119 586 83 q 749 234 717 154 q 781 447 781 314 z "},"Ổ":{"ha":964,"x_min":69,"x_max":894,"o":"m 797 1229 q 771 1158 797 1183 q 688 1126 744 1133 l 688 1078 l 603 1078 l 603 1165 q 692 1181 669 1168 q 714 1224 714 1194 q 697 1262 714 1250 q 644 1274 681 1274 q 565 1257 603 1274 l 565 1317 q 664 1333 608 1333 q 762 1306 726 1333 q 797 1229 797 1278 m 526 1119 l 681 956 l 585 956 l 481 1071 l 378 956 l 281 956 l 435 1119 l 526 1119 m 894 447 q 794 97 894 208 q 482 -14 693 -14 q 170 97 271 -14 q 69 447 69 208 q 170 797 69 686 q 482 908 271 908 q 794 797 693 908 q 894 447 894 686 m 781 447 q 749 660 781 581 q 651 776 717 740 q 482 811 586 811 q 313 776 378 811 q 215 660 247 740 q 183 447 183 581 q 215 234 183 314 q 313 119 247 154 q 482 83 378 83 q 651 119 586 83 q 749 234 717 154 q 781 447 781 314 z "},"Ỗ":{"ha":964,"x_min":69,"x_max":894,"o":"m 579 1179 q 536 1185 557 1179 q 478 1206 515 1192 q 435 1221 457 1214 q 394 1228 413 1228 q 289 1183 326 1228 l 289 1261 q 335 1288 304 1278 q 394 1299 365 1299 q 441 1292 418 1299 q 493 1274 464 1286 q 579 1250 546 1250 q 678 1296 644 1250 l 678 1217 q 638 1190 665 1200 q 579 1179 611 1179 m 482 1022 q 578 1055 543 1022 q 614 1150 614 1088 l 686 1150 q 629 1003 686 1050 q 482 956 572 956 q 335 1003 392 956 q 278 1150 278 1050 l 350 1150 q 385 1055 350 1088 q 482 1022 421 1022 m 894 447 q 794 97 894 208 q 482 -14 693 -14 q 170 97 271 -14 q 69 447 69 208 q 170 797 69 686 q 482 908 271 908 q 794 797 693 908 q 894 447 894 686 m 781 447 q 749 660 781 581 q 651 776 717 740 q 482 811 586 811 q 313 776 378 811 q 215 660 247 740 q 183 447 183 581 q 215 234 183 314 q 313 119 247 154 q 482 83 378 83 q 651 119 586 83 q 749 234 717 154 q 781 447 781 314 z "},"Ö":{"ha":964,"x_min":69,"x_max":894,"o":"m 306 1092 l 414 1092 l 414 988 l 306 988 l 306 1092 m 550 1092 l 658 1092 l 658 988 l 550 988 l 550 1092 m 894 447 q 794 97 894 208 q 482 -14 693 -14 q 170 97 271 -14 q 69 447 69 208 q 170 797 69 686 q 482 908 271 908 q 794 797 693 908 q 894 447 894 686 m 781 447 q 749 660 781 581 q 651 776 717 740 q 482 811 586 811 q 313 776 378 811 q 215 660 247 740 q 183 447 183 581 q 215 234 183 314 q 313 119 247 154 q 482 83 378 83 q 651 119 586 83 q 749 234 717 154 q 781 447 781 314 z "},"Ọ":{"ha":964,"x_min":69,"x_max":894,"o":"m 894 447 q 794 97 894 208 q 482 -14 693 -14 q 170 97 271 -14 q 69 447 69 208 q 170 797 69 686 q 482 908 271 908 q 794 797 693 908 q 894 447 894 686 m 781 447 q 749 660 781 581 q 651 776 717 740 q 482 811 586 811 q 313 776 378 811 q 215 660 247 740 q 183 447 183 581 q 215 234 183 314 q 313 119 247 154 q 482 83 378 83 q 651 119 586 83 q 749 234 717 154 q 781 447 781 314 m 426 -121 l 538 -121 l 538 -228 l 426 -228 l 426 -121 z "},"Ò":{"ha":964,"x_min":69,"x_max":894,"o":"m 335 1189 l 438 1189 l 536 956 l 444 956 l 335 1189 m 894 447 q 794 97 894 208 q 482 -14 693 -14 q 170 97 271 -14 q 69 447 69 208 q 170 797 69 686 q 482 908 271 908 q 794 797 693 908 q 894 447 894 686 m 781 447 q 749 660 781 581 q 651 776 717 740 q 482 811 586 811 q 313 776 378 811 q 215 660 247 740 q 183 447 183 581 q 215 234 183 314 q 313 119 247 154 q 482 83 378 83 q 651 119 586 83 q 749 234 717 154 q 781 447 781 314 z "},"Ỏ":{"ha":964,"x_min":69,"x_max":894,"o":"m 654 1151 q 626 1063 654 1093 q 531 1022 599 1032 l 531 956 l 439 956 l 439 1071 q 521 1081 493 1074 q 558 1103 549 1089 q 568 1143 568 1117 q 542 1191 568 1176 q 460 1206 517 1206 q 412 1201 438 1206 q 368 1189 386 1196 l 368 1260 q 422 1273 389 1268 q 486 1278 456 1278 q 611 1244 568 1278 q 654 1151 654 1211 m 894 447 q 794 97 894 208 q 482 -14 693 -14 q 170 97 271 -14 q 69 447 69 208 q 170 797 69 686 q 482 908 271 908 q 794 797 693 908 q 894 447 894 686 m 781 447 q 749 660 781 581 q 651 776 717 740 q 482 811 586 811 q 313 776 378 811 q 215 660 247 740 q 183 447 183 581 q 215 234 183 314 q 313 119 247 154 q 482 83 378 83 q 651 119 586 83 q 749 234 717 154 q 781 447 781 314 z "},"Ơ":{"ha":1056,"x_min":69,"x_max":1028,"o":"m 894 447 q 794 97 894 208 q 482 -14 693 -14 q 170 97 271 -14 q 69 447 69 208 q 170 797 69 686 q 482 908 271 908 q 794 797 693 908 q 877 813 849 799 q 917 860 906 826 q 929 956 929 893 l 1028 956 q 984 778 1028 835 q 850 708 940 721 q 894 447 894 604 m 781 447 q 749 660 781 581 q 651 776 717 740 q 482 811 586 811 q 313 776 378 811 q 215 660 247 740 q 183 447 183 581 q 215 234 183 314 q 313 119 247 154 q 482 83 378 83 q 651 119 586 83 q 749 234 717 154 q 781 447 781 314 z "},"Ớ":{"ha":1056,"x_min":69,"x_max":1028,"o":"m 550 1189 l 653 1189 l 543 956 l 451 956 l 550 1189 m 894 447 q 794 97 894 208 q 482 -14 693 -14 q 170 97 271 -14 q 69 447 69 208 q 170 797 69 686 q 482 908 271 908 q 794 797 693 908 q 877 813 849 799 q 917 860 906 826 q 929 956 929 893 l 1028 956 q 984 778 1028 835 q 850 708 940 721 q 894 447 894 604 m 781 447 q 749 660 781 581 q 651 776 717 740 q 482 811 586 811 q 313 776 378 811 q 215 660 247 740 q 183 447 183 581 q 215 234 183 314 q 313 119 247 154 q 482 83 378 83 q 651 119 586 83 q 749 234 717 154 q 781 447 781 314 z "},"Ợ":{"ha":1056,"x_min":69,"x_max":1028,"o":"m 894 447 q 794 97 894 208 q 482 -14 693 -14 q 170 97 271 -14 q 69 447 69 208 q 170 797 69 686 q 482 908 271 908 q 794 797 693 908 q 877 813 849 799 q 917 860 906 826 q 929 956 929 893 l 1028 956 q 984 778 1028 835 q 850 708 940 721 q 894 447 894 604 m 781 447 q 749 660 781 581 q 651 776 717 740 q 482 811 586 811 q 313 776 378 811 q 215 660 247 740 q 183 447 183 581 q 215 234 183 314 q 313 119 247 154 q 482 83 378 83 q 651 119 586 83 q 749 234 717 154 q 781 447 781 314 m 432 -121 l 543 -121 l 543 -228 l 432 -228 l 432 -121 z "},"Ờ":{"ha":1056,"x_min":69,"x_max":1028,"o":"m 350 1189 l 453 1189 l 551 956 l 460 956 l 350 1189 m 894 447 q 794 97 894 208 q 482 -14 693 -14 q 170 97 271 -14 q 69 447 69 208 q 170 797 69 686 q 482 908 271 908 q 794 797 693 908 q 877 813 849 799 q 917 860 906 826 q 929 956 929 893 l 1028 956 q 984 778 1028 835 q 850 708 940 721 q 894 447 894 604 m 781 447 q 749 660 781 581 q 651 776 717 740 q 482 811 586 811 q 313 776 378 811 q 215 660 247 740 q 183 447 183 581 q 215 234 183 314 q 313 119 247 154 q 482 83 378 83 q 651 119 586 83 q 749 234 717 154 q 781 447 781 314 z "},"Ở":{"ha":1056,"x_min":69,"x_max":1028,"o":"m 663 1151 q 635 1063 663 1093 q 539 1022 607 1032 l 539 956 l 447 956 l 447 1071 q 529 1081 501 1074 q 567 1103 557 1089 q 576 1143 576 1117 q 551 1191 576 1176 q 468 1206 525 1206 q 420 1201 446 1206 q 376 1189 394 1196 l 376 1260 q 431 1273 397 1268 q 494 1278 464 1278 q 619 1244 576 1278 q 663 1151 663 1211 m 894 447 q 794 97 894 208 q 482 -14 693 -14 q 170 97 271 -14 q 69 447 69 208 q 170 797 69 686 q 482 908 271 908 q 794 797 693 908 q 877 813 849 799 q 917 860 906 826 q 929 956 929 893 l 1028 956 q 984 778 1028 835 q 850 708 940 721 q 894 447 894 604 m 781 447 q 749 660 781 581 q 651 776 717 740 q 482 811 586 811 q 313 776 378 811 q 215 660 247 740 q 183 447 183 581 q 215 234 183 314 q 313 119 247 154 q 482 83 378 83 q 651 119 586 83 q 749 234 717 154 q 781 447 781 314 z "},"Ỡ":{"ha":1056,"x_min":69,"x_max":1028,"o":"m 608 982 q 499 1010 568 982 q 451 1027 475 1019 q 408 1035 426 1035 q 293 986 335 1035 l 293 1074 q 342 1103 310 1092 q 408 1115 375 1115 q 459 1108 435 1115 q 514 1088 483 1101 q 567 1068 549 1074 q 608 1063 586 1063 q 715 1113 679 1063 l 715 1024 q 672 993 701 1004 q 608 982 643 982 m 894 447 q 794 97 894 208 q 482 -14 693 -14 q 170 97 271 -14 q 69 447 69 208 q 170 797 69 686 q 482 908 271 908 q 794 797 693 908 q 877 813 849 799 q 917 860 906 826 q 929 956 929 893 l 1028 956 q 984 778 1028 835 q 850 708 940 721 q 894 447 894 604 m 781 447 q 749 660 781 581 q 651 776 717 740 q 482 811 586 811 q 313 776 378 811 q 215 660 247 740 q 183 447 183 581 q 215 234 183 314 q 313 119 247 154 q 482 83 378 83 q 651 119 586 83 q 749 234 717 154 q 781 447 781 314 z "},"Ő":{"ha":964,"x_min":69,"x_max":894,"o":"m 360 1167 l 468 1167 l 356 956 l 261 956 l 360 1167 m 646 1167 l 754 1167 l 642 956 l 547 956 l 646 1167 m 894 447 q 794 97 894 208 q 482 -14 693 -14 q 170 97 271 -14 q 69 447 69 208 q 170 797 69 686 q 482 908 271 908 q 794 797 693 908 q 894 447 894 686 m 781 447 q 749 660 781 581 q 651 776 717 740 q 482 811 586 811 q 313 776 378 811 q 215 660 247 740 q 183 447 183 581 q 215 234 183 314 q 313 119 247 154 q 482 83 378 83 q 651 119 586 83 q 749 234 717 154 q 781 447 781 314 z "},"Ō":{"ha":964,"x_min":69,"x_max":894,"o":"m 682 1000 l 282 1000 l 282 1082 l 682 1082 l 682 1000 m 894 447 q 794 97 894 208 q 482 -14 693 -14 q 170 97 271 -14 q 69 447 69 208 q 170 797 69 686 q 482 908 271 908 q 794 797 693 908 q 894 447 894 686 m 781 447 q 749 660 781 581 q 651 776 717 740 q 482 811 586 811 q 313 776 378 811 q 215 660 247 740 q 183 447 183 581 q 215 234 183 314 q 313 119 247 154 q 482 83 378 83 q 651 119 586 83 q 749 234 717 154 q 781 447 781 314 z "},"Ø":{"ha":964,"x_min":69,"x_max":894,"o":"m 271 24 q 119 174 169 69 q 69 447 69 278 q 170 797 69 686 q 482 908 271 908 q 592 899 533 908 l 615 963 l 715 963 l 682 874 q 842 724 789 829 q 894 447 894 619 q 794 97 894 208 q 482 -14 693 -14 q 360 -3 419 -14 l 335 -74 l 235 -74 l 271 24 m 183 447 q 214 238 183 317 q 307 122 244 158 l 557 806 q 482 811 510 811 q 313 776 378 811 q 215 660 247 740 q 183 447 183 581 m 781 447 q 748 662 781 582 q 647 778 715 742 l 394 90 q 482 83 439 83 q 651 119 586 83 q 749 234 717 154 q 781 447 781 314 z "},"Ǿ":{"ha":964,"x_min":69,"x_max":894,"o":"m 517 1189 l 619 1189 l 510 956 l 418 956 l 517 1189 m 271 24 q 119 174 169 69 q 69 447 69 278 q 170 797 69 686 q 482 908 271 908 q 592 899 533 908 l 615 963 l 715 963 l 682 874 q 842 724 789 829 q 894 447 894 619 q 794 97 894 208 q 482 -14 693 -14 q 360 -3 419 -14 l 335 -74 l 235 -74 l 271 24 m 183 447 q 214 238 183 317 q 307 122 244 158 l 557 806 q 482 811 510 811 q 313 776 378 811 q 215 660 247 740 q 183 447 183 581 m 781 447 q 748 662 781 582 q 647 778 715 742 l 394 90 q 482 83 439 83 q 651 119 586 83 q 749 234 717 154 q 781 447 781 314 z "},"Õ":{"ha":964,"x_min":69,"x_max":894,"o":"m 586 990 q 476 1018 546 990 q 428 1035 453 1028 q 386 1043 404 1043 q 271 994 313 1043 l 271 1082 q 320 1112 288 1100 q 386 1124 353 1124 q 437 1117 413 1124 q 492 1096 461 1110 q 545 1076 526 1082 q 586 1071 564 1071 q 693 1121 657 1071 l 693 1032 q 650 1001 679 1013 q 586 990 621 990 m 894 447 q 794 97 894 208 q 482 -14 693 -14 q 170 97 271 -14 q 69 447 69 208 q 170 797 69 686 q 482 908 271 908 q 794 797 693 908 q 894 447 894 686 m 781 447 q 749 660 781 581 q 651 776 717 740 q 482 811 586 811 q 313 776 378 811 q 215 660 247 740 q 183 447 183 581 q 215 234 183 314 q 313 119 247 154 q 482 83 378 83 q 651 119 586 83 q 749 234 717 154 q 781 447 781 314 z "},"Œ":{"ha":1454,"x_min":69,"x_max":1385,"o":"m 894 804 l 894 492 l 1335 492 l 1335 403 l 894 403 l 894 89 l 1385 89 l 1385 0 l 781 0 l 781 83 q 482 -14 682 -14 q 170 97 271 -14 q 69 447 69 208 q 170 797 69 686 q 482 908 271 908 q 781 811 682 908 l 781 894 l 1385 894 l 1385 804 l 894 804 m 482 83 q 651 119 586 83 q 749 234 717 154 q 781 447 781 314 q 749 660 781 581 q 651 776 717 740 q 482 811 586 811 q 313 776 378 811 q 215 660 247 740 q 183 447 183 581 q 215 234 183 314 q 313 119 247 154 q 482 83 378 83 z "},"P":{"ha":808,"x_min":97,"x_max":767,"o":"m 767 606 q 687 399 767 475 q 469 324 607 324 l 211 324 l 211 0 l 97 0 l 97 894 l 475 894 q 693 816 619 894 q 767 606 767 738 m 451 413 q 601 464 550 413 q 653 606 653 515 q 604 753 653 701 q 458 804 556 804 l 211 804 l 211 413 l 451 413 z "},"Þ":{"ha":808,"x_min":97,"x_max":767,"o":"m 767 444 q 687 237 767 314 q 469 160 607 160 l 211 160 l 211 0 l 97 0 l 97 894 l 211 894 l 211 731 l 475 731 q 694 653 621 731 q 767 444 767 576 m 451 249 q 601 301 549 249 q 653 444 653 354 q 604 590 653 540 q 458 640 556 640 l 211 640 l 211 249 l 451 249 z "},"Q":{"ha":964,"x_min":69,"x_max":894,"o":"m 894 447 q 806 111 894 222 q 532 -12 717 0 q 555 -114 533 -86 q 635 -142 576 -142 q 733 -128 685 -142 l 733 -224 q 613 -239 678 -239 q 421 -11 425 -239 q 156 115 242 4 q 69 447 69 225 q 170 797 69 686 q 482 908 271 908 q 794 797 693 908 q 894 447 894 686 m 781 447 q 749 660 781 581 q 651 776 717 740 q 482 811 586 811 q 313 776 378 811 q 215 660 247 740 q 183 447 183 581 q 215 234 183 314 q 313 119 247 154 q 482 83 378 83 q 651 119 586 83 q 749 234 717 154 q 781 447 781 314 z "},"R":{"ha":836,"x_min":97,"x_max":767,"o":"m 767 617 q 718 452 767 517 q 576 365 669 388 q 617 330 603 350 q 649 269 631 310 l 765 0 l 649 0 l 535 260 q 488 321 515 304 q 400 338 461 338 l 211 338 l 211 0 l 97 0 l 97 894 l 490 894 q 699 822 631 894 q 767 617 767 749 m 458 426 q 653 617 653 426 q 474 804 653 804 l 211 804 l 211 426 l 458 426 z "},"Ŕ":{"ha":836,"x_min":97,"x_max":767,"o":"m 439 1189 l 542 1189 l 432 956 l 340 956 l 439 1189 m 767 617 q 718 452 767 517 q 576 365 669 388 q 617 330 603 350 q 649 269 631 310 l 765 0 l 649 0 l 535 260 q 488 321 515 304 q 400 338 461 338 l 211 338 l 211 0 l 97 0 l 97 894 l 490 894 q 699 822 631 894 q 767 617 767 749 m 458 426 q 653 617 653 426 q 474 804 653 804 l 211 804 l 211 426 l 458 426 z "},"Ř":{"ha":836,"x_min":97,"x_max":767,"o":"m 356 956 l 196 1161 l 294 1161 l 401 1019 l 508 1161 l 607 1161 l 447 956 l 356 956 m 767 617 q 718 452 767 517 q 576 365 669 388 q 617 330 603 350 q 649 269 631 310 l 765 0 l 649 0 l 535 260 q 488 321 515 304 q 400 338 461 338 l 211 338 l 211 0 l 97 0 l 97 894 l 490 894 q 699 822 631 894 q 767 617 767 749 m 458 426 q 653 617 653 426 q 474 804 653 804 l 211 804 l 211 426 l 458 426 z "},"Ŗ":{"ha":836,"x_min":97,"x_max":767,"o":"m 767 617 q 718 452 767 517 q 576 365 669 388 q 617 330 603 350 q 649 269 631 310 l 765 0 l 649 0 l 535 260 q 488 321 515 304 q 400 338 461 338 l 211 338 l 211 0 l 97 0 l 97 894 l 490 894 q 699 822 631 894 q 767 617 767 749 m 458 426 q 653 617 653 426 q 474 804 653 804 l 211 804 l 211 426 l 458 426 m 346 -51 l 449 -51 l 390 -297 l 307 -297 l 346 -51 z "},"Ṛ":{"ha":836,"x_min":97,"x_max":767,"o":"m 767 617 q 718 452 767 517 q 576 365 669 388 q 617 330 603 350 q 649 269 631 310 l 765 0 l 649 0 l 535 260 q 488 321 515 304 q 400 338 461 338 l 211 338 l 211 0 l 97 0 l 97 894 l 490 894 q 699 822 631 894 q 767 617 767 749 m 458 426 q 653 617 653 426 q 474 804 653 804 l 211 804 l 211 426 l 458 426 m 349 -121 l 460 -121 l 460 -228 l 349 -228 l 349 -121 z "},"Ṝ":{"ha":836,"x_min":97,"x_max":767,"o":"m 607 996 l 207 996 l 207 1078 l 607 1078 l 607 996 m 767 617 q 718 452 767 517 q 576 365 669 388 q 617 330 603 350 q 649 269 631 310 l 765 0 l 649 0 l 535 260 q 488 321 515 304 q 400 338 461 338 l 211 338 l 211 0 l 97 0 l 97 894 l 490 894 q 699 822 631 894 q 767 617 767 749 m 458 426 q 653 617 653 426 q 474 804 653 804 l 211 804 l 211 426 l 458 426 m 349 -121 l 460 -121 l 460 -228 l 349 -228 l 349 -121 z "},"Ṟ":{"ha":836,"x_min":97,"x_max":767,"o":"m 767 617 q 718 452 767 517 q 576 365 669 388 q 617 330 603 350 q 649 269 631 310 l 765 0 l 649 0 l 535 260 q 488 321 515 304 q 400 338 461 338 l 211 338 l 211 0 l 97 0 l 97 894 l 490 894 q 699 822 631 894 q 767 617 767 749 m 458 426 q 653 617 653 426 q 474 804 653 804 l 211 804 l 211 426 l 458 426 m 604 -181 l 204 -181 l 204 -99 l 604 -99 l 604 -181 z "},"S":{"ha":772,"x_min":69,"x_max":703,"o":"m 703 233 q 616 50 703 114 q 360 -14 529 -14 q 90 28 193 -14 l 90 129 q 350 83 213 83 q 531 117 474 83 q 589 233 589 150 q 565 316 589 285 q 488 369 540 347 q 336 414 436 390 q 129 507 189 450 q 69 663 69 564 q 153 844 69 779 q 401 908 238 908 q 541 898 474 908 q 649 874 608 888 l 649 774 q 419 811 543 811 q 242 776 301 811 q 183 663 183 742 q 204 589 183 617 q 274 541 225 561 q 421 497 324 521 q 640 397 578 460 q 703 233 703 333 z "},"Ś":{"ha":772,"x_min":69,"x_max":703,"o":"m 408 1189 l 511 1189 l 401 956 l 310 956 l 408 1189 m 703 233 q 616 50 703 114 q 360 -14 529 -14 q 90 28 193 -14 l 90 129 q 350 83 213 83 q 531 117 474 83 q 589 233 589 150 q 565 316 589 285 q 488 369 540 347 q 336 414 436 390 q 129 507 189 450 q 69 663 69 564 q 153 844 69 779 q 401 908 238 908 q 541 898 474 908 q 649 874 608 888 l 649 774 q 419 811 543 811 q 242 776 301 811 q 183 663 183 742 q 204 589 183 617 q 274 541 225 561 q 421 497 324 521 q 640 397 578 460 q 703 233 703 333 z "},"Š":{"ha":772,"x_min":69,"x_max":703,"o":"m 365 956 l 206 1161 l 304 1161 l 411 1019 l 518 1161 l 617 1161 l 457 956 l 365 956 m 703 233 q 616 50 703 114 q 360 -14 529 -14 q 90 28 193 -14 l 90 129 q 350 83 213 83 q 531 117 474 83 q 589 233 589 150 q 565 316 589 285 q 488 369 540 347 q 336 414 436 390 q 129 507 189 450 q 69 663 69 564 q 153 844 69 779 q 401 908 238 908 q 541 898 474 908 q 649 874 608 888 l 649 774 q 419 811 543 811 q 242 776 301 811 q 183 663 183 742 q 204 589 183 617 q 274 541 225 561 q 421 497 324 521 q 640 397 578 460 q 703 233 703 333 z "},"Ş":{"ha":772,"x_min":69,"x_max":703,"o":"m 703 233 q 626 58 703 121 q 399 -12 549 -6 l 381 -67 q 495 -99 456 -67 q 535 -192 535 -132 q 336 -333 535 -333 q 285 -330 314 -333 q 239 -322 256 -326 l 239 -253 q 326 -264 279 -264 q 422 -248 393 -264 q 451 -190 451 -232 q 424 -139 451 -151 q 333 -126 397 -126 l 282 -126 l 318 -14 q 90 28 179 -7 l 90 129 q 350 83 213 83 q 531 117 474 83 q 589 233 589 150 q 565 316 589 285 q 488 369 540 347 q 336 414 436 390 q 129 507 189 450 q 69 663 69 564 q 153 844 69 779 q 401 908 238 908 q 541 898 474 908 q 649 874 608 888 l 649 774 q 419 811 543 811 q 242 776 301 811 q 183 663 183 742 q 204 589 183 617 q 274 541 225 561 q 421 497 324 521 q 640 397 578 460 q 703 233 703 333 z "},"Ŝ":{"ha":772,"x_min":69,"x_max":703,"o":"m 497 956 l 390 1097 l 283 956 l 185 956 l 344 1161 l 436 1161 l 596 956 l 497 956 m 703 233 q 616 50 703 114 q 360 -14 529 -14 q 90 28 193 -14 l 90 129 q 350 83 213 83 q 531 117 474 83 q 589 233 589 150 q 565 316 589 285 q 488 369 540 347 q 336 414 436 390 q 129 507 189 450 q 69 663 69 564 q 153 844 69 779 q 401 908 238 908 q 541 898 474 908 q 649 874 608 888 l 649 774 q 419 811 543 811 q 242 776 301 811 q 183 663 183 742 q 204 589 183 617 q 274 541 225 561 q 421 497 324 521 q 640 397 578 460 q 703 233 703 333 z "},"Ș":{"ha":772,"x_min":69,"x_max":703,"o":"m 703 233 q 616 50 703 114 q 360 -14 529 -14 q 90 28 193 -14 l 90 129 q 350 83 213 83 q 531 117 474 83 q 589 233 589 150 q 565 316 589 285 q 488 369 540 347 q 336 414 436 390 q 129 507 189 450 q 69 663 69 564 q 153 844 69 779 q 401 908 238 908 q 541 898 474 908 q 649 874 608 888 l 649 774 q 419 811 543 811 q 242 776 301 811 q 183 663 183 742 q 204 589 183 617 q 274 541 225 561 q 421 497 324 521 q 640 397 578 460 q 703 233 703 333 m 322 -72 l 426 -72 l 372 -303 l 285 -303 l 322 -72 z "},"Ṡ":{"ha":772,"x_min":69,"x_max":703,"o":"m 333 1093 l 444 1093 l 444 986 l 333 986 l 333 1093 m 703 233 q 616 50 703 114 q 360 -14 529 -14 q 90 28 193 -14 l 90 129 q 350 83 213 83 q 531 117 474 83 q 589 233 589 150 q 565 316 589 285 q 488 369 540 347 q 336 414 436 390 q 129 507 189 450 q 69 663 69 564 q 153 844 69 779 q 401 908 238 908 q 541 898 474 908 q 649 874 608 888 l 649 774 q 419 811 543 811 q 242 776 301 811 q 183 663 183 742 q 204 589 183 617 q 274 541 225 561 q 421 497 324 521 q 640 397 578 460 q 703 233 703 333 z "},"Ṣ":{"ha":772,"x_min":69,"x_max":703,"o":"m 703 233 q 616 50 703 114 q 360 -14 529 -14 q 90 28 193 -14 l 90 129 q 350 83 213 83 q 531 117 474 83 q 589 233 589 150 q 565 316 589 285 q 488 369 540 347 q 336 414 436 390 q 129 507 189 450 q 69 663 69 564 q 153 844 69 779 q 401 908 238 908 q 541 898 474 908 q 649 874 608 888 l 649 774 q 419 811 543 811 q 242 776 301 811 q 183 663 183 742 q 204 589 183 617 q 274 541 225 561 q 421 497 324 521 q 640 397 578 460 q 703 233 703 333 m 311 -121 l 422 -121 l 422 -228 l 311 -228 l 311 -121 z "},"ẞ":{"ha":865,"x_min":90,"x_max":796,"o":"m 507 83 q 639 125 596 83 q 682 253 682 167 q 644 361 682 329 q 517 393 606 393 l 381 393 l 381 500 l 647 667 q 594 772 647 733 q 429 811 542 811 q 258 762 313 811 q 204 606 204 713 l 204 0 l 90 0 l 90 604 q 178 830 90 751 q 429 908 267 908 q 674 832 593 908 q 756 632 756 756 l 501 476 l 567 476 q 735 416 675 476 q 796 251 796 356 q 724 57 796 128 q 525 -14 653 -14 q 325 17 407 -14 l 325 114 q 507 83 396 83 z "},"Ə":{"ha":931,"x_min":69,"x_max":861,"o":"m 757 499 q 714 681 751 611 q 595 783 676 750 q 378 817 514 817 q 249 803 317 817 q 125 765 181 789 l 125 857 q 257 894 183 881 q 403 908 331 908 q 750 792 639 908 q 861 438 861 675 q 446 -14 861 -14 q 164 85 258 -14 q 69 351 69 185 l 69 499 l 757 499 m 446 78 q 681 162 606 78 q 757 417 757 246 l 171 417 l 171 333 q 242 143 171 208 q 446 78 314 78 z "},"T":{"ha":792,"x_min":42,"x_max":750,"o":"m 453 0 l 339 0 l 339 804 l 42 804 l 42 894 l 750 894 l 750 804 l 453 804 l 453 0 z "},"Ŧ":{"ha":792,"x_min":42,"x_max":750,"o":"m 453 804 l 453 531 l 626 531 l 626 444 l 453 444 l 453 0 l 339 0 l 339 444 l 124 444 l 124 531 l 339 531 l 339 804 l 42 804 l 42 894 l 750 894 l 750 804 l 453 804 z "},"Ť":{"ha":792,"x_min":42,"x_max":750,"o":"m 350 956 l 190 1161 l 289 1161 l 396 1019 l 503 1161 l 601 1161 l 442 956 l 350 956 m 453 0 l 339 0 l 339 804 l 42 804 l 42 894 l 750 894 l 750 804 l 453 804 l 453 0 z "},"Ţ":{"ha":792,"x_min":42,"x_max":750,"o":"m 435 0 l 413 -67 q 527 -99 488 -67 q 567 -192 567 -132 q 368 -333 567 -333 q 317 -330 346 -333 q 271 -322 288 -326 l 271 -253 q 358 -264 311 -264 q 454 -248 425 -264 q 483 -190 483 -232 q 456 -139 483 -151 q 365 -126 429 -126 l 314 -126 l 354 0 l 339 0 l 339 804 l 42 804 l 42 894 l 750 894 l 750 804 l 453 804 l 453 0 l 435 0 z "},"Ț":{"ha":792,"x_min":42,"x_max":750,"o":"m 453 0 l 339 0 l 339 804 l 42 804 l 42 894 l 750 894 l 750 804 l 453 804 l 453 0 m 347 -58 l 450 -58 l 392 -304 l 308 -304 l 347 -58 z "},"Ṭ":{"ha":792,"x_min":42,"x_max":750,"o":"m 453 0 l 339 0 l 339 804 l 42 804 l 42 894 l 750 894 l 750 804 l 453 804 l 453 0 m 340 -114 l 451 -114 l 451 -221 l 340 -221 l 340 -114 z "},"Ṯ":{"ha":792,"x_min":42,"x_max":750,"o":"m 453 0 l 339 0 l 339 804 l 42 804 l 42 894 l 750 894 l 750 804 l 453 804 l 453 0 m 596 -174 l 196 -174 l 196 -92 l 596 -92 l 596 -174 z "},"U":{"ha":932,"x_min":90,"x_max":842,"o":"m 467 83 q 660 144 593 83 q 728 326 728 206 l 728 894 l 842 894 l 842 328 q 745 74 842 161 q 467 -14 649 -14 q 187 74 283 -14 q 90 328 90 161 l 90 894 l 204 894 l 204 326 q 272 144 204 206 q 467 83 340 83 z "},"Ú":{"ha":932,"x_min":90,"x_max":842,"o":"m 508 1189 l 611 1189 l 501 956 l 410 956 l 508 1189 m 467 83 q 660 144 593 83 q 728 326 728 206 l 728 894 l 842 894 l 842 328 q 745 74 842 161 q 467 -14 649 -14 q 187 74 283 -14 q 90 328 90 161 l 90 894 l 204 894 l 204 326 q 272 144 204 206 q 467 83 340 83 z "},"Ŭ":{"ha":932,"x_min":90,"x_max":842,"o":"m 343 1131 q 368 1053 343 1079 q 438 1028 393 1028 q 535 1131 535 1028 l 615 1131 q 569 1003 615 1050 q 438 956 524 956 q 308 1003 353 956 q 263 1131 263 1050 l 343 1131 m 467 83 q 660 144 593 83 q 728 326 728 206 l 728 894 l 842 894 l 842 328 q 745 74 842 161 q 467 -14 649 -14 q 187 74 283 -14 q 90 328 90 161 l 90 894 l 204 894 l 204 326 q 272 144 204 206 q 467 83 340 83 z "},"Ǔ":{"ha":932,"x_min":90,"x_max":842,"o":"m 419 956 l 260 1161 l 358 1161 l 465 1019 l 572 1161 l 671 1161 l 511 956 l 419 956 m 467 83 q 660 144 593 83 q 728 326 728 206 l 728 894 l 842 894 l 842 328 q 745 74 842 161 q 467 -14 649 -14 q 187 74 283 -14 q 90 328 90 161 l 90 894 l 204 894 l 204 326 q 272 144 204 206 q 467 83 340 83 z "},"Û":{"ha":932,"x_min":90,"x_max":842,"o":"m 572 956 l 465 1097 l 358 956 l 260 956 l 419 1161 l 511 1161 l 671 956 l 572 956 m 467 83 q 660 144 593 83 q 728 326 728 206 l 728 894 l 842 894 l 842 328 q 745 74 842 161 q 467 -14 649 -14 q 187 74 283 -14 q 90 328 90 161 l 90 894 l 204 894 l 204 326 q 272 144 204 206 q 467 83 340 83 z "},"Ü":{"ha":932,"x_min":90,"x_max":842,"o":"m 272 1092 l 381 1092 l 381 988 l 272 988 l 272 1092 m 517 1092 l 625 1092 l 625 988 l 517 988 l 517 1092 m 467 83 q 660 144 593 83 q 728 326 728 206 l 728 894 l 842 894 l 842 328 q 745 74 842 161 q 467 -14 649 -14 q 187 74 283 -14 q 90 328 90 161 l 90 894 l 204 894 l 204 326 q 272 144 204 206 q 467 83 340 83 z "},"Ǘ":{"ha":932,"x_min":90,"x_max":842,"o":"m 508 1244 l 599 1244 l 504 1071 l 422 1071 l 508 1244 m 276 1060 l 385 1060 l 385 956 l 276 956 l 276 1060 m 549 1060 l 657 1060 l 657 956 l 549 956 l 549 1060 m 467 83 q 660 144 593 83 q 728 326 728 206 l 728 894 l 842 894 l 842 328 q 745 74 842 161 q 467 -14 649 -14 q 187 74 283 -14 q 90 328 90 161 l 90 894 l 204 894 l 204 326 q 272 144 204 206 q 467 83 340 83 z "},"Ǚ":{"ha":932,"x_min":90,"x_max":842,"o":"m 363 1235 l 465 1119 l 569 1235 l 665 1235 l 511 1071 l 419 1071 l 265 1235 l 363 1235 m 269 1060 l 378 1060 l 378 956 l 269 956 l 269 1060 m 542 1060 l 650 1060 l 650 956 l 542 956 l 542 1060 m 467 83 q 660 144 593 83 q 728 326 728 206 l 728 894 l 842 894 l 842 328 q 745 74 842 161 q 467 -14 649 -14 q 187 74 283 -14 q 90 328 90 161 l 90 894 l 204 894 l 204 326 q 272 144 204 206 q 467 83 340 83 z "},"Ǜ":{"ha":932,"x_min":90,"x_max":842,"o":"m 333 1244 l 424 1244 l 510 1071 l 428 1071 l 333 1244 m 275 1060 l 383 1060 l 383 956 l 275 956 l 275 1060 m 547 1060 l 656 1060 l 656 956 l 547 956 l 547 1060 m 467 83 q 660 144 593 83 q 728 326 728 206 l 728 894 l 842 894 l 842 328 q 745 74 842 161 q 467 -14 649 -14 q 187 74 283 -14 q 90 328 90 161 l 90 894 l 204 894 l 204 326 q 272 144 204 206 q 467 83 340 83 z "},"Ǖ":{"ha":932,"x_min":90,"x_max":842,"o":"m 667 1147 l 267 1147 l 267 1229 l 667 1229 l 667 1147 m 289 1083 l 397 1083 l 397 979 l 289 979 l 289 1083 m 533 1083 l 642 1083 l 642 979 l 533 979 l 533 1083 m 467 83 q 660 144 593 83 q 728 326 728 206 l 728 894 l 842 894 l 842 328 q 745 74 842 161 q 467 -14 649 -14 q 187 74 283 -14 q 90 328 90 161 l 90 894 l 204 894 l 204 326 q 272 144 204 206 q 467 83 340 83 z "},"Ụ":{"ha":932,"x_min":90,"x_max":842,"o":"m 467 83 q 660 144 593 83 q 728 326 728 206 l 728 894 l 842 894 l 842 328 q 745 74 842 161 q 467 -14 649 -14 q 187 74 283 -14 q 90 328 90 161 l 90 894 l 204 894 l 204 326 q 272 144 204 206 q 467 83 340 83 m 410 -121 l 521 -121 l 521 -228 l 410 -228 l 410 -121 z "},"Ù":{"ha":932,"x_min":90,"x_max":842,"o":"m 333 1189 l 436 1189 l 535 956 l 443 956 l 333 1189 m 467 83 q 660 144 593 83 q 728 326 728 206 l 728 894 l 842 894 l 842 328 q 745 74 842 161 q 467 -14 649 -14 q 187 74 283 -14 q 90 328 90 161 l 90 894 l 204 894 l 204 326 q 272 144 204 206 q 467 83 340 83 z "},"Ủ":{"ha":932,"x_min":90,"x_max":842,"o":"m 631 1151 q 603 1063 631 1093 q 507 1022 575 1032 l 507 956 l 415 956 l 415 1071 q 497 1081 469 1074 q 535 1103 525 1089 q 544 1143 544 1117 q 519 1191 544 1176 q 436 1206 493 1206 q 388 1201 414 1206 q 344 1189 363 1196 l 344 1260 q 399 1273 365 1268 q 463 1278 432 1278 q 588 1244 544 1278 q 631 1151 631 1211 m 467 83 q 660 144 593 83 q 728 326 728 206 l 728 894 l 842 894 l 842 328 q 745 74 842 161 q 467 -14 649 -14 q 187 74 283 -14 q 90 328 90 161 l 90 894 l 204 894 l 204 326 q 272 144 204 206 q 467 83 340 83 z "},"Ư":{"ha":1118,"x_min":90,"x_max":1076,"o":"m 467 83 q 660 144 593 83 q 728 326 728 206 l 728 894 l 842 894 l 842 790 q 925 806 896 792 q 966 856 954 821 q 978 956 978 892 l 1076 956 q 1019 760 1076 818 q 842 701 963 703 l 842 328 q 745 74 842 161 q 467 -14 649 -14 q 187 74 283 -14 q 90 328 90 161 l 90 894 l 204 894 l 204 326 q 272 144 204 206 q 467 83 340 83 z "},"Ứ":{"ha":1118,"x_min":90,"x_max":1076,"o":"m 529 1189 l 632 1189 l 522 956 l 431 956 l 529 1189 m 467 83 q 660 144 593 83 q 728 326 728 206 l 728 894 l 842 894 l 842 790 q 925 806 896 792 q 966 856 954 821 q 978 956 978 892 l 1076 956 q 1019 760 1076 818 q 842 701 963 703 l 842 328 q 745 74 842 161 q 467 -14 649 -14 q 187 74 283 -14 q 90 328 90 161 l 90 894 l 204 894 l 204 326 q 272 144 204 206 q 467 83 340 83 z "},"Ự":{"ha":1118,"x_min":90,"x_max":1076,"o":"m 467 83 q 660 144 593 83 q 728 326 728 206 l 728 894 l 842 894 l 842 790 q 925 806 896 792 q 966 856 954 821 q 978 956 978 892 l 1076 956 q 1019 760 1076 818 q 842 701 963 703 l 842 328 q 745 74 842 161 q 467 -14 649 -14 q 187 74 283 -14 q 90 328 90 161 l 90 894 l 204 894 l 204 326 q 272 144 204 206 q 467 83 340 83 m 407 -121 l 518 -121 l 518 -228 l 407 -228 l 407 -121 z "},"Ừ":{"ha":1118,"x_min":90,"x_max":1076,"o":"m 324 1189 l 426 1189 l 525 956 l 433 956 l 324 1189 m 467 83 q 660 144 593 83 q 728 326 728 206 l 728 894 l 842 894 l 842 790 q 925 806 896 792 q 966 856 954 821 q 978 956 978 892 l 1076 956 q 1019 760 1076 818 q 842 701 963 703 l 842 328 q 745 74 842 161 q 467 -14 649 -14 q 187 74 283 -14 q 90 328 90 161 l 90 894 l 204 894 l 204 326 q 272 144 204 206 q 467 83 340 83 z "},"Ử":{"ha":1118,"x_min":90,"x_max":1076,"o":"m 643 1151 q 615 1063 643 1093 q 519 1022 588 1032 l 519 956 l 428 956 l 428 1071 q 510 1081 482 1074 q 547 1103 538 1089 q 557 1143 557 1117 q 531 1191 557 1176 q 449 1206 506 1206 q 401 1201 426 1206 q 357 1189 375 1196 l 357 1260 q 411 1273 378 1268 q 475 1278 444 1278 q 600 1244 557 1278 q 643 1151 643 1211 m 467 83 q 660 144 593 83 q 728 326 728 206 l 728 894 l 842 894 l 842 790 q 925 806 896 792 q 966 856 954 821 q 978 956 978 892 l 1076 956 q 1019 760 1076 818 q 842 701 963 703 l 842 328 q 745 74 842 161 q 467 -14 649 -14 q 187 74 283 -14 q 90 328 90 161 l 90 894 l 204 894 l 204 326 q 272 144 204 206 q 467 83 340 83 z "},"Ữ":{"ha":1118,"x_min":90,"x_max":1076,"o":"m 568 982 q 458 1010 528 982 q 410 1027 435 1019 q 368 1035 386 1035 q 253 986 294 1035 l 253 1074 q 302 1103 269 1092 q 368 1115 335 1115 q 419 1108 394 1115 q 474 1088 443 1101 q 527 1068 508 1074 q 568 1063 546 1063 q 675 1113 639 1063 l 675 1024 q 632 993 661 1004 q 568 982 603 982 m 467 83 q 660 144 593 83 q 728 326 728 206 l 728 894 l 842 894 l 842 790 q 925 806 896 792 q 966 856 954 821 q 978 956 978 892 l 1076 956 q 1019 760 1076 818 q 842 701 963 703 l 842 328 q 745 74 842 161 q 467 -14 649 -14 q 187 74 283 -14 q 90 328 90 161 l 90 894 l 204 894 l 204 326 q 272 144 204 206 q 467 83 340 83 z "},"Ű":{"ha":932,"x_min":90,"x_max":842,"o":"m 321 1167 l 429 1167 l 317 956 l 222 956 l 321 1167 m 607 1167 l 715 1167 l 603 956 l 508 956 l 607 1167 m 467 83 q 660 144 593 83 q 728 326 728 206 l 728 894 l 842 894 l 842 328 q 745 74 842 161 q 467 -14 649 -14 q 187 74 283 -14 q 90 328 90 161 l 90 894 l 204 894 l 204 326 q 272 144 204 206 q 467 83 340 83 z "},"Ū":{"ha":932,"x_min":90,"x_max":842,"o":"m 650 1000 l 250 1000 l 250 1082 l 650 1082 l 650 1000 m 467 83 q 660 144 593 83 q 728 326 728 206 l 728 894 l 842 894 l 842 328 q 745 74 842 161 q 467 -14 649 -14 q 187 74 283 -14 q 90 328 90 161 l 90 894 l 204 894 l 204 326 q 272 144 204 206 q 467 83 340 83 z "},"Ų":{"ha":932,"x_min":90,"x_max":842,"o":"m 842 894 l 842 328 q 759 87 842 174 q 519 -12 676 0 q 435 -167 435 -82 q 451 -213 435 -200 q 504 -226 468 -226 q 542 -222 522 -226 q 574 -211 561 -218 l 574 -289 q 479 -306 540 -306 q 380 -276 418 -306 q 342 -183 342 -246 q 365 -90 342 -135 q 429 -12 389 -46 q 177 83 264 -4 q 90 328 90 171 l 90 894 l 204 894 l 204 326 q 272 144 204 206 q 467 83 340 83 q 660 144 593 83 q 728 326 728 206 l 728 894 l 842 894 z "},"Ů":{"ha":932,"x_min":90,"x_max":842,"o":"m 297 1104 q 340 1211 297 1168 q 449 1254 383 1254 q 560 1211 517 1254 q 603 1104 603 1168 q 560 998 603 1040 q 449 956 517 956 q 340 999 383 956 q 297 1104 297 1042 m 364 1104 q 388 1044 364 1068 q 449 1019 413 1019 q 510 1044 486 1019 q 535 1104 535 1068 q 510 1165 535 1140 q 449 1189 486 1189 q 388 1165 413 1189 q 364 1104 364 1140 m 467 83 q 660 144 593 83 q 728 326 728 206 l 728 894 l 842 894 l 842 328 q 745 74 842 161 q 467 -14 649 -14 q 187 74 283 -14 q 90 328 90 161 l 90 894 l 204 894 l 204 326 q 272 144 204 206 q 467 83 340 83 z "},"Ũ":{"ha":932,"x_min":90,"x_max":842,"o":"m 554 983 q 444 1011 514 983 q 397 1028 421 1021 q 354 1036 372 1036 q 239 988 281 1036 l 239 1075 q 288 1105 256 1093 q 354 1117 321 1117 q 405 1110 381 1117 q 460 1089 429 1103 q 513 1069 494 1075 q 554 1064 532 1064 q 661 1114 625 1064 l 661 1025 q 618 994 647 1006 q 554 983 589 983 m 467 83 q 660 144 593 83 q 728 326 728 206 l 728 894 l 842 894 l 842 328 q 745 74 842 161 q 467 -14 649 -14 q 187 74 283 -14 q 90 328 90 161 l 90 894 l 204 894 l 204 326 q 272 144 204 206 q 467 83 340 83 z "},"V":{"ha":951,"x_min":69,"x_max":882,"o":"m 882 894 l 543 0 l 410 0 l 69 894 l 188 894 l 475 115 l 764 894 l 882 894 z "},"W":{"ha":1196,"x_min":69,"x_max":1126,"o":"m 400 0 l 278 0 l 69 894 l 182 894 l 350 158 l 543 796 l 543 894 l 636 894 l 844 158 l 1015 894 l 1126 894 l 919 0 l 799 0 l 604 681 l 400 0 z "},"Ẃ":{"ha":1196,"x_min":69,"x_max":1126,"o":"m 653 1189 l 756 1189 l 646 956 l 554 956 l 653 1189 m 400 0 l 278 0 l 69 894 l 182 894 l 350 158 l 543 796 l 543 894 l 636 894 l 844 158 l 1015 894 l 1126 894 l 919 0 l 799 0 l 604 681 l 400 0 z "},"Ŵ":{"ha":1196,"x_min":69,"x_max":1126,"o":"m 711 956 l 604 1097 l 497 956 l 399 956 l 558 1161 l 650 1161 l 810 956 l 711 956 m 400 0 l 278 0 l 69 894 l 182 894 l 350 158 l 543 796 l 543 894 l 636 894 l 844 158 l 1015 894 l 1126 894 l 919 0 l 799 0 l 604 681 l 400 0 z "},"Ẅ":{"ha":1196,"x_min":69,"x_max":1126,"o":"m 428 1088 l 536 1088 l 536 983 l 428 983 l 428 1088 m 672 1088 l 781 1088 l 781 983 l 672 983 l 672 1088 m 400 0 l 278 0 l 69 894 l 182 894 l 350 158 l 543 796 l 543 894 l 636 894 l 844 158 l 1015 894 l 1126 894 l 919 0 l 799 0 l 604 681 l 400 0 z "},"Ẁ":{"ha":1196,"x_min":69,"x_max":1126,"o":"m 438 1189 l 540 1189 l 639 956 l 547 956 l 438 1189 m 400 0 l 278 0 l 69 894 l 182 894 l 350 158 l 543 796 l 543 894 l 636 894 l 844 158 l 1015 894 l 1126 894 l 919 0 l 799 0 l 604 681 l 400 0 z "},"X":{"ha":906,"x_min":69,"x_max":836,"o":"m 453 357 l 201 0 l 69 0 l 385 444 l 74 894 l 204 894 l 453 529 l 701 894 l 832 894 l 521 444 l 836 0 l 704 0 l 453 357 z "},"Y":{"ha":892,"x_min":69,"x_max":822,"o":"m 389 333 l 69 894 l 188 894 l 446 431 l 704 894 l 822 894 l 503 333 l 503 0 l 389 0 l 389 333 z "},"Ý":{"ha":892,"x_min":69,"x_max":822,"o":"m 482 1189 l 585 1189 l 475 956 l 383 956 l 482 1189 m 389 333 l 69 894 l 188 894 l 446 431 l 704 894 l 822 894 l 503 333 l 503 0 l 389 0 l 389 333 z "},"Ŷ":{"ha":892,"x_min":69,"x_max":822,"o":"m 553 956 l 446 1097 l 339 956 l 240 956 l 400 1161 l 492 1161 l 651 956 l 553 956 m 389 333 l 69 894 l 188 894 l 446 431 l 704 894 l 822 894 l 503 333 l 503 0 l 389 0 l 389 333 z "},"Ÿ":{"ha":892,"x_min":69,"x_max":822,"o":"m 269 1092 l 378 1092 l 378 988 l 269 988 l 269 1092 m 514 1092 l 622 1092 l 622 988 l 514 988 l 514 1092 m 389 333 l 69 894 l 188 894 l 446 431 l 704 894 l 822 894 l 503 333 l 503 0 l 389 0 l 389 333 z "},"Ẏ":{"ha":892,"x_min":69,"x_max":822,"o":"m 390 1093 l 501 1093 l 501 986 l 390 986 l 390 1093 m 389 333 l 69 894 l 188 894 l 446 431 l 704 894 l 822 894 l 503 333 l 503 0 l 389 0 l 389 333 z "},"Ỵ":{"ha":892,"x_min":69,"x_max":822,"o":"m 389 333 l 69 894 l 188 894 l 446 431 l 704 894 l 822 894 l 503 333 l 503 0 l 389 0 l 389 333 m 390 -100 l 501 -100 l 501 -207 l 390 -207 l 390 -100 z "},"Ỳ":{"ha":892,"x_min":69,"x_max":822,"o":"m 308 1189 l 411 1189 l 510 956 l 418 956 l 308 1189 m 389 333 l 69 894 l 188 894 l 446 431 l 704 894 l 822 894 l 503 333 l 503 0 l 389 0 l 389 333 z "},"Ỷ":{"ha":892,"x_min":69,"x_max":822,"o":"m 603 1151 q 575 1063 603 1093 q 479 1022 547 1032 l 479 956 l 388 956 l 388 1071 q 469 1081 442 1074 q 507 1103 497 1089 q 517 1143 517 1117 q 491 1191 517 1176 q 408 1206 465 1206 q 360 1201 386 1206 q 317 1189 335 1196 l 317 1260 q 371 1273 338 1268 q 435 1278 404 1278 q 560 1244 517 1278 q 603 1151 603 1211 m 389 333 l 69 894 l 188 894 l 446 431 l 704 894 l 822 894 l 503 333 l 503 0 l 389 0 l 389 333 z "},"Ỹ":{"ha":892,"x_min":69,"x_max":822,"o":"m 550 983 q 440 1011 510 983 q 392 1028 417 1021 q 350 1036 368 1036 q 235 988 276 1036 l 235 1075 q 284 1105 251 1093 q 350 1117 317 1117 q 401 1110 376 1117 q 456 1089 425 1103 q 509 1069 490 1075 q 550 1064 528 1064 q 657 1114 621 1064 l 657 1025 q 614 994 643 1006 q 550 983 585 983 m 389 333 l 69 894 l 188 894 l 446 431 l 704 894 l 822 894 l 503 333 l 503 0 l 389 0 l 389 333 z "},"Z":{"ha":794,"x_min":69,"x_max":732,"o":"m 69 64 l 581 804 l 93 804 l 93 894 l 725 894 l 725 824 l 218 89 l 732 89 l 732 0 l 69 0 l 69 64 z "},"Ź":{"ha":794,"x_min":69,"x_max":732,"o":"m 460 1189 l 563 1189 l 453 956 l 361 956 l 460 1189 m 69 64 l 581 804 l 93 804 l 93 894 l 725 894 l 725 824 l 218 89 l 732 89 l 732 0 l 69 0 l 69 64 z "},"Ž":{"ha":794,"x_min":69,"x_max":732,"o":"m 375 956 l 215 1161 l 314 1161 l 421 1019 l 528 1161 l 626 1161 l 467 956 l 375 956 m 69 64 l 581 804 l 93 804 l 93 894 l 725 894 l 725 824 l 218 89 l 732 89 l 732 0 l 69 0 l 69 64 z "},"Ż":{"ha":794,"x_min":69,"x_max":732,"o":"m 354 1093 l 465 1093 l 465 986 l 354 986 l 354 1093 m 69 64 l 581 804 l 93 804 l 93 894 l 725 894 l 725 824 l 218 89 l 732 89 l 732 0 l 69 0 l 69 64 z "},"Ẓ":{"ha":794,"x_min":69,"x_max":732,"o":"m 69 64 l 581 804 l 93 804 l 93 894 l 725 894 l 725 824 l 218 89 l 732 89 l 732 0 l 69 0 l 69 64 m 357 -121 l 468 -121 l 468 -228 l 357 -228 l 357 -121 z "},"a":{"ha":751,"x_min":69,"x_max":661,"o":"m 557 75 q 452 8 514 29 q 301 -14 390 -14 q 135 38 201 -14 q 69 185 69 89 q 132 335 69 281 q 324 390 194 390 l 553 390 l 553 431 q 538 517 553 486 q 482 563 522 549 q 365 576 442 576 q 146 540 250 576 l 146 635 q 381 672 244 672 q 592 615 522 672 q 661 431 661 557 l 661 0 l 565 0 l 557 75 m 326 303 q 216 274 250 303 q 182 185 182 246 q 219 103 182 128 q 331 79 257 79 q 553 175 471 79 l 553 303 l 326 303 z "},"á":{"ha":751,"x_min":69,"x_max":661,"o":"m 438 958 l 540 958 l 431 725 l 339 725 l 438 958 m 557 75 q 452 8 514 29 q 301 -14 390 -14 q 135 38 201 -14 q 69 185 69 89 q 132 335 69 281 q 324 390 194 390 l 553 390 l 553 431 q 538 517 553 486 q 482 563 522 549 q 365 576 442 576 q 146 540 250 576 l 146 635 q 381 672 244 672 q 592 615 522 672 q 661 431 661 557 l 661 0 l 565 0 l 557 75 m 326 303 q 216 274 250 303 q 182 185 182 246 q 219 103 182 128 q 331 79 257 79 q 553 175 471 79 l 553 303 l 326 303 z "},"ă":{"ha":751,"x_min":69,"x_max":661,"o":"m 299 900 q 324 823 299 849 q 393 797 349 797 q 490 900 490 797 l 571 900 q 525 772 571 819 q 393 725 479 725 q 263 772 308 725 q 218 900 218 819 l 299 900 m 557 75 q 452 8 514 29 q 301 -14 390 -14 q 135 38 201 -14 q 69 185 69 89 q 132 335 69 281 q 324 390 194 390 l 553 390 l 553 431 q 538 517 553 486 q 482 563 522 549 q 365 576 442 576 q 146 540 250 576 l 146 635 q 381 672 244 672 q 592 615 522 672 q 661 431 661 557 l 661 0 l 565 0 l 557 75 m 326 303 q 216 274 250 303 q 182 185 182 246 q 219 103 182 128 q 331 79 257 79 q 553 175 471 79 l 553 303 l 326 303 z "},"ắ":{"ha":751,"x_min":69,"x_max":661,"o":"m 436 1043 l 526 1043 l 432 869 l 350 869 l 436 1043 m 404 792 q 501 824 465 792 q 536 919 536 857 l 608 919 q 551 772 608 819 q 404 725 494 725 q 257 772 314 725 q 200 919 200 819 l 272 919 q 308 824 272 857 q 404 792 343 792 m 557 75 q 452 8 514 29 q 301 -14 390 -14 q 135 38 201 -14 q 69 185 69 89 q 132 335 69 281 q 324 390 194 390 l 553 390 l 553 431 q 538 517 553 486 q 482 563 522 549 q 365 576 442 576 q 146 540 250 576 l 146 635 q 381 672 244 672 q 592 615 522 672 q 661 431 661 557 l 661 0 l 565 0 l 557 75 m 326 303 q 216 274 250 303 q 182 185 182 246 q 219 103 182 128 q 331 79 257 79 q 553 175 471 79 l 553 303 l 326 303 z "},"ặ":{"ha":751,"x_min":69,"x_max":661,"o":"m 293 900 q 318 823 293 849 q 388 797 343 797 q 485 900 485 797 l 565 900 q 519 772 565 819 q 388 725 474 725 q 258 772 303 725 q 213 900 213 819 l 293 900 m 557 75 q 452 8 514 29 q 301 -14 390 -14 q 135 38 201 -14 q 69 185 69 89 q 132 335 69 281 q 324 390 194 390 l 553 390 l 553 431 q 538 517 553 486 q 482 563 522 549 q 365 576 442 576 q 146 540 250 576 l 146 635 q 381 672 244 672 q 592 615 522 672 q 661 431 661 557 l 661 0 l 565 0 l 557 75 m 326 303 q 216 274 250 303 q 182 185 182 246 q 219 103 182 128 q 331 79 257 79 q 553 175 471 79 l 553 303 l 326 303 m 333 -121 l 444 -121 l 444 -228 l 333 -228 l 333 -121 z "},"ằ":{"ha":751,"x_min":69,"x_max":661,"o":"m 275 1043 l 365 1043 l 451 869 l 369 869 l 275 1043 m 397 792 q 494 824 458 792 q 529 919 529 857 l 601 919 q 544 772 601 819 q 397 725 488 725 q 250 772 307 725 q 193 919 193 819 l 265 919 q 301 824 265 857 q 397 792 336 792 m 557 75 q 452 8 514 29 q 301 -14 390 -14 q 135 38 201 -14 q 69 185 69 89 q 132 335 69 281 q 324 390 194 390 l 553 390 l 553 431 q 538 517 553 486 q 482 563 522 549 q 365 576 442 576 q 146 540 250 576 l 146 635 q 381 672 244 672 q 592 615 522 672 q 661 431 661 557 l 661 0 l 565 0 l 557 75 m 326 303 q 216 274 250 303 q 182 185 182 246 q 219 103 182 128 q 331 79 257 79 q 553 175 471 79 l 553 303 l 326 303 z "},"ẳ":{"ha":751,"x_min":69,"x_max":661,"o":"m 535 1021 q 509 951 535 975 q 425 918 483 928 l 425 871 l 342 871 l 342 951 q 432 969 408 954 q 456 1014 456 983 q 438 1055 456 1042 q 382 1068 419 1068 q 303 1050 342 1068 l 303 1107 q 406 1124 349 1124 q 501 1097 467 1124 q 535 1021 535 1069 m 394 792 q 491 824 456 792 q 526 919 526 857 l 599 919 q 542 772 599 819 q 394 725 485 725 q 247 772 304 725 q 190 919 190 819 l 263 919 q 298 824 263 857 q 394 792 333 792 m 557 75 q 452 8 514 29 q 301 -14 390 -14 q 135 38 201 -14 q 69 185 69 89 q 132 335 69 281 q 324 390 194 390 l 553 390 l 553 431 q 538 517 553 486 q 482 563 522 549 q 365 576 442 576 q 146 540 250 576 l 146 635 q 381 672 244 672 q 592 615 522 672 q 661 431 661 557 l 661 0 l 565 0 l 557 75 m 326 303 q 216 274 250 303 q 182 185 182 246 q 219 103 182 128 q 331 79 257 79 q 553 175 471 79 l 553 303 l 326 303 z "},"ẵ":{"ha":751,"x_min":69,"x_max":661,"o":"m 497 949 q 454 955 475 949 q 396 975 433 961 q 353 990 375 983 q 313 997 331 997 q 207 953 244 997 l 207 1031 q 253 1058 222 1047 q 313 1068 283 1068 q 359 1062 336 1068 q 411 1043 382 1056 q 497 1019 464 1019 q 596 1065 563 1019 l 596 986 q 556 959 583 969 q 497 949 529 949 m 400 792 q 497 824 461 792 q 532 919 532 857 l 604 919 q 547 772 604 819 q 400 725 490 725 q 253 772 310 725 q 196 919 196 819 l 268 919 q 303 824 268 857 q 400 792 339 792 m 557 75 q 452 8 514 29 q 301 -14 390 -14 q 135 38 201 -14 q 69 185 69 89 q 132 335 69 281 q 324 390 194 390 l 553 390 l 553 431 q 538 517 553 486 q 482 563 522 549 q 365 576 442 576 q 146 540 250 576 l 146 635 q 381 672 244 672 q 592 615 522 672 q 661 431 661 557 l 661 0 l 565 0 l 557 75 m 326 303 q 216 274 250 303 q 182 185 182 246 q 219 103 182 128 q 331 79 257 79 q 553 175 471 79 l 553 303 l 326 303 z "},"ǎ":{"ha":751,"x_min":69,"x_max":661,"o":"m 343 725 l 183 931 l 282 931 l 389 789 l 496 931 l 594 931 l 435 725 l 343 725 m 557 75 q 452 8 514 29 q 301 -14 390 -14 q 135 38 201 -14 q 69 185 69 89 q 132 335 69 281 q 324 390 194 390 l 553 390 l 553 431 q 538 517 553 486 q 482 563 522 549 q 365 576 442 576 q 146 540 250 576 l 146 635 q 381 672 244 672 q 592 615 522 672 q 661 431 661 557 l 661 0 l 565 0 l 557 75 m 326 303 q 216 274 250 303 q 182 185 182 246 q 219 103 182 128 q 331 79 257 79 q 553 175 471 79 l 553 303 l 326 303 z "},"â":{"ha":751,"x_min":69,"x_max":661,"o":"m 499 725 l 392 867 l 285 725 l 186 725 l 346 931 l 438 931 l 597 725 l 499 725 m 557 75 q 452 8 514 29 q 301 -14 390 -14 q 135 38 201 -14 q 69 185 69 89 q 132 335 69 281 q 324 390 194 390 l 553 390 l 553 431 q 538 517 553 486 q 482 563 522 549 q 365 576 442 576 q 146 540 250 576 l 146 635 q 381 672 244 672 q 592 615 522 672 q 661 431 661 557 l 661 0 l 565 0 l 557 75 m 326 303 q 216 274 250 303 q 182 185 182 246 q 219 103 182 128 q 331 79 257 79 q 553 175 471 79 l 553 303 l 326 303 z "},"ấ":{"ha":751,"x_min":69,"x_max":675,"o":"m 585 1050 l 675 1050 l 581 876 l 499 876 l 585 1050 m 492 725 l 388 840 l 285 725 l 188 725 l 342 889 l 433 889 l 588 725 l 492 725 m 557 75 q 452 8 514 29 q 301 -14 390 -14 q 135 38 201 -14 q 69 185 69 89 q 132 335 69 281 q 324 390 194 390 l 553 390 l 553 431 q 538 517 553 486 q 482 563 522 549 q 365 576 442 576 q 146 540 250 576 l 146 635 q 381 672 244 672 q 592 615 522 672 q 661 431 661 557 l 661 0 l 565 0 l 557 75 m 326 303 q 216 274 250 303 q 182 185 182 246 q 219 103 182 128 q 331 79 257 79 q 553 175 471 79 l 553 303 l 326 303 z "},"ậ":{"ha":751,"x_min":69,"x_max":661,"o":"m 489 725 l 382 867 l 275 725 l 176 725 l 336 931 l 428 931 l 588 725 l 489 725 m 557 75 q 452 8 514 29 q 301 -14 390 -14 q 135 38 201 -14 q 69 185 69 89 q 132 335 69 281 q 324 390 194 390 l 553 390 l 553 431 q 538 517 553 486 q 482 563 522 549 q 365 576 442 576 q 146 540 250 576 l 146 635 q 381 672 244 672 q 592 615 522 672 q 661 431 661 557 l 661 0 l 565 0 l 557 75 m 326 303 q 216 274 250 303 q 182 185 182 246 q 219 103 182 128 q 331 79 257 79 q 553 175 471 79 l 553 303 l 326 303 m 326 -121 l 438 -121 l 438 -228 l 326 -228 l 326 -121 z "},"ầ":{"ha":751,"x_min":69,"x_max":661,"o":"m 81 1050 l 171 1050 l 257 876 l 175 876 l 81 1050 m 414 889 l 568 725 l 471 725 l 368 840 l 264 725 l 168 725 l 322 889 l 414 889 m 557 75 q 452 8 514 29 q 301 -14 390 -14 q 135 38 201 -14 q 69 185 69 89 q 132 335 69 281 q 324 390 194 390 l 553 390 l 553 431 q 538 517 553 486 q 482 563 522 549 q 365 576 442 576 q 146 540 250 576 l 146 635 q 381 672 244 672 q 592 615 522 672 q 661 431 661 557 l 661 0 l 565 0 l 557 75 m 326 303 q 216 274 250 303 q 182 185 182 246 q 219 103 182 128 q 331 79 257 79 q 553 175 471 79 l 553 303 l 326 303 z "},"ẩ":{"ha":751,"x_min":69,"x_max":694,"o":"m 694 997 q 668 926 694 951 q 585 894 642 901 l 585 846 l 500 846 l 500 933 q 589 949 567 936 q 611 992 611 963 q 594 1030 611 1018 q 542 1042 578 1042 q 463 1025 500 1042 l 463 1085 q 561 1101 506 1101 q 659 1074 624 1101 q 694 997 694 1046 m 424 888 l 578 724 l 482 724 l 378 839 l 275 724 l 178 724 l 332 888 l 424 888 m 557 75 q 452 8 514 29 q 301 -14 390 -14 q 135 38 201 -14 q 69 185 69 89 q 132 335 69 281 q 324 390 194 390 l 553 390 l 553 431 q 538 517 553 486 q 482 563 522 549 q 365 576 442 576 q 146 540 250 576 l 146 635 q 381 672 244 672 q 592 615 522 672 q 661 431 661 557 l 661 0 l 565 0 l 557 75 m 326 303 q 216 274 250 303 q 182 185 182 246 q 219 103 182 128 q 331 79 257 79 q 553 175 471 79 l 553 303 l 326 303 z "},"ẫ":{"ha":751,"x_min":69,"x_max":661,"o":"m 488 892 q 444 898 465 892 q 386 918 424 904 q 343 933 365 926 q 303 940 321 940 q 197 896 235 940 l 197 974 q 243 1001 213 990 q 303 1011 274 1011 q 349 1005 326 1011 q 401 986 372 999 q 488 963 454 963 q 586 1008 553 963 l 586 929 q 547 902 574 913 q 488 892 519 892 m 435 889 l 589 725 l 493 725 l 389 840 l 286 725 l 189 725 l 343 889 l 435 889 m 557 75 q 452 8 514 29 q 301 -14 390 -14 q 135 38 201 -14 q 69 185 69 89 q 132 335 69 281 q 324 390 194 390 l 553 390 l 553 431 q 538 517 553 486 q 482 563 522 549 q 365 576 442 576 q 146 540 250 576 l 146 635 q 381 672 244 672 q 592 615 522 672 q 661 431 661 557 l 661 0 l 565 0 l 557 75 m 326 303 q 216 274 250 303 q 182 185 182 246 q 219 103 182 128 q 331 79 257 79 q 553 175 471 79 l 553 303 l 326 303 z "},"ä":{"ha":751,"x_min":69,"x_max":661,"o":"m 222 861 l 331 861 l 331 757 l 222 757 l 222 861 m 467 861 l 575 861 l 575 757 l 467 757 l 467 861 m 557 75 q 452 8 514 29 q 301 -14 390 -14 q 135 38 201 -14 q 69 185 69 89 q 132 335 69 281 q 324 390 194 390 l 553 390 l 553 431 q 538 517 553 486 q 482 563 522 549 q 365 576 442 576 q 146 540 250 576 l 146 635 q 381 672 244 672 q 592 615 522 672 q 661 431 661 557 l 661 0 l 565 0 l 557 75 m 326 303 q 216 274 250 303 q 182 185 182 246 q 219 103 182 128 q 331 79 257 79 q 553 175 471 79 l 553 303 l 326 303 z "},"ạ":{"ha":751,"x_min":69,"x_max":661,"o":"m 557 75 q 452 8 514 29 q 301 -14 390 -14 q 135 38 201 -14 q 69 185 69 89 q 132 335 69 281 q 324 390 194 390 l 553 390 l 553 431 q 538 517 553 486 q 482 563 522 549 q 365 576 442 576 q 146 540 250 576 l 146 635 q 381 672 244 672 q 592 615 522 672 q 661 431 661 557 l 661 0 l 565 0 l 557 75 m 326 303 q 216 274 250 303 q 182 185 182 246 q 219 103 182 128 q 331 79 257 79 q 553 175 471 79 l 553 303 l 326 303 m 332 -121 l 443 -121 l 443 -228 l 332 -228 l 332 -121 z "},"à":{"ha":751,"x_min":69,"x_max":661,"o":"m 253 958 l 356 958 l 454 725 l 363 725 l 253 958 m 557 75 q 452 8 514 29 q 301 -14 390 -14 q 135 38 201 -14 q 69 185 69 89 q 132 335 69 281 q 324 390 194 390 l 553 390 l 553 431 q 538 517 553 486 q 482 563 522 549 q 365 576 442 576 q 146 540 250 576 l 146 635 q 381 672 244 672 q 592 615 522 672 q 661 431 661 557 l 661 0 l 565 0 l 557 75 m 326 303 q 216 274 250 303 q 182 185 182 246 q 219 103 182 128 q 331 79 257 79 q 553 175 471 79 l 553 303 l 326 303 z "},"ả":{"ha":751,"x_min":69,"x_max":661,"o":"m 549 921 q 521 832 549 863 q 425 792 493 801 l 425 725 l 333 725 l 333 840 q 415 851 388 843 q 453 872 443 858 q 463 913 463 886 q 437 960 463 946 q 354 975 411 975 q 306 970 332 975 q 263 958 281 965 l 263 1029 q 317 1042 283 1038 q 381 1047 350 1047 q 506 1014 463 1047 q 549 921 549 981 m 557 75 q 452 8 514 29 q 301 -14 390 -14 q 135 38 201 -14 q 69 185 69 89 q 132 335 69 281 q 324 390 194 390 l 553 390 l 553 431 q 538 517 553 486 q 482 563 522 549 q 365 576 442 576 q 146 540 250 576 l 146 635 q 381 672 244 672 q 592 615 522 672 q 661 431 661 557 l 661 0 l 565 0 l 557 75 m 326 303 q 216 274 250 303 q 182 185 182 246 q 219 103 182 128 q 331 79 257 79 q 553 175 471 79 l 553 303 l 326 303 z "},"ɑ":{"ha":799,"x_min":69,"x_max":701,"o":"m 69 321 q 148 584 69 496 q 369 672 226 672 q 588 610 497 672 l 588 658 l 701 658 l 701 0 l 604 0 l 596 69 q 495 6 550 26 q 367 -14 440 -14 q 69 321 69 -14 m 400 581 q 236 517 289 581 q 183 321 183 454 q 232 134 183 190 q 396 78 281 78 q 588 157 514 78 l 588 515 q 400 581 514 581 z "},"ā":{"ha":751,"x_min":69,"x_max":661,"o":"m 585 758 l 185 758 l 185 840 l 585 840 l 585 758 m 557 75 q 452 8 514 29 q 301 -14 390 -14 q 135 38 201 -14 q 69 185 69 89 q 132 335 69 281 q 324 390 194 390 l 553 390 l 553 431 q 538 517 553 486 q 482 563 522 549 q 365 576 442 576 q 146 540 250 576 l 146 635 q 381 672 244 672 q 592 615 522 672 q 661 431 661 557 l 661 0 l 565 0 l 557 75 m 326 303 q 216 274 250 303 q 182 185 182 246 q 219 103 182 128 q 331 79 257 79 q 553 175 471 79 l 553 303 l 326 303 z "},"ą":{"ha":751,"x_min":69,"x_max":694,"o":"m 556 -167 q 572 -213 556 -200 q 625 -226 589 -226 q 663 -222 643 -226 q 694 -211 682 -218 l 694 -289 q 600 -306 661 -306 q 501 -276 539 -306 q 463 -183 463 -246 q 491 -81 463 -131 q 565 0 519 -32 l 557 75 q 452 8 514 29 q 301 -14 390 -14 q 135 38 201 -14 q 69 185 69 89 q 132 335 69 281 q 324 390 194 390 l 553 390 l 553 431 q 538 517 553 486 q 482 563 522 549 q 365 576 442 576 q 146 540 250 576 l 146 635 q 381 672 244 672 q 592 615 522 672 q 661 431 661 557 l 661 0 q 556 -167 556 -67 m 326 303 q 216 274 250 303 q 182 185 182 246 q 219 103 182 128 q 331 79 257 79 q 553 175 471 79 l 553 303 l 326 303 z "},"å":{"ha":751,"x_min":69,"x_max":661,"o":"m 242 874 q 285 981 242 938 q 393 1024 328 1024 q 504 981 461 1024 q 547 874 547 938 q 504 767 547 810 q 393 725 461 725 q 285 768 328 725 q 242 874 242 811 m 308 874 q 333 813 308 838 q 393 789 357 789 q 455 813 431 789 q 479 874 479 838 q 455 934 479 910 q 393 958 431 958 q 333 934 357 958 q 308 874 308 910 m 557 75 q 452 8 514 29 q 301 -14 390 -14 q 135 38 201 -14 q 69 185 69 89 q 132 335 69 281 q 324 390 194 390 l 553 390 l 553 431 q 538 517 553 486 q 482 563 522 549 q 365 576 442 576 q 146 540 250 576 l 146 635 q 381 672 244 672 q 592 615 522 672 q 661 431 661 557 l 661 0 l 565 0 l 557 75 m 326 303 q 216 274 250 303 q 182 185 182 246 q 219 103 182 128 q 331 79 257 79 q 553 175 471 79 l 553 303 l 326 303 z "},"ǻ":{"ha":751,"x_min":69,"x_max":661,"o":"m 431 1274 l 533 1274 l 424 1088 l 332 1088 l 431 1274 m 231 869 q 274 976 231 933 q 382 1019 317 1019 q 493 976 450 1019 q 536 869 536 933 q 493 763 536 806 q 382 721 450 721 q 274 764 317 721 q 231 869 231 807 m 297 869 q 322 809 297 833 q 382 785 346 785 q 444 809 419 785 q 468 869 468 833 q 444 930 468 906 q 382 954 419 954 q 322 930 346 954 q 297 869 297 906 m 557 75 q 452 8 514 29 q 301 -14 390 -14 q 135 38 201 -14 q 69 185 69 89 q 132 335 69 281 q 324 390 194 390 l 553 390 l 553 431 q 538 517 553 486 q 482 563 522 549 q 365 576 442 576 q 146 540 250 576 l 146 635 q 381 672 244 672 q 592 615 522 672 q 661 431 661 557 l 661 0 l 565 0 l 557 75 m 326 303 q 216 274 250 303 q 182 185 182 246 q 219 103 182 128 q 331 79 257 79 q 553 175 471 79 l 553 303 l 326 303 z "},"ã":{"ha":751,"x_min":69,"x_max":661,"o":"m 493 753 q 383 781 453 753 q 335 798 360 790 q 293 806 311 806 q 178 757 219 806 l 178 844 q 227 874 194 863 q 293 886 260 886 q 344 879 319 886 q 399 858 368 872 q 452 839 433 844 q 493 833 471 833 q 600 883 564 833 l 600 794 q 557 764 586 775 q 493 753 528 753 m 557 75 q 452 8 514 29 q 301 -14 390 -14 q 135 38 201 -14 q 69 185 69 89 q 132 335 69 281 q 324 390 194 390 l 553 390 l 553 431 q 538 517 553 486 q 482 563 522 549 q 365 576 442 576 q 146 540 250 576 l 146 635 q 381 672 244 672 q 592 615 522 672 q 661 431 661 557 l 661 0 l 565 0 l 557 75 m 326 303 q 216 274 250 303 q 182 185 182 246 q 219 103 182 128 q 331 79 257 79 q 553 175 471 79 l 553 303 l 326 303 z "},"æ":{"ha":1224,"x_min":69,"x_max":1154,"o":"m 615 111 q 494 21 567 56 q 301 -14 422 -14 q 135 38 201 -14 q 69 185 69 89 q 132 335 69 281 q 324 390 194 390 l 553 390 l 553 431 q 538 517 553 486 q 482 563 522 549 q 365 576 442 576 q 146 540 250 576 l 146 635 q 381 672 244 672 q 624 571 558 672 q 868 672 708 672 q 1081 597 1008 672 q 1154 400 1154 522 l 1154 276 l 667 276 q 699 158 672 200 q 781 97 726 115 q 926 78 835 78 q 1113 113 1028 78 l 1113 24 q 904 -14 1028 -14 q 728 17 797 -14 q 615 111 658 47 m 871 581 q 712 527 757 581 q 667 358 667 474 l 1053 358 l 1053 413 q 1009 538 1053 494 q 871 581 965 581 m 326 303 q 216 274 250 303 q 182 185 182 246 q 219 103 182 128 q 331 79 257 79 q 460 103 407 79 q 553 175 513 128 l 553 303 l 326 303 z "},"ǽ":{"ha":1224,"x_min":69,"x_max":1154,"o":"m 657 958 l 760 958 l 650 725 l 558 725 l 657 958 m 615 111 q 494 21 567 56 q 301 -14 422 -14 q 135 38 201 -14 q 69 185 69 89 q 132 335 69 281 q 324 390 194 390 l 553 390 l 553 431 q 538 517 553 486 q 482 563 522 549 q 365 576 442 576 q 146 540 250 576 l 146 635 q 381 672 244 672 q 624 571 558 672 q 868 672 708 672 q 1081 597 1008 672 q 1154 400 1154 522 l 1154 276 l 667 276 q 699 158 672 200 q 781 97 726 115 q 926 78 835 78 q 1113 113 1028 78 l 1113 24 q 904 -14 1028 -14 q 728 17 797 -14 q 615 111 658 47 m 871 581 q 712 527 757 581 q 667 358 667 474 l 1053 358 l 1053 413 q 1009 538 1053 494 q 871 581 965 581 m 326 303 q 216 274 250 303 q 182 185 182 246 q 219 103 182 128 q 331 79 257 79 q 460 103 407 79 q 553 175 513 128 l 553 303 l 326 303 z "},"b":{"ha":799,"x_min":97,"x_max":729,"o":"m 729 335 q 651 73 729 160 q 432 -14 574 -14 q 303 6 358 -14 q 203 69 249 26 l 194 0 l 97 0 l 97 936 l 211 936 l 211 610 q 431 672 301 672 q 729 335 729 672 m 400 581 q 211 515 285 581 l 211 157 q 403 78 285 78 q 566 140 517 78 q 615 335 615 203 q 564 524 615 467 q 400 581 513 581 z "},"c":{"ha":681,"x_min":69,"x_max":611,"o":"m 611 22 q 408 -14 524 -14 q 154 74 239 -14 q 69 329 69 163 q 162 585 69 499 q 418 672 254 672 q 524 663 481 672 q 610 635 567 654 l 610 544 q 439 581 535 581 q 248 521 313 581 q 183 329 183 461 q 242 138 183 197 q 435 78 300 78 q 611 114 531 78 l 611 22 z "},"ć":{"ha":681,"x_min":69,"x_max":611,"o":"m 418 958 l 521 958 l 411 725 l 319 725 l 418 958 m 611 22 q 408 -14 524 -14 q 154 74 239 -14 q 69 329 69 163 q 162 585 69 499 q 418 672 254 672 q 524 663 481 672 q 610 635 567 654 l 610 544 q 439 581 535 581 q 248 521 313 581 q 183 329 183 461 q 242 138 183 197 q 435 78 300 78 q 611 114 531 78 l 611 22 z "},"č":{"ha":681,"x_min":69,"x_max":611,"o":"m 329 725 l 169 931 l 268 931 l 375 789 l 482 931 l 581 931 l 421 725 l 329 725 m 611 22 q 408 -14 524 -14 q 154 74 239 -14 q 69 329 69 163 q 162 585 69 499 q 418 672 254 672 q 524 663 481 672 q 610 635 567 654 l 610 544 q 439 581 535 581 q 248 521 313 581 q 183 329 183 461 q 242 138 183 197 q 435 78 300 78 q 611 114 531 78 l 611 22 z "},"ç":{"ha":681,"x_min":69,"x_max":611,"o":"m 611 22 q 433 -14 532 -10 l 415 -67 q 530 -99 490 -67 q 569 -192 569 -132 q 371 -333 569 -333 q 319 -330 349 -333 q 274 -322 290 -326 l 274 -253 q 361 -264 314 -264 q 457 -248 428 -264 q 486 -190 486 -232 q 459 -139 486 -151 q 368 -126 432 -126 l 317 -126 l 353 -11 q 140 90 211 3 q 69 329 69 176 q 162 585 69 499 q 418 672 254 672 q 524 663 481 672 q 610 635 567 654 l 610 544 q 439 581 535 581 q 248 521 313 581 q 183 329 183 461 q 242 138 183 197 q 435 78 300 78 q 611 114 531 78 l 611 22 z "},"ĉ":{"ha":681,"x_min":69,"x_max":611,"o":"m 482 725 l 375 867 l 268 725 l 169 725 l 329 931 l 421 931 l 581 725 l 482 725 m 611 22 q 408 -14 524 -14 q 154 74 239 -14 q 69 329 69 163 q 162 585 69 499 q 418 672 254 672 q 524 663 481 672 q 610 635 567 654 l 610 544 q 439 581 535 581 q 248 521 313 581 q 183 329 183 461 q 242 138 183 197 q 435 78 300 78 q 611 114 531 78 l 611 22 z "},"ċ":{"ha":681,"x_min":69,"x_max":611,"o":"m 336 863 l 447 863 l 447 756 l 336 756 l 336 863 m 611 22 q 408 -14 524 -14 q 154 74 239 -14 q 69 329 69 163 q 162 585 69 499 q 418 672 254 672 q 524 663 481 672 q 610 635 567 654 l 610 544 q 439 581 535 581 q 248 521 313 581 q 183 329 183 461 q 242 138 183 197 q 435 78 300 78 q 611 114 531 78 l 611 22 z "},"d":{"ha":799,"x_min":69,"x_max":701,"o":"m 69 319 q 150 583 69 493 q 374 672 231 672 q 489 657 438 672 q 588 610 540 642 l 588 936 l 701 936 l 701 0 l 604 0 l 596 69 q 495 6 550 26 q 367 -14 440 -14 q 146 66 222 -14 q 69 319 69 146 m 399 581 q 235 517 288 581 q 183 319 183 454 q 232 134 183 190 q 396 78 281 78 q 588 157 514 78 l 588 515 q 399 581 514 581 z "},"ð":{"ha":796,"x_min":69,"x_max":761,"o":"m 69 272 q 149 486 69 411 q 376 561 228 561 q 497 541 433 561 q 613 483 561 521 l 613 547 q 579 729 613 664 l 393 649 l 393 721 l 536 783 q 389 824 483 824 q 192 792 281 824 l 192 878 q 403 908 286 908 q 632 825 553 908 l 761 882 l 761 808 l 672 769 q 721 542 721 685 l 721 326 q 639 69 721 151 q 394 -14 557 -14 q 151 62 233 -14 q 69 272 69 138 m 172 272 q 228 124 172 176 q 394 72 285 72 q 558 126 504 72 q 613 290 613 179 l 613 401 q 508 457 565 436 q 396 478 451 478 q 225 425 278 478 q 172 272 172 372 z "},"ď":{"ha":971,"x_min":69,"x_max":943,"o":"m 843 975 l 943 975 l 831 735 l 742 735 l 843 975 m 69 319 q 150 583 69 493 q 374 672 231 672 q 489 657 438 672 q 588 610 540 642 l 588 936 l 701 936 l 701 0 l 604 0 l 596 69 q 495 6 550 26 q 367 -14 440 -14 q 146 66 222 -14 q 69 319 69 146 m 399 581 q 235 517 288 581 q 183 319 183 454 q 232 134 183 190 q 396 78 281 78 q 588 157 514 78 l 588 515 q 399 581 514 581 z "},"đ":{"ha":796,"x_min":69,"x_max":768,"o":"m 768 756 l 701 756 l 701 0 l 604 0 l 596 69 q 495 6 550 26 q 367 -14 440 -14 q 146 66 222 -14 q 69 319 69 146 q 150 583 69 493 q 374 672 231 672 q 489 657 438 672 q 588 610 540 642 l 588 756 l 331 756 l 331 846 l 588 846 l 588 936 l 701 936 l 701 846 l 768 846 l 768 756 m 588 515 q 399 581 514 581 q 235 517 288 581 q 183 319 183 454 q 232 134 183 190 q 396 78 281 78 q 588 157 514 78 l 588 515 z "},"ḍ":{"ha":799,"x_min":69,"x_max":701,"o":"m 69 319 q 150 583 69 493 q 374 672 231 672 q 489 657 438 672 q 588 610 540 642 l 588 936 l 701 936 l 701 0 l 604 0 l 596 69 q 495 6 550 26 q 367 -14 440 -14 q 146 66 222 -14 q 69 319 69 146 m 399 581 q 235 517 288 581 q 183 319 183 454 q 232 134 183 190 q 396 78 281 78 q 588 157 514 78 l 588 515 q 399 581 514 581 m 361 -121 l 472 -121 l 472 -228 l 361 -228 l 361 -121 z "},"ḏ":{"ha":799,"x_min":69,"x_max":701,"o":"m 69 319 q 150 583 69 493 q 374 672 231 672 q 489 657 438 672 q 588 610 540 642 l 588 936 l 701 936 l 701 0 l 604 0 l 596 69 q 495 6 550 26 q 367 -14 440 -14 q 146 66 222 -14 q 69 319 69 146 m 399 581 q 235 517 288 581 q 183 319 183 454 q 232 134 183 190 q 396 78 281 78 q 588 157 514 78 l 588 515 q 399 581 514 581 m 611 -200 l 211 -200 l 211 -118 l 611 -118 l 611 -200 z "},"e":{"ha":740,"x_min":69,"x_max":671,"o":"m 183 276 q 216 158 189 200 q 297 97 243 115 q 443 78 351 78 q 629 113 544 78 l 629 24 q 421 -14 544 -14 q 157 71 244 -14 q 69 332 69 156 q 147 583 69 494 q 385 672 225 672 q 598 597 525 672 q 671 400 671 522 l 671 276 l 183 276 m 388 581 q 228 527 274 581 q 183 358 183 474 l 569 358 l 569 413 q 526 538 569 494 q 388 581 482 581 z "},"é":{"ha":740,"x_min":69,"x_max":671,"o":"m 414 958 l 517 958 l 407 725 l 315 725 l 414 958 m 183 276 q 216 158 189 200 q 297 97 243 115 q 443 78 351 78 q 629 113 544 78 l 629 24 q 421 -14 544 -14 q 157 71 244 -14 q 69 332 69 156 q 147 583 69 494 q 385 672 225 672 q 598 597 525 672 q 671 400 671 522 l 671 276 l 183 276 m 388 581 q 228 527 274 581 q 183 358 183 474 l 569 358 l 569 413 q 526 538 569 494 q 388 581 482 581 z "},"ĕ":{"ha":740,"x_min":69,"x_max":671,"o":"m 279 900 q 304 823 279 849 q 374 797 329 797 q 471 900 471 797 l 551 900 q 506 772 551 819 q 374 725 460 725 q 244 772 289 725 q 199 900 199 819 l 279 900 m 183 276 q 216 158 189 200 q 297 97 243 115 q 443 78 351 78 q 629 113 544 78 l 629 24 q 421 -14 544 -14 q 157 71 244 -14 q 69 332 69 156 q 147 583 69 494 q 385 672 225 672 q 598 597 525 672 q 671 400 671 522 l 671 276 l 183 276 m 388 581 q 228 527 274 581 q 183 358 183 474 l 569 358 l 569 413 q 526 538 569 494 q 388 581 482 581 z "},"ě":{"ha":740,"x_min":69,"x_max":671,"o":"m 336 725 l 176 931 l 275 931 l 382 789 l 489 931 l 588 931 l 428 725 l 336 725 m 183 276 q 216 158 189 200 q 297 97 243 115 q 443 78 351 78 q 629 113 544 78 l 629 24 q 421 -14 544 -14 q 157 71 244 -14 q 69 332 69 156 q 147 583 69 494 q 385 672 225 672 q 598 597 525 672 q 671 400 671 522 l 671 276 l 183 276 m 388 581 q 228 527 274 581 q 183 358 183 474 l 569 358 l 569 413 q 526 538 569 494 q 388 581 482 581 z "},"ê":{"ha":740,"x_min":69,"x_max":671,"o":"m 476 725 l 369 867 l 263 725 l 164 725 l 324 931 l 415 931 l 575 725 l 476 725 m 183 276 q 216 158 189 200 q 297 97 243 115 q 443 78 351 78 q 629 113 544 78 l 629 24 q 421 -14 544 -14 q 157 71 244 -14 q 69 332 69 156 q 147 583 69 494 q 385 672 225 672 q 598 597 525 672 q 671 400 671 522 l 671 276 l 183 276 m 388 581 q 228 527 274 581 q 183 358 183 474 l 569 358 l 569 413 q 526 538 569 494 q 388 581 482 581 z "},"ế":{"ha":740,"x_min":69,"x_max":671,"o":"m 571 1049 l 661 1049 l 567 875 l 485 875 l 571 1049 m 478 724 l 374 839 l 271 724 l 174 724 l 328 888 l 419 888 l 574 724 l 478 724 m 183 276 q 216 158 189 200 q 297 97 243 115 q 443 78 351 78 q 629 113 544 78 l 629 24 q 421 -14 544 -14 q 157 71 244 -14 q 69 332 69 156 q 147 583 69 494 q 385 672 225 672 q 598 597 525 672 q 671 400 671 522 l 671 276 l 183 276 m 388 581 q 228 527 274 581 q 183 358 183 474 l 569 358 l 569 413 q 526 538 569 494 q 388 581 482 581 z "},"ệ":{"ha":740,"x_min":69,"x_max":671,"o":"m 482 725 l 375 867 l 268 725 l 169 725 l 329 931 l 421 931 l 581 725 l 482 725 m 183 276 q 216 158 189 200 q 297 97 243 115 q 443 78 351 78 q 629 113 544 78 l 629 24 q 421 -14 544 -14 q 157 71 244 -14 q 69 332 69 156 q 147 583 69 494 q 385 672 225 672 q 598 597 525 672 q 671 400 671 522 l 671 276 l 183 276 m 388 581 q 228 527 274 581 q 183 358 183 474 l 569 358 l 569 413 q 526 538 569 494 q 388 581 482 581 m 319 -121 l 431 -121 l 431 -228 l 319 -228 l 319 -121 z "},"ề":{"ha":740,"x_min":69,"x_max":671,"o":"m 106 1069 l 196 1069 l 282 896 l 200 896 l 106 1069 m 439 908 l 593 744 l 496 744 l 393 860 l 289 744 l 193 744 l 347 908 l 439 908 m 183 276 q 216 158 189 200 q 297 97 243 115 q 443 78 351 78 q 629 113 544 78 l 629 24 q 421 -14 544 -14 q 157 71 244 -14 q 69 332 69 156 q 147 583 69 494 q 385 672 225 672 q 598 597 525 672 q 671 400 671 522 l 671 276 l 183 276 m 388 581 q 228 527 274 581 q 183 358 183 474 l 569 358 l 569 413 q 526 538 569 494 q 388 581 482 581 z "},"ể":{"ha":740,"x_min":69,"x_max":686,"o":"m 686 997 q 660 926 686 951 q 576 894 633 901 l 576 846 l 492 846 l 492 933 q 581 949 558 936 q 603 992 603 963 q 586 1030 603 1018 q 533 1042 569 1042 q 454 1025 492 1042 l 454 1085 q 553 1101 497 1101 q 651 1074 615 1101 q 686 997 686 1046 m 415 888 l 569 724 l 474 724 l 369 839 l 267 724 l 169 724 l 324 888 l 415 888 m 183 276 q 216 158 189 200 q 297 97 243 115 q 443 78 351 78 q 629 113 544 78 l 629 24 q 421 -14 544 -14 q 157 71 244 -14 q 69 332 69 156 q 147 583 69 494 q 385 672 225 672 q 598 597 525 672 q 671 400 671 522 l 671 276 l 183 276 m 388 581 q 228 527 274 581 q 183 358 183 474 l 569 358 l 569 413 q 526 538 569 494 q 388 581 482 581 z "},"ễ":{"ha":740,"x_min":69,"x_max":671,"o":"m 475 892 q 432 898 453 892 q 374 918 411 904 q 331 933 353 926 q 290 940 308 940 q 185 896 222 940 l 185 974 q 231 1001 200 990 q 290 1011 261 1011 q 337 1005 314 1011 q 389 986 360 999 q 475 963 442 963 q 574 1008 540 963 l 574 929 q 534 902 561 913 q 475 892 507 892 m 422 889 l 576 725 l 481 725 l 376 840 l 274 725 l 176 725 l 331 889 l 422 889 m 183 276 q 216 158 189 200 q 297 97 243 115 q 443 78 351 78 q 629 113 544 78 l 629 24 q 421 -14 544 -14 q 157 71 244 -14 q 69 332 69 156 q 147 583 69 494 q 385 672 225 672 q 598 597 525 672 q 671 400 671 522 l 671 276 l 183 276 m 388 581 q 228 527 274 581 q 183 358 183 474 l 569 358 l 569 413 q 526 538 569 494 q 388 581 482 581 z "},"ë":{"ha":740,"x_min":69,"x_max":671,"o":"m 190 861 l 299 861 l 299 757 l 190 757 l 190 861 m 435 861 l 543 861 l 543 757 l 435 757 l 435 861 m 183 276 q 216 158 189 200 q 297 97 243 115 q 443 78 351 78 q 629 113 544 78 l 629 24 q 421 -14 544 -14 q 157 71 244 -14 q 69 332 69 156 q 147 583 69 494 q 385 672 225 672 q 598 597 525 672 q 671 400 671 522 l 671 276 l 183 276 m 388 581 q 228 527 274 581 q 183 358 183 474 l 569 358 l 569 413 q 526 538 569 494 q 388 581 482 581 z "},"ė":{"ha":740,"x_min":69,"x_max":671,"o":"m 317 863 l 428 863 l 428 756 l 317 756 l 317 863 m 183 276 q 216 158 189 200 q 297 97 243 115 q 443 78 351 78 q 629 113 544 78 l 629 24 q 421 -14 544 -14 q 157 71 244 -14 q 69 332 69 156 q 147 583 69 494 q 385 672 225 672 q 598 597 525 672 q 671 400 671 522 l 671 276 l 183 276 m 388 581 q 228 527 274 581 q 183 358 183 474 l 569 358 l 569 413 q 526 538 569 494 q 388 581 482 581 z "},"ẹ":{"ha":740,"x_min":69,"x_max":671,"o":"m 183 276 q 216 158 189 200 q 297 97 243 115 q 443 78 351 78 q 629 113 544 78 l 629 24 q 421 -14 544 -14 q 157 71 244 -14 q 69 332 69 156 q 147 583 69 494 q 385 672 225 672 q 598 597 525 672 q 671 400 671 522 l 671 276 l 183 276 m 388 581 q 228 527 274 581 q 183 358 183 474 l 569 358 l 569 413 q 526 538 569 494 q 388 581 482 581 m 315 -121 l 426 -121 l 426 -228 l 315 -228 l 315 -121 z "},"è":{"ha":740,"x_min":69,"x_max":671,"o":"m 215 958 l 318 958 l 417 725 l 325 725 l 215 958 m 183 276 q 216 158 189 200 q 297 97 243 115 q 443 78 351 78 q 629 113 544 78 l 629 24 q 421 -14 544 -14 q 157 71 244 -14 q 69 332 69 156 q 147 583 69 494 q 385 672 225 672 q 598 597 525 672 q 671 400 671 522 l 671 276 l 183 276 m 388 581 q 228 527 274 581 q 183 358 183 474 l 569 358 l 569 413 q 526 538 569 494 q 388 581 482 581 z "},"ẻ":{"ha":740,"x_min":69,"x_max":671,"o":"m 543 921 q 515 832 543 863 q 419 792 488 801 l 419 725 l 328 725 l 328 840 q 410 851 382 843 q 447 872 438 858 q 457 913 457 886 q 431 960 457 946 q 349 975 406 975 q 301 970 326 975 q 257 958 275 965 l 257 1029 q 311 1042 278 1038 q 375 1047 344 1047 q 500 1014 457 1047 q 543 921 543 981 m 183 276 q 216 158 189 200 q 297 97 243 115 q 443 78 351 78 q 629 113 544 78 l 629 24 q 421 -14 544 -14 q 157 71 244 -14 q 69 332 69 156 q 147 583 69 494 q 385 672 225 672 q 598 597 525 672 q 671 400 671 522 l 671 276 l 183 276 m 388 581 q 228 527 274 581 q 183 358 183 474 l 569 358 l 569 413 q 526 538 569 494 q 388 581 482 581 z "},"ē":{"ha":740,"x_min":69,"x_max":671,"o":"m 589 769 l 189 769 l 189 851 l 589 851 l 589 769 m 183 276 q 216 158 189 200 q 297 97 243 115 q 443 78 351 78 q 629 113 544 78 l 629 24 q 421 -14 544 -14 q 157 71 244 -14 q 69 332 69 156 q 147 583 69 494 q 385 672 225 672 q 598 597 525 672 q 671 400 671 522 l 671 276 l 183 276 m 388 581 q 228 527 274 581 q 183 358 183 474 l 569 358 l 569 413 q 526 538 569 494 q 388 581 482 581 z "},"ę":{"ha":740,"x_min":69,"x_max":671,"o":"m 671 276 l 183 276 q 216 158 189 200 q 297 97 243 115 q 443 78 351 78 q 629 113 544 78 l 629 24 q 550 -1 603 11 q 451 -167 451 -76 q 468 -213 451 -200 q 521 -226 485 -226 q 558 -222 539 -226 q 590 -211 578 -218 l 590 -289 q 496 -306 557 -306 q 397 -276 435 -306 q 358 -183 358 -246 q 382 -90 358 -135 q 444 -14 406 -46 l 421 -14 q 157 71 244 -14 q 69 332 69 156 q 147 583 69 494 q 385 672 225 672 q 598 597 525 672 q 671 400 671 522 l 671 276 m 569 413 q 526 538 569 494 q 388 581 482 581 q 228 527 274 581 q 183 358 183 474 l 569 358 l 569 413 z "},"ẽ":{"ha":740,"x_min":69,"x_max":671,"o":"m 476 753 q 367 781 436 753 q 319 798 343 790 q 276 806 294 806 q 161 757 203 806 l 161 844 q 210 874 178 863 q 276 886 243 886 q 327 879 303 886 q 382 858 351 872 q 435 839 417 844 q 476 833 454 833 q 583 883 547 833 l 583 794 q 540 764 569 775 q 476 753 511 753 m 183 276 q 216 158 189 200 q 297 97 243 115 q 443 78 351 78 q 629 113 544 78 l 629 24 q 421 -14 544 -14 q 157 71 244 -14 q 69 332 69 156 q 147 583 69 494 q 385 672 225 672 q 598 597 525 672 q 671 400 671 522 l 671 276 l 183 276 m 388 581 q 228 527 274 581 q 183 358 183 474 l 569 358 l 569 413 q 526 538 569 494 q 388 581 482 581 z "},"f":{"ha":481,"x_min":42,"x_max":467,"o":"m 346 958 q 467 938 411 958 l 467 851 q 375 867 424 867 q 280 842 306 867 q 254 754 254 817 l 254 658 l 432 658 l 426 568 l 254 568 l 254 0 l 140 0 l 140 568 l 42 568 l 42 658 l 140 658 l 140 754 q 193 904 140 850 q 346 958 246 958 z "},"g":{"ha":760,"x_min":69,"x_max":711,"o":"m 549 -76 q 523 -25 549 -40 q 432 -10 497 -10 l 257 -10 q 121 22 167 -10 q 75 113 75 53 q 101 191 75 156 q 178 242 128 226 q 69 436 69 294 q 140 615 69 558 q 360 672 211 672 q 474 658 411 672 l 711 658 l 707 581 l 588 581 q 647 436 647 529 q 583 265 647 325 q 388 206 518 206 q 307 213 358 206 q 225 187 261 210 q 189 129 189 164 q 208 94 189 104 q 276 83 228 83 l 458 83 q 610 43 557 83 q 663 -72 663 3 q 585 -205 663 -165 q 353 -244 508 -244 q 89 -210 188 -244 l 89 -115 q 212 -143 143 -133 q 347 -153 281 -153 q 465 -147 424 -153 q 528 -126 507 -142 q 549 -76 549 -110 m 360 292 q 495 324 457 292 q 533 436 533 356 q 494 553 533 517 q 360 589 454 589 q 225 553 267 589 q 183 436 183 518 q 224 325 183 358 q 360 292 264 292 z "},"ğ":{"ha":760,"x_min":69,"x_max":711,"o":"m 274 900 q 299 823 274 849 q 368 797 324 797 q 465 900 465 797 l 546 900 q 500 772 546 819 q 368 725 454 725 q 238 772 283 725 q 193 900 193 819 l 274 900 m 549 -76 q 523 -25 549 -40 q 432 -10 497 -10 l 257 -10 q 121 22 167 -10 q 75 113 75 53 q 101 191 75 156 q 178 242 128 226 q 69 436 69 294 q 140 615 69 558 q 360 672 211 672 q 474 658 411 672 l 711 658 l 707 581 l 588 581 q 647 436 647 529 q 583 265 647 325 q 388 206 518 206 q 307 213 358 206 q 225 187 261 210 q 189 129 189 164 q 208 94 189 104 q 276 83 228 83 l 458 83 q 610 43 557 83 q 663 -72 663 3 q 585 -205 663 -165 q 353 -244 508 -244 q 89 -210 188 -244 l 89 -115 q 212 -143 143 -133 q 347 -153 281 -153 q 465 -147 424 -153 q 528 -126 507 -142 q 549 -76 549 -110 m 360 292 q 495 324 457 292 q 533 436 533 356 q 494 553 533 517 q 360 589 454 589 q 225 553 267 589 q 183 436 183 518 q 224 325 183 358 q 360 292 264 292 z "},"ǧ":{"ha":760,"x_min":69,"x_max":711,"o":"m 344 725 l 185 931 l 283 931 l 390 789 l 497 931 l 596 931 l 436 725 l 344 725 m 549 -76 q 523 -25 549 -40 q 432 -10 497 -10 l 257 -10 q 121 22 167 -10 q 75 113 75 53 q 101 191 75 156 q 178 242 128 226 q 69 436 69 294 q 140 615 69 558 q 360 672 211 672 q 474 658 411 672 l 711 658 l 707 581 l 588 581 q 647 436 647 529 q 583 265 647 325 q 388 206 518 206 q 307 213 358 206 q 225 187 261 210 q 189 129 189 164 q 208 94 189 104 q 276 83 228 83 l 458 83 q 610 43 557 83 q 663 -72 663 3 q 585 -205 663 -165 q 353 -244 508 -244 q 89 -210 188 -244 l 89 -115 q 212 -143 143 -133 q 347 -153 281 -153 q 465 -147 424 -153 q 528 -126 507 -142 q 549 -76 549 -110 m 360 292 q 495 324 457 292 q 533 436 533 356 q 494 553 533 517 q 360 589 454 589 q 225 553 267 589 q 183 436 183 518 q 224 325 183 358 q 360 292 264 292 z "},"ĝ":{"ha":760,"x_min":69,"x_max":711,"o":"m 474 725 l 367 867 l 260 725 l 161 725 l 321 931 l 413 931 l 572 725 l 474 725 m 549 -76 q 523 -25 549 -40 q 432 -10 497 -10 l 257 -10 q 121 22 167 -10 q 75 113 75 53 q 101 191 75 156 q 178 242 128 226 q 69 436 69 294 q 140 615 69 558 q 360 672 211 672 q 474 658 411 672 l 711 658 l 707 581 l 588 581 q 647 436 647 529 q 583 265 647 325 q 388 206 518 206 q 307 213 358 206 q 225 187 261 210 q 189 129 189 164 q 208 94 189 104 q 276 83 228 83 l 458 83 q 610 43 557 83 q 663 -72 663 3 q 585 -205 663 -165 q 353 -244 508 -244 q 89 -210 188 -244 l 89 -115 q 212 -143 143 -133 q 347 -153 281 -153 q 465 -147 424 -153 q 528 -126 507 -142 q 549 -76 549 -110 m 360 292 q 495 324 457 292 q 533 436 533 356 q 494 553 533 517 q 360 589 454 589 q 225 553 267 589 q 183 436 183 518 q 224 325 183 358 q 360 292 264 292 z "},"ģ":{"ha":760,"x_min":69,"x_max":711,"o":"m 404 725 l 301 725 l 360 971 l 443 971 l 404 725 m 549 -76 q 523 -25 549 -40 q 432 -10 497 -10 l 257 -10 q 121 22 167 -10 q 75 113 75 53 q 101 191 75 156 q 178 242 128 226 q 69 436 69 294 q 140 615 69 558 q 360 672 211 672 q 474 658 411 672 l 711 658 l 707 581 l 588 581 q 647 436 647 529 q 583 265 647 325 q 388 206 518 206 q 307 213 358 206 q 225 187 261 210 q 189 129 189 164 q 208 94 189 104 q 276 83 228 83 l 458 83 q 610 43 557 83 q 663 -72 663 3 q 585 -205 663 -165 q 353 -244 508 -244 q 89 -210 188 -244 l 89 -115 q 212 -143 143 -133 q 347 -153 281 -153 q 465 -147 424 -153 q 528 -126 507 -142 q 549 -76 549 -110 m 360 292 q 495 324 457 292 q 533 436 533 356 q 494 553 533 517 q 360 589 454 589 q 225 553 267 589 q 183 436 183 518 q 224 325 183 358 q 360 292 264 292 z "},"ġ":{"ha":760,"x_min":69,"x_max":711,"o":"m 306 856 l 417 856 l 417 749 l 306 749 l 306 856 m 549 -76 q 523 -25 549 -40 q 432 -10 497 -10 l 257 -10 q 121 22 167 -10 q 75 113 75 53 q 101 191 75 156 q 178 242 128 226 q 69 436 69 294 q 140 615 69 558 q 360 672 211 672 q 474 658 411 672 l 711 658 l 707 581 l 588 581 q 647 436 647 529 q 583 265 647 325 q 388 206 518 206 q 307 213 358 206 q 225 187 261 210 q 189 129 189 164 q 208 94 189 104 q 276 83 228 83 l 458 83 q 610 43 557 83 q 663 -72 663 3 q 585 -205 663 -165 q 353 -244 508 -244 q 89 -210 188 -244 l 89 -115 q 212 -143 143 -133 q 347 -153 281 -153 q 465 -147 424 -153 q 528 -126 507 -142 q 549 -76 549 -110 m 360 292 q 495 324 457 292 q 533 436 533 356 q 494 553 533 517 q 360 589 454 589 q 225 553 267 589 q 183 436 183 518 q 224 325 183 358 q 360 292 264 292 z "},"ḡ":{"ha":760,"x_min":69,"x_max":711,"o":"m 583 765 l 183 765 l 183 847 l 583 847 l 583 765 m 549 -76 q 523 -25 549 -40 q 432 -10 497 -10 l 257 -10 q 121 22 167 -10 q 75 113 75 53 q 101 191 75 156 q 178 242 128 226 q 69 436 69 294 q 140 615 69 558 q 360 672 211 672 q 474 658 411 672 l 711 658 l 707 581 l 588 581 q 647 436 647 529 q 583 265 647 325 q 388 206 518 206 q 307 213 358 206 q 225 187 261 210 q 189 129 189 164 q 208 94 189 104 q 276 83 228 83 l 458 83 q 610 43 557 83 q 663 -72 663 3 q 585 -205 663 -165 q 353 -244 508 -244 q 89 -210 188 -244 l 89 -115 q 212 -143 143 -133 q 347 -153 281 -153 q 465 -147 424 -153 q 528 -126 507 -142 q 549 -76 549 -110 m 360 292 q 495 324 457 292 q 533 436 533 356 q 494 553 533 517 q 360 589 454 589 q 225 553 267 589 q 183 436 183 518 q 224 325 183 358 q 360 292 264 292 z "},"h":{"ha":792,"x_min":97,"x_max":701,"o":"m 588 0 l 588 426 q 550 546 588 511 q 424 581 513 581 q 309 556 368 581 q 211 493 250 532 l 211 0 l 97 0 l 97 936 l 211 936 l 211 588 q 463 672 315 672 q 642 613 583 672 q 701 431 701 554 l 701 0 l 588 0 z "},"ħ":{"ha":815,"x_min":42,"x_max":725,"o":"m 486 672 q 666 613 607 672 q 725 431 725 554 l 725 0 l 611 0 l 611 426 q 574 546 611 511 q 447 581 536 581 q 333 556 392 581 q 235 493 274 532 l 235 0 l 121 0 l 121 756 l 42 756 l 42 846 l 121 846 l 121 936 l 235 936 l 235 846 l 465 846 l 465 756 l 235 756 l 235 588 q 486 672 339 672 z "},"ḫ":{"ha":792,"x_min":97,"x_max":701,"o":"m 588 0 l 588 426 q 550 546 588 511 q 424 581 513 581 q 309 556 368 581 q 211 493 250 532 l 211 0 l 97 0 l 97 936 l 211 936 l 211 588 q 463 672 315 672 q 642 613 583 672 q 701 431 701 554 l 701 0 l 588 0 m 311 -97 q 336 -174 311 -149 q 406 -200 361 -200 q 503 -97 503 -200 l 583 -97 q 538 -225 583 -178 q 406 -272 492 -272 q 276 -225 321 -272 q 231 -97 231 -178 l 311 -97 z "},"ĥ":{"ha":792,"x_min":97,"x_max":701,"o":"m 418 974 l 311 1115 l 204 974 l 106 974 l 265 1179 l 357 1179 l 517 974 l 418 974 m 588 0 l 588 426 q 550 546 588 511 q 424 581 513 581 q 309 556 368 581 q 211 493 250 532 l 211 0 l 97 0 l 97 936 l 211 936 l 211 588 q 463 672 315 672 q 642 613 583 672 q 701 431 701 554 l 701 0 l 588 0 z "},"ḥ":{"ha":792,"x_min":97,"x_max":701,"o":"m 588 0 l 588 426 q 550 546 588 511 q 424 581 513 581 q 309 556 368 581 q 211 493 250 532 l 211 0 l 97 0 l 97 936 l 211 936 l 211 588 q 463 672 315 672 q 642 613 583 672 q 701 431 701 554 l 701 0 l 588 0 m 347 -121 l 458 -121 l 458 -228 l 347 -228 l 347 -121 z "},"i":{"ha":411,"x_min":97,"x_max":314,"o":"m 188 813 l 188 917 l 314 917 l 314 813 l 188 813 m 313 0 l 199 0 l 199 568 l 97 568 l 108 658 l 313 658 l 313 0 z "},"ı":{"ha":410,"x_min":97,"x_max":313,"o":"m 313 0 l 199 0 l 199 568 l 97 568 l 108 658 l 313 658 l 313 0 z "},"í":{"ha":410,"x_min":97,"x_max":396,"o":"m 293 958 l 396 958 l 286 725 l 194 725 l 293 958 m 313 0 l 199 0 l 199 568 l 97 568 l 108 658 l 313 658 l 313 0 z "},"ĭ":{"ha":410,"x_min":44,"x_max":397,"o":"m 125 899 q 150 822 125 847 q 219 796 175 796 q 317 899 317 796 l 397 899 q 351 771 397 818 q 219 724 306 724 q 90 771 135 724 q 44 899 44 818 l 125 899 m 313 0 l 199 0 l 199 568 l 97 568 l 108 658 l 313 658 l 313 0 z "},"ǐ":{"ha":410,"x_min":21,"x_max":432,"o":"m 181 725 l 21 931 l 119 931 l 226 789 l 333 931 l 432 931 l 272 725 l 181 725 m 313 0 l 199 0 l 199 568 l 97 568 l 108 658 l 313 658 l 313 0 z "},"î":{"ha":410,"x_min":25,"x_max":436,"o":"m 338 725 l 231 867 l 124 725 l 25 725 l 185 931 l 276 931 l 436 725 l 338 725 m 313 0 l 199 0 l 199 568 l 97 568 l 108 658 l 313 658 l 313 0 z "},"ï":{"ha":410,"x_min":38,"x_max":390,"o":"m 38 861 l 146 861 l 146 757 l 38 757 l 38 861 m 282 861 l 390 861 l 390 757 l 282 757 l 282 861 m 313 0 l 199 0 l 199 568 l 97 568 l 108 658 l 313 658 l 313 0 z "},"ị":{"ha":411,"x_min":97,"x_max":314,"o":"m 188 813 l 188 917 l 314 917 l 314 813 l 188 813 m 313 0 l 199 0 l 199 568 l 97 568 l 108 658 l 313 658 l 313 0 m 200 -121 l 311 -121 l 311 -228 l 200 -228 l 200 -121 z "},"ì":{"ha":410,"x_min":97,"x_max":313,"o":"m 106 958 l 208 958 l 307 725 l 215 725 l 106 958 m 313 0 l 199 0 l 199 568 l 97 568 l 108 658 l 313 658 l 313 0 z "},"ỉ":{"ha":410,"x_min":92,"x_max":378,"o":"m 378 921 q 350 832 378 863 q 254 792 322 801 l 254 725 l 163 725 l 163 840 q 244 851 217 843 q 282 872 272 858 q 292 913 292 886 q 266 960 292 946 q 183 975 240 975 q 135 970 161 975 q 92 958 110 965 l 92 1029 q 146 1042 113 1038 q 210 1047 179 1047 q 335 1014 292 1047 q 378 921 378 981 m 313 0 l 199 0 l 199 568 l 97 568 l 108 658 l 313 658 l 313 0 z "},"ĳ":{"ha":703,"x_min":97,"x_max":606,"o":"m 188 813 l 188 917 l 314 917 l 314 813 l 188 813 m 479 813 l 479 917 l 606 917 l 606 813 l 479 813 m 313 0 l 199 0 l 199 568 l 97 568 l 108 658 l 313 658 l 313 0 m 606 -131 q 553 -273 606 -221 q 404 -325 501 -325 q 281 -306 335 -325 l 281 -215 q 365 -229 324 -229 q 465 -205 439 -229 q 492 -121 492 -181 l 492 568 l 390 568 l 401 658 l 606 658 l 606 -131 z "},"ī":{"ha":410,"x_min":6,"x_max":406,"o":"m 406 779 l 6 779 l 6 861 l 406 861 l 406 779 m 313 0 l 199 0 l 199 568 l 97 568 l 108 658 l 313 658 l 313 0 z "},"į":{"ha":411,"x_min":97,"x_max":329,"o":"m 314 813 l 188 813 l 188 917 l 314 917 l 314 813 m 260 -226 q 297 -222 278 -226 q 329 -211 317 -218 l 329 -289 q 235 -306 296 -306 q 135 -276 174 -306 q 97 -183 97 -246 q 126 -81 97 -131 q 201 0 154 -32 l 199 0 l 199 568 l 97 568 l 108 658 l 313 658 l 313 0 l 290 0 q 216 -79 242 -36 q 190 -167 190 -122 q 207 -213 190 -200 q 260 -226 224 -226 z "},"ĩ":{"ha":410,"x_min":-4,"x_max":418,"o":"m 311 732 q 201 760 271 732 q 153 777 178 769 q 111 785 129 785 q -4 736 38 785 l -4 824 q 45 853 13 842 q 111 865 78 865 q 162 858 138 865 q 217 838 186 851 q 270 818 251 824 q 311 813 289 813 q 418 863 382 813 l 418 774 q 375 743 404 754 q 311 732 346 732 m 313 0 l 199 0 l 199 568 l 97 568 l 108 658 l 313 658 l 313 0 z "},"j":{"ha":408,"x_min":-14,"x_max":311,"o":"m 185 813 l 185 917 l 311 917 l 311 813 l 185 813 m 311 -131 q 259 -273 311 -221 q 110 -325 207 -325 q -14 -306 40 -325 l -14 -215 q 71 -229 29 -229 q 171 -205 144 -229 q 197 -121 197 -181 l 197 568 l 96 568 l 107 658 l 311 658 l 311 -131 z "},"ȷ":{"ha":408,"x_min":-14,"x_max":311,"o":"m 311 -131 q 259 -273 311 -221 q 110 -325 207 -325 q -14 -306 40 -325 l -14 -215 q 71 -229 29 -229 q 171 -205 144 -229 q 197 -121 197 -181 l 197 568 l 96 568 l 107 658 l 311 658 l 311 -131 z "},"ĵ":{"ha":408,"x_min":-14,"x_max":444,"o":"m 346 725 l 239 867 l 132 725 l 33 725 l 193 931 l 285 931 l 444 725 l 346 725 m 311 -131 q 259 -273 311 -221 q 110 -325 207 -325 q -14 -306 40 -325 l -14 -215 q 71 -229 29 -229 q 171 -205 144 -229 q 197 -121 197 -181 l 197 568 l 96 568 l 107 658 l 311 658 l 311 -131 z "},"k":{"ha":736,"x_min":97,"x_max":667,"o":"m 667 0 l 547 0 l 310 336 l 211 243 l 211 0 l 97 0 l 97 936 l 211 936 l 211 368 l 519 658 l 651 658 l 382 397 l 667 0 z "},"ķ":{"ha":736,"x_min":97,"x_max":667,"o":"m 667 0 l 547 0 l 310 336 l 211 243 l 211 0 l 97 0 l 97 936 l 211 936 l 211 368 l 519 658 l 651 658 l 382 397 l 667 0 m 322 -51 l 425 -51 l 367 -297 l 283 -297 l 322 -51 z "},"ĸ":{"ha":736,"x_min":97,"x_max":667,"o":"m 667 0 l 547 0 l 311 315 l 211 213 l 211 0 l 97 0 l 97 658 l 211 658 l 211 342 l 519 658 l 651 658 l 382 378 l 667 0 z "},"l":{"ha":365,"x_min":97,"x_max":331,"o":"m 211 936 l 211 154 q 224 98 211 114 q 268 82 238 82 q 331 90 300 82 l 331 0 q 240 -14 294 -14 q 134 23 171 -14 q 97 142 97 60 l 97 936 l 211 936 z "},"ĺ":{"ha":365,"x_min":97,"x_max":331,"o":"m 196 1244 l 299 1244 l 189 1011 l 97 1011 l 196 1244 m 211 936 l 211 154 q 224 98 211 114 q 268 82 238 82 q 331 90 300 82 l 331 0 q 240 -14 294 -14 q 134 23 171 -14 q 97 142 97 60 l 97 936 l 211 936 z "},"ľ":{"ha":451,"x_min":97,"x_max":433,"o":"m 331 1133 l 433 1133 l 375 888 l 292 888 l 331 1133 m 211 936 l 211 154 q 224 98 211 114 q 268 82 238 82 q 331 90 300 82 l 331 0 q 240 -14 294 -14 q 134 23 171 -14 q 97 142 97 60 l 97 936 l 211 936 z "},"ļ":{"ha":365,"x_min":97,"x_max":331,"o":"m 211 936 l 211 154 q 224 98 211 114 q 268 82 238 82 q 331 90 300 82 l 331 0 q 240 -14 294 -14 q 134 23 171 -14 q 97 142 97 60 l 97 936 l 211 936 m 186 -51 l 289 -51 l 231 -297 l 147 -297 l 186 -51 z "},"ŀ":{"ha":433,"x_min":97,"x_max":429,"o":"m 211 936 l 211 154 q 224 98 211 114 q 268 82 238 82 q 331 90 300 82 l 331 0 q 240 -14 294 -14 q 134 23 171 -14 q 97 142 97 60 l 97 936 l 211 936 m 318 476 l 429 476 l 429 369 l 318 369 l 318 476 z "},"ḷ":{"ha":365,"x_min":97,"x_max":331,"o":"m 211 936 l 211 154 q 224 98 211 114 q 268 82 238 82 q 331 90 300 82 l 331 0 q 240 -14 294 -14 q 134 23 171 -14 q 97 142 97 60 l 97 936 l 211 936 m 156 -121 l 267 -121 l 267 -228 l 156 -228 l 156 -121 z "},"ḹ":{"ha":365,"x_min":-43,"x_max":357,"o":"m 357 1001 l -43 1001 l -43 1083 l 357 1083 l 357 1001 m 211 936 l 211 154 q 224 98 211 114 q 268 82 238 82 q 331 90 300 82 l 331 0 q 240 -14 294 -14 q 134 23 171 -14 q 97 142 97 60 l 97 936 l 211 936 m 156 -121 l 267 -121 l 267 -228 l 156 -228 l 156 -121 z "},"ḻ":{"ha":365,"x_min":-12,"x_max":388,"o":"m 211 936 l 211 154 q 224 98 211 114 q 268 82 238 82 q 331 90 300 82 l 331 0 q 240 -14 294 -14 q 134 23 171 -14 q 97 142 97 60 l 97 936 l 211 936 m 388 -183 l -12 -183 l -12 -101 l 388 -101 l 388 -183 z "},"ł":{"ha":365,"x_min":-53,"x_max":386,"o":"m 211 442 l 211 154 q 224 98 211 114 q 268 82 238 82 q 331 90 300 82 l 331 0 q 240 -14 294 -14 q 134 23 171 -14 q 97 142 97 60 l 97 392 l -53 325 l -53 424 l 97 490 l 97 936 l 211 936 l 211 540 l 386 617 l 386 518 l 211 442 z "},"m":{"ha":1188,"x_min":97,"x_max":1097,"o":"m 985 0 l 985 426 q 949 547 985 513 q 829 581 913 581 q 724 562 774 581 q 642 507 675 543 q 650 426 650 472 l 650 0 l 543 0 l 543 424 q 514 545 543 510 q 406 581 485 581 q 301 558 353 581 q 210 496 250 535 l 210 0 l 97 0 l 97 658 l 200 658 l 207 583 q 446 672 318 672 q 558 649 517 672 q 621 582 600 626 q 733 649 672 625 q 875 672 794 672 q 1042 615 988 672 q 1097 438 1097 557 l 1097 0 l 985 0 z "},"ṃ":{"ha":1188,"x_min":97,"x_max":1097,"o":"m 985 0 l 985 426 q 949 547 985 513 q 829 581 913 581 q 724 562 774 581 q 642 507 675 543 q 650 426 650 472 l 650 0 l 543 0 l 543 424 q 514 545 543 510 q 406 581 485 581 q 301 558 353 581 q 210 496 250 535 l 210 0 l 97 0 l 97 658 l 200 658 l 207 583 q 446 672 318 672 q 558 649 517 672 q 621 582 600 626 q 733 649 672 625 q 875 672 794 672 q 1042 615 988 672 q 1097 438 1097 557 l 1097 0 l 985 0 m 539 -121 l 650 -121 l 650 -228 l 539 -228 l 539 -121 z "},"n":{"ha":792,"x_min":97,"x_max":701,"o":"m 588 0 l 588 426 q 572 519 588 486 q 522 566 557 551 q 419 581 486 581 q 304 558 358 581 q 211 497 250 536 l 211 0 l 97 0 l 97 658 l 200 658 l 207 583 q 463 672 315 672 q 644 614 588 672 q 701 431 701 556 l 701 0 l 588 0 z "},"ń":{"ha":792,"x_min":97,"x_max":701,"o":"m 428 958 l 531 958 l 421 725 l 329 725 l 428 958 m 588 0 l 588 426 q 572 519 588 486 q 522 566 557 551 q 419 581 486 581 q 304 558 358 581 q 211 497 250 536 l 211 0 l 97 0 l 97 658 l 200 658 l 207 583 q 463 672 315 672 q 644 614 588 672 q 701 431 701 556 l 701 0 l 588 0 z "},"ŉ":{"ha":913,"x_min":46,"x_max":822,"o":"m 85 901 l 188 901 l 129 656 l 46 656 l 85 901 m 708 0 l 708 426 q 693 519 708 486 q 642 566 678 551 q 540 581 607 581 q 425 558 479 581 q 332 497 371 536 l 332 0 l 218 0 l 218 658 l 321 658 l 328 583 q 583 672 436 672 q 765 614 708 672 q 822 431 822 556 l 822 0 l 708 0 z "},"ň":{"ha":792,"x_min":97,"x_max":701,"o":"m 335 725 l 175 931 l 274 931 l 381 789 l 488 931 l 586 931 l 426 725 l 335 725 m 588 0 l 588 426 q 572 519 588 486 q 522 566 557 551 q 419 581 486 581 q 304 558 358 581 q 211 497 250 536 l 211 0 l 97 0 l 97 658 l 200 658 l 207 583 q 463 672 315 672 q 644 614 588 672 q 701 431 701 556 l 701 0 l 588 0 z "},"ņ":{"ha":792,"x_min":97,"x_max":701,"o":"m 588 0 l 588 426 q 572 519 588 486 q 522 566 557 551 q 419 581 486 581 q 304 558 358 581 q 211 497 250 536 l 211 0 l 97 0 l 97 658 l 200 658 l 207 583 q 463 672 315 672 q 644 614 588 672 q 701 431 701 556 l 701 0 l 588 0 m 363 -51 l 465 -51 l 407 -297 l 324 -297 l 363 -51 z "},"ṅ":{"ha":792,"x_min":97,"x_max":701,"o":"m 336 863 l 447 863 l 447 756 l 336 756 l 336 863 m 588 0 l 588 426 q 572 519 588 486 q 522 566 557 551 q 419 581 486 581 q 304 558 358 581 q 211 497 250 536 l 211 0 l 97 0 l 97 658 l 200 658 l 207 583 q 463 672 315 672 q 644 614 588 672 q 701 431 701 556 l 701 0 l 588 0 z "},"ṇ":{"ha":792,"x_min":97,"x_max":701,"o":"m 588 0 l 588 426 q 572 519 588 486 q 522 566 557 551 q 419 581 486 581 q 304 558 358 581 q 211 497 250 536 l 211 0 l 97 0 l 97 658 l 200 658 l 207 583 q 463 672 315 672 q 644 614 588 672 q 701 431 701 556 l 701 0 l 588 0 m 343 -121 l 454 -121 l 454 -228 l 343 -228 l 343 -121 z "},"ŋ":{"ha":792,"x_min":97,"x_max":701,"o":"m 701 -131 q 649 -273 701 -221 q 500 -325 597 -325 q 376 -306 431 -325 l 376 -215 q 461 -229 419 -229 q 561 -205 535 -229 q 588 -121 588 -181 l 588 426 q 572 519 588 486 q 522 566 557 551 q 419 581 486 581 q 304 558 358 581 q 211 497 250 536 l 211 0 l 97 0 l 97 658 l 200 658 l 207 583 q 463 672 315 672 q 644 614 588 672 q 701 431 701 556 l 701 -131 z "},"ṉ":{"ha":792,"x_min":97,"x_max":701,"o":"m 588 0 l 588 426 q 572 519 588 486 q 522 566 557 551 q 419 581 486 581 q 304 558 358 581 q 211 497 250 536 l 211 0 l 97 0 l 97 658 l 200 658 l 207 583 q 463 672 315 672 q 644 614 588 672 q 701 431 701 556 l 701 0 l 588 0 m 594 -181 l 194 -181 l 194 -99 l 594 -99 l 594 -181 z "},"ñ":{"ha":792,"x_min":97,"x_max":701,"o":"m 500 753 q 390 781 460 753 q 342 798 367 790 q 300 806 318 806 q 185 757 226 806 l 185 844 q 234 874 201 863 q 300 886 267 886 q 351 879 326 886 q 406 858 375 872 q 459 839 440 844 q 500 833 478 833 q 607 883 571 833 l 607 794 q 564 764 593 775 q 500 753 535 753 m 588 0 l 588 426 q 572 519 588 486 q 522 566 557 551 q 419 581 486 581 q 304 558 358 581 q 211 497 250 536 l 211 0 l 97 0 l 97 658 l 200 658 l 207 583 q 463 672 315 672 q 644 614 588 672 q 701 431 701 556 l 701 0 l 588 0 z "},"o":{"ha":797,"x_min":69,"x_max":728,"o":"m 399 672 q 728 329 728 672 q 648 72 728 158 q 399 -14 568 -14 q 149 72 229 -14 q 69 329 69 158 q 399 672 69 672 m 399 83 q 565 142 515 83 q 614 329 614 200 q 564 517 614 458 q 399 575 514 575 q 233 517 283 575 q 183 329 183 458 q 233 142 183 200 q 399 83 282 83 z "},"ó":{"ha":797,"x_min":69,"x_max":728,"o":"m 450 958 l 553 958 l 443 725 l 351 725 l 450 958 m 399 672 q 728 329 728 672 q 648 72 728 158 q 399 -14 568 -14 q 149 72 229 -14 q 69 329 69 158 q 399 672 69 672 m 399 83 q 565 142 515 83 q 614 329 614 200 q 564 517 614 458 q 399 575 514 575 q 233 517 283 575 q 183 329 183 458 q 233 142 183 200 q 399 83 282 83 z "},"ŏ":{"ha":797,"x_min":69,"x_max":728,"o":"m 303 900 q 328 823 303 849 q 397 797 353 797 q 494 900 494 797 l 575 900 q 529 772 575 819 q 397 725 483 725 q 267 772 313 725 q 222 900 222 819 l 303 900 m 399 672 q 728 329 728 672 q 648 72 728 158 q 399 -14 568 -14 q 149 72 229 -14 q 69 329 69 158 q 399 672 69 672 m 399 83 q 565 142 515 83 q 614 329 614 200 q 564 517 614 458 q 399 575 514 575 q 233 517 283 575 q 183 329 183 458 q 233 142 183 200 q 399 83 282 83 z "},"ǒ":{"ha":797,"x_min":69,"x_max":728,"o":"m 353 725 l 193 931 l 292 931 l 399 789 l 506 931 l 604 931 l 444 725 l 353 725 m 399 672 q 728 329 728 672 q 648 72 728 158 q 399 -14 568 -14 q 149 72 229 -14 q 69 329 69 158 q 399 672 69 672 m 399 83 q 565 142 515 83 q 614 329 614 200 q 564 517 614 458 q 399 575 514 575 q 233 517 283 575 q 183 329 183 458 q 233 142 183 200 q 399 83 282 83 z "},"ô":{"ha":797,"x_min":69,"x_max":728,"o":"m 506 725 l 399 867 l 292 725 l 193 725 l 353 931 l 444 931 l 604 725 l 506 725 m 399 672 q 728 329 728 672 q 648 72 728 158 q 399 -14 568 -14 q 149 72 229 -14 q 69 329 69 158 q 399 672 69 672 m 399 83 q 565 142 515 83 q 614 329 614 200 q 564 517 614 458 q 399 575 514 575 q 233 517 283 575 q 183 329 183 458 q 233 142 183 200 q 399 83 282 83 z "},"ố":{"ha":797,"x_min":69,"x_max":728,"o":"m 593 1050 l 683 1050 l 589 876 l 507 876 l 593 1050 m 500 725 l 396 840 l 293 725 l 196 725 l 350 889 l 442 889 l 596 725 l 500 725 m 399 672 q 728 329 728 672 q 648 72 728 158 q 399 -14 568 -14 q 149 72 229 -14 q 69 329 69 158 q 399 672 69 672 m 399 83 q 565 142 515 83 q 614 329 614 200 q 564 517 614 458 q 399 575 514 575 q 233 517 283 575 q 183 329 183 458 q 233 142 183 200 q 399 83 282 83 z "},"ộ":{"ha":797,"x_min":69,"x_max":728,"o":"m 506 725 l 399 867 l 292 725 l 193 725 l 353 931 l 444 931 l 604 725 l 506 725 m 399 672 q 728 329 728 672 q 648 72 728 158 q 399 -14 568 -14 q 149 72 229 -14 q 69 329 69 158 q 399 672 69 672 m 399 83 q 565 142 515 83 q 614 329 614 200 q 564 517 614 458 q 399 575 514 575 q 233 517 283 575 q 183 329 183 458 q 233 142 183 200 q 399 83 282 83 m 343 -121 l 454 -121 l 454 -228 l 343 -228 l 343 -121 z "},"ồ":{"ha":797,"x_min":69,"x_max":728,"o":"m 99 1050 l 189 1050 l 275 876 l 193 876 l 99 1050 m 432 889 l 586 725 l 489 725 l 386 840 l 282 725 l 186 725 l 340 889 l 432 889 m 399 672 q 728 329 728 672 q 648 72 728 158 q 399 -14 568 -14 q 149 72 229 -14 q 69 329 69 158 q 399 672 69 672 m 399 83 q 565 142 515 83 q 614 329 614 200 q 564 517 614 458 q 399 575 514 575 q 233 517 283 575 q 183 329 183 458 q 233 142 183 200 q 399 83 282 83 z "},"ổ":{"ha":797,"x_min":69,"x_max":729,"o":"m 729 999 q 703 928 729 953 q 619 896 676 903 l 619 847 l 535 847 l 535 935 q 624 951 601 938 q 646 993 646 964 q 629 1031 646 1019 q 576 1043 613 1043 q 497 1026 535 1043 l 497 1086 q 596 1103 540 1103 q 694 1075 658 1103 q 729 999 729 1047 m 458 889 l 613 725 l 517 725 l 413 840 l 310 725 l 213 725 l 367 889 l 458 889 m 399 672 q 728 329 728 672 q 648 72 728 158 q 399 -14 568 -14 q 149 72 229 -14 q 69 329 69 158 q 399 672 69 672 m 399 83 q 565 142 515 83 q 614 329 614 200 q 564 517 614 458 q 399 575 514 575 q 233 517 283 575 q 183 329 183 458 q 233 142 183 200 q 399 83 282 83 z "},"ỗ":{"ha":797,"x_min":69,"x_max":728,"o":"m 496 949 q 453 955 474 949 q 394 975 432 961 q 351 990 374 983 q 311 997 329 997 q 206 953 243 997 l 206 1031 q 251 1058 221 1047 q 311 1068 282 1068 q 358 1062 335 1068 q 410 1043 381 1056 q 496 1019 463 1019 q 594 1065 561 1019 l 594 986 q 555 959 582 969 q 496 949 528 949 m 399 792 q 495 824 460 792 q 531 919 531 857 l 603 919 q 546 772 603 819 q 399 725 489 725 q 251 772 308 725 q 194 919 194 819 l 267 919 q 302 824 267 857 q 399 792 338 792 m 399 672 q 728 329 728 672 q 648 72 728 158 q 399 -14 568 -14 q 149 72 229 -14 q 69 329 69 158 q 399 672 69 672 m 399 83 q 565 142 515 83 q 614 329 614 200 q 564 517 614 458 q 399 575 514 575 q 233 517 283 575 q 183 329 183 458 q 233 142 183 200 q 399 83 282 83 z "},"ö":{"ha":797,"x_min":69,"x_max":728,"o":"m 222 861 l 331 861 l 331 757 l 222 757 l 222 861 m 467 861 l 575 861 l 575 757 l 467 757 l 467 861 m 399 672 q 728 329 728 672 q 648 72 728 158 q 399 -14 568 -14 q 149 72 229 -14 q 69 329 69 158 q 399 672 69 672 m 399 83 q 565 142 515 83 q 614 329 614 200 q 564 517 614 458 q 399 575 514 575 q 233 517 283 575 q 183 329 183 458 q 233 142 183 200 q 399 83 282 83 z "},"ọ":{"ha":797,"x_min":69,"x_max":728,"o":"m 399 672 q 728 329 728 672 q 648 72 728 158 q 399 -14 568 -14 q 149 72 229 -14 q 69 329 69 158 q 399 672 69 672 m 399 83 q 565 142 515 83 q 614 329 614 200 q 564 517 614 458 q 399 575 514 575 q 233 517 283 575 q 183 329 183 458 q 233 142 183 200 q 399 83 282 83 m 343 -121 l 454 -121 l 454 -228 l 343 -228 l 343 -121 z "},"ò":{"ha":797,"x_min":69,"x_max":728,"o":"m 251 958 l 354 958 l 453 725 l 361 725 l 251 958 m 399 672 q 728 329 728 672 q 648 72 728 158 q 399 -14 568 -14 q 149 72 229 -14 q 69 329 69 158 q 399 672 69 672 m 399 83 q 565 142 515 83 q 614 329 614 200 q 564 517 614 458 q 399 575 514 575 q 233 517 283 575 q 183 329 183 458 q 233 142 183 200 q 399 83 282 83 z "},"ỏ":{"ha":797,"x_min":69,"x_max":728,"o":"m 569 921 q 542 832 569 863 q 446 792 514 801 l 446 725 l 354 725 l 354 840 q 436 851 408 843 q 474 872 464 858 q 483 913 483 886 q 458 960 483 946 q 375 975 432 975 q 327 970 353 975 q 283 958 301 965 l 283 1029 q 338 1042 304 1038 q 401 1047 371 1047 q 526 1014 483 1047 q 569 921 569 981 m 399 672 q 728 329 728 672 q 648 72 728 158 q 399 -14 568 -14 q 149 72 229 -14 q 69 329 69 158 q 399 672 69 672 m 399 83 q 565 142 515 83 q 614 329 614 200 q 564 517 614 458 q 399 575 514 575 q 233 517 283 575 q 183 329 183 458 q 233 142 183 200 q 399 83 282 83 z "},"ơ":{"ha":914,"x_min":69,"x_max":886,"o":"m 399 672 q 654 576 571 672 q 737 594 708 578 q 776 645 765 610 q 788 744 788 681 l 886 744 q 840 564 886 622 q 701 493 794 506 q 728 329 728 426 q 648 72 728 158 q 399 -14 568 -14 q 149 72 229 -14 q 69 329 69 158 q 399 672 69 672 m 399 83 q 565 142 515 83 q 614 329 614 200 q 564 517 614 458 q 399 575 514 575 q 233 517 283 575 q 183 329 183 458 q 233 142 183 200 q 399 83 282 83 z "},"ớ":{"ha":914,"x_min":69,"x_max":886,"o":"m 463 958 l 565 958 l 456 725 l 364 725 l 463 958 m 399 672 q 654 576 571 672 q 737 594 708 578 q 776 645 765 610 q 788 744 788 681 l 886 744 q 840 564 886 622 q 701 493 794 506 q 728 329 728 426 q 648 72 728 158 q 399 -14 568 -14 q 149 72 229 -14 q 69 329 69 158 q 399 672 69 672 m 399 83 q 565 142 515 83 q 614 329 614 200 q 564 517 614 458 q 399 575 514 575 q 233 517 283 575 q 183 329 183 458 q 233 142 183 200 q 399 83 282 83 z "},"ợ":{"ha":914,"x_min":69,"x_max":886,"o":"m 399 672 q 654 576 571 672 q 737 594 708 578 q 776 645 765 610 q 788 744 788 681 l 886 744 q 840 564 886 622 q 701 493 794 506 q 728 329 728 426 q 648 72 728 158 q 399 -14 568 -14 q 149 72 229 -14 q 69 329 69 158 q 399 672 69 672 m 399 83 q 565 142 515 83 q 614 329 614 200 q 564 517 614 458 q 399 575 514 575 q 233 517 283 575 q 183 329 183 458 q 233 142 183 200 q 399 83 282 83 m 344 -121 l 456 -121 l 456 -228 l 344 -228 l 344 -121 z "},"ờ":{"ha":914,"x_min":69,"x_max":886,"o":"m 258 958 l 361 958 l 460 725 l 368 725 l 258 958 m 399 672 q 654 576 571 672 q 737 594 708 578 q 776 645 765 610 q 788 744 788 681 l 886 744 q 840 564 886 622 q 701 493 794 506 q 728 329 728 426 q 648 72 728 158 q 399 -14 568 -14 q 149 72 229 -14 q 69 329 69 158 q 399 672 69 672 m 399 83 q 565 142 515 83 q 614 329 614 200 q 564 517 614 458 q 399 575 514 575 q 233 517 283 575 q 183 329 183 458 q 233 142 183 200 q 399 83 282 83 z "},"ở":{"ha":914,"x_min":69,"x_max":886,"o":"m 565 921 q 538 832 565 863 q 442 792 510 801 l 442 725 l 350 725 l 350 840 q 432 851 404 843 q 469 872 460 858 q 479 913 479 886 q 453 960 479 946 q 371 975 428 975 q 323 970 349 975 q 279 958 297 965 l 279 1029 q 333 1042 300 1038 q 397 1047 367 1047 q 522 1014 479 1047 q 565 921 565 981 m 399 672 q 654 576 571 672 q 737 594 708 578 q 776 645 765 610 q 788 744 788 681 l 886 744 q 840 564 886 622 q 701 493 794 506 q 728 329 728 426 q 648 72 728 158 q 399 -14 568 -14 q 149 72 229 -14 q 69 329 69 158 q 399 672 69 672 m 399 83 q 565 142 515 83 q 614 329 614 200 q 564 517 614 458 q 399 575 514 575 q 233 517 283 575 q 183 329 183 458 q 233 142 183 200 q 399 83 282 83 z "},"ỡ":{"ha":914,"x_min":69,"x_max":886,"o":"m 511 751 q 401 779 471 751 q 353 797 378 789 q 311 804 329 804 q 196 756 238 804 l 196 843 q 245 873 213 861 q 311 885 278 885 q 362 878 338 885 q 417 857 386 871 q 470 838 451 843 q 511 832 489 832 q 618 882 582 832 l 618 793 q 575 763 604 774 q 511 751 546 751 m 399 672 q 654 576 571 672 q 737 594 708 578 q 776 645 765 610 q 788 744 788 681 l 886 744 q 840 564 886 622 q 701 493 794 506 q 728 329 728 426 q 648 72 728 158 q 399 -14 568 -14 q 149 72 229 -14 q 69 329 69 158 q 399 672 69 672 m 399 83 q 565 142 515 83 q 614 329 614 200 q 564 517 614 458 q 399 575 514 575 q 233 517 283 575 q 183 329 183 458 q 233 142 183 200 q 399 83 282 83 z "},"ő":{"ha":797,"x_min":69,"x_max":728,"o":"m 310 936 l 418 936 l 306 725 l 211 725 l 310 936 m 596 936 l 704 936 l 592 725 l 497 725 l 596 936 m 399 672 q 728 329 728 672 q 648 72 728 158 q 399 -14 568 -14 q 149 72 229 -14 q 69 329 69 158 q 399 672 69 672 m 399 83 q 565 142 515 83 q 614 329 614 200 q 564 517 614 458 q 399 575 514 575 q 233 517 283 575 q 183 329 183 458 q 233 142 183 200 q 399 83 282 83 z "},"ō":{"ha":797,"x_min":69,"x_max":728,"o":"m 599 769 l 199 769 l 199 851 l 599 851 l 599 769 m 399 672 q 728 329 728 672 q 648 72 728 158 q 399 -14 568 -14 q 149 72 229 -14 q 69 329 69 158 q 399 672 69 672 m 399 83 q 565 142 515 83 q 614 329 614 200 q 564 517 614 458 q 399 575 514 575 q 233 517 283 575 q 183 329 183 458 q 233 142 183 200 q 399 83 282 83 z "},"ø":{"ha":797,"x_min":69,"x_max":728,"o":"m 399 672 q 474 667 442 672 l 499 733 l 599 733 l 565 642 q 728 329 728 571 q 648 72 728 158 q 399 -14 568 -14 q 326 -10 360 -14 l 303 -75 l 203 -75 l 235 14 q 69 329 69 82 q 399 672 69 672 m 183 329 q 204 190 183 243 q 271 110 225 136 l 440 572 q 399 575 413 575 q 233 517 283 575 q 183 329 183 458 m 399 83 q 565 142 515 83 q 614 329 614 200 q 594 465 614 413 q 529 544 574 518 l 361 85 q 399 83 374 83 z "},"ǿ":{"ha":797,"x_min":69,"x_max":728,"o":"m 432 958 l 535 958 l 425 725 l 333 725 l 432 958 m 399 672 q 474 667 442 672 l 499 733 l 599 733 l 565 642 q 728 329 728 571 q 648 72 728 158 q 399 -14 568 -14 q 326 -10 360 -14 l 303 -75 l 203 -75 l 235 14 q 69 329 69 82 q 399 672 69 672 m 183 329 q 204 190 183 243 q 271 110 225 136 l 440 572 q 399 575 413 575 q 233 517 283 575 q 183 329 183 458 m 399 83 q 565 142 515 83 q 614 329 614 200 q 594 465 614 413 q 529 544 574 518 l 361 85 q 399 83 374 83 z "},"õ":{"ha":797,"x_min":69,"x_max":728,"o":"m 503 760 q 393 788 463 760 q 345 805 369 797 q 303 813 321 813 q 188 764 229 813 l 188 851 q 237 881 204 869 q 303 893 269 893 q 353 886 329 893 q 408 865 378 879 q 462 846 443 851 q 503 840 481 840 q 610 890 574 840 l 610 801 q 567 771 596 782 q 503 760 538 760 m 399 672 q 728 329 728 672 q 648 72 728 158 q 399 -14 568 -14 q 149 72 229 -14 q 69 329 69 158 q 399 672 69 672 m 399 83 q 565 142 515 83 q 614 329 614 200 q 564 517 614 458 q 399 575 514 575 q 233 517 283 575 q 183 329 183 458 q 233 142 183 200 q 399 83 282 83 z "},"œ":{"ha":1285,"x_min":69,"x_max":1215,"o":"m 1215 276 l 728 276 q 760 158 733 200 q 842 97 788 115 q 988 78 896 78 q 1174 113 1089 78 l 1174 24 q 965 -14 1089 -14 q 674 104 756 -14 q 399 -14 593 -14 q 149 72 229 -14 q 69 329 69 158 q 399 672 69 672 q 671 556 590 672 q 929 672 749 672 q 1142 597 1069 672 q 1215 400 1215 522 l 1215 276 m 1114 413 q 1070 538 1114 494 q 932 581 1026 581 q 773 527 818 581 q 728 358 728 474 l 1114 358 l 1114 413 m 399 83 q 565 142 515 83 q 614 329 614 200 q 564 517 614 458 q 399 575 514 575 q 233 517 283 575 q 183 329 183 458 q 233 142 183 200 q 399 83 282 83 z "},"p":{"ha":799,"x_min":97,"x_max":729,"o":"m 729 339 q 651 75 729 164 q 431 -14 574 -14 q 211 49 301 -14 l 211 -300 l 97 -300 l 97 658 l 194 658 l 203 589 q 303 652 249 632 q 432 672 358 672 q 653 592 576 672 q 729 339 729 513 m 400 78 q 563 141 511 78 q 615 339 615 204 q 567 524 615 468 q 403 581 518 581 q 211 501 285 581 l 211 143 q 400 78 285 78 z "},"þ":{"ha":799,"x_min":97,"x_max":729,"o":"m 213 610 q 432 672 303 672 q 652 588 575 672 q 729 328 729 503 q 651 70 729 154 q 431 -14 574 -14 q 211 49 301 -14 l 211 -300 l 97 -300 l 97 972 l 213 972 l 213 610 m 400 78 q 563 136 511 78 q 615 328 615 194 q 566 520 615 460 q 403 581 517 581 q 211 501 285 581 l 211 143 q 400 78 285 78 z "},"q":{"ha":849,"x_min":69,"x_max":835,"o":"m 69 311 q 148 580 69 488 q 367 672 226 672 q 495 652 440 672 q 596 589 550 632 l 604 658 l 701 658 l 701 -158 q 717 -223 701 -206 q 775 -240 732 -240 q 835 -232 804 -240 l 835 -322 q 747 -336 797 -336 q 588 -164 588 -336 l 588 49 q 368 -14 497 -14 q 146 63 222 -14 q 69 311 69 139 m 183 311 q 234 129 183 181 q 399 78 285 78 q 588 143 514 78 l 588 501 q 396 581 514 581 q 233 513 283 581 q 183 311 183 444 z "},"r":{"ha":494,"x_min":97,"x_max":453,"o":"m 208 575 q 323 633 257 607 q 453 672 389 660 l 453 583 q 322 544 392 571 q 211 490 251 518 l 211 0 l 97 0 l 97 658 l 200 658 l 208 575 z "},"ŕ":{"ha":494,"x_min":97,"x_max":453,"o":"m 207 958 l 310 958 l 200 725 l 108 725 l 207 958 m 208 575 q 323 633 257 607 q 453 672 389 660 l 453 583 q 322 544 392 571 q 211 490 251 518 l 211 0 l 97 0 l 97 658 l 200 658 l 208 575 z "},"ř":{"ha":494,"x_min":-44,"x_max":453,"o":"m 115 725 l -44 931 l 54 931 l 161 789 l 268 931 l 367 931 l 207 725 l 115 725 m 208 575 q 323 633 257 607 q 453 672 389 660 l 453 583 q 322 544 392 571 q 211 490 251 518 l 211 0 l 97 0 l 97 658 l 200 658 l 208 575 z "},"ŗ":{"ha":494,"x_min":60,"x_max":453,"o":"m 208 575 q 323 633 257 607 q 453 672 389 660 l 453 583 q 322 544 392 571 q 211 490 251 518 l 211 0 l 97 0 l 97 658 l 200 658 l 208 575 m 99 -51 l 201 -51 l 143 -297 l 60 -297 l 99 -51 z "},"ṛ":{"ha":494,"x_min":97,"x_max":453,"o":"m 208 575 q 323 633 257 607 q 453 672 389 660 l 453 583 q 322 544 392 571 q 211 490 251 518 l 211 0 l 97 0 l 97 658 l 200 658 l 208 575 m 99 -121 l 210 -121 l 210 -228 l 99 -228 l 99 -121 z "},"ṝ":{"ha":494,"x_min":1,"x_max":453,"o":"m 401 765 l 1 765 l 1 847 l 401 847 l 401 765 m 208 575 q 323 633 257 607 q 453 672 389 660 l 453 583 q 322 544 392 571 q 211 490 251 518 l 211 0 l 97 0 l 97 658 l 200 658 l 208 575 m 99 -121 l 210 -121 l 210 -228 l 99 -228 l 99 -121 z "},"ṟ":{"ha":494,"x_min":-28,"x_max":453,"o":"m 208 575 q 323 633 257 607 q 453 672 389 660 l 453 583 q 322 544 392 571 q 211 490 251 518 l 211 0 l 97 0 l 97 658 l 200 658 l 208 575 m 372 -181 l -28 -181 l -28 -99 l 372 -99 l 372 -181 z "},"s":{"ha":635,"x_min":69,"x_max":565,"o":"m 451 172 q 436 223 451 204 q 392 255 421 242 q 303 288 364 268 l 265 300 q 156 344 196 324 q 93 399 117 364 q 69 492 69 435 q 132 626 69 581 q 328 672 194 672 q 514 646 431 672 l 514 546 q 346 575 426 575 q 220 557 257 575 q 183 493 183 539 q 199 443 183 461 q 245 413 215 425 q 350 378 275 401 q 477 328 432 353 q 544 267 522 303 q 565 174 565 231 q 304 -14 565 -14 q 183 -6 242 -14 q 86 17 125 3 l 86 117 q 289 83 181 83 q 415 102 379 83 q 451 172 451 121 z "},"ś":{"ha":635,"x_min":69,"x_max":565,"o":"m 351 958 l 454 958 l 344 725 l 253 725 l 351 958 m 451 172 q 436 223 451 204 q 392 255 421 242 q 303 288 364 268 l 265 300 q 156 344 196 324 q 93 399 117 364 q 69 492 69 435 q 132 626 69 581 q 328 672 194 672 q 514 646 431 672 l 514 546 q 346 575 426 575 q 220 557 257 575 q 183 493 183 539 q 199 443 183 461 q 245 413 215 425 q 350 378 275 401 q 477 328 432 353 q 544 267 522 303 q 565 174 565 231 q 304 -14 565 -14 q 183 -6 242 -14 q 86 17 125 3 l 86 117 q 289 83 181 83 q 415 102 379 83 q 451 172 451 121 z "},"š":{"ha":635,"x_min":69,"x_max":565,"o":"m 283 725 l 124 931 l 222 931 l 329 789 l 436 931 l 535 931 l 375 725 l 283 725 m 451 172 q 436 223 451 204 q 392 255 421 242 q 303 288 364 268 l 265 300 q 156 344 196 324 q 93 399 117 364 q 69 492 69 435 q 132 626 69 581 q 328 672 194 672 q 514 646 431 672 l 514 546 q 346 575 426 575 q 220 557 257 575 q 183 493 183 539 q 199 443 183 461 q 245 413 215 425 q 350 378 275 401 q 477 328 432 353 q 544 267 522 303 q 565 174 565 231 q 304 -14 565 -14 q 183 -6 242 -14 q 86 17 125 3 l 86 117 q 289 83 181 83 q 415 102 379 83 q 451 172 451 121 z "},"ş":{"ha":635,"x_min":69,"x_max":565,"o":"m 565 174 q 346 -12 565 0 l 328 -67 q 442 -99 403 -67 q 482 -192 482 -132 q 283 -333 482 -333 q 232 -330 261 -333 q 186 -322 203 -326 l 186 -253 q 274 -264 226 -264 q 369 -248 340 -264 q 399 -190 399 -232 q 372 -139 399 -151 q 281 -126 344 -126 l 229 -126 l 265 -12 q 86 17 157 -8 l 86 117 q 289 83 181 83 q 415 102 379 83 q 451 172 451 121 q 436 223 451 204 q 392 255 421 242 q 303 288 364 268 l 265 300 q 156 344 196 324 q 93 399 117 364 q 69 492 69 435 q 132 626 69 581 q 328 672 194 672 q 514 646 431 672 l 514 546 q 346 575 426 575 q 220 557 257 575 q 183 493 183 539 q 199 443 183 461 q 245 413 215 425 q 350 378 275 401 q 477 328 432 353 q 544 267 522 303 q 565 174 565 231 z "},"ŝ":{"ha":635,"x_min":69,"x_max":565,"o":"m 433 725 l 326 867 l 219 725 l 121 725 l 281 931 l 372 931 l 532 725 l 433 725 m 451 172 q 436 223 451 204 q 392 255 421 242 q 303 288 364 268 l 265 300 q 156 344 196 324 q 93 399 117 364 q 69 492 69 435 q 132 626 69 581 q 328 672 194 672 q 514 646 431 672 l 514 546 q 346 575 426 575 q 220 557 257 575 q 183 493 183 539 q 199 443 183 461 q 245 413 215 425 q 350 378 275 401 q 477 328 432 353 q 544 267 522 303 q 565 174 565 231 q 304 -14 565 -14 q 183 -6 242 -14 q 86 17 125 3 l 86 117 q 289 83 181 83 q 415 102 379 83 q 451 172 451 121 z "},"ș":{"ha":635,"x_min":69,"x_max":565,"o":"m 451 172 q 436 223 451 204 q 392 255 421 242 q 303 288 364 268 l 265 300 q 156 344 196 324 q 93 399 117 364 q 69 492 69 435 q 132 626 69 581 q 328 672 194 672 q 514 646 431 672 l 514 546 q 346 575 426 575 q 220 557 257 575 q 183 493 183 539 q 199 443 183 461 q 245 413 215 425 q 350 378 275 401 q 477 328 432 353 q 544 267 522 303 q 565 174 565 231 q 304 -14 565 -14 q 183 -6 242 -14 q 86 17 125 3 l 86 117 q 289 83 181 83 q 415 102 379 83 q 451 172 451 121 m 261 -72 l 365 -72 l 311 -303 l 224 -303 l 261 -72 z "},"ṡ":{"ha":635,"x_min":69,"x_max":565,"o":"m 278 863 l 389 863 l 389 756 l 278 756 l 278 863 m 451 172 q 436 223 451 204 q 392 255 421 242 q 303 288 364 268 l 265 300 q 156 344 196 324 q 93 399 117 364 q 69 492 69 435 q 132 626 69 581 q 328 672 194 672 q 514 646 431 672 l 514 546 q 346 575 426 575 q 220 557 257 575 q 183 493 183 539 q 199 443 183 461 q 245 413 215 425 q 350 378 275 401 q 477 328 432 353 q 544 267 522 303 q 565 174 565 231 q 304 -14 565 -14 q 183 -6 242 -14 q 86 17 125 3 l 86 117 q 289 83 181 83 q 415 102 379 83 q 451 172 451 121 z "},"ṣ":{"ha":635,"x_min":69,"x_max":565,"o":"m 451 172 q 436 223 451 204 q 392 255 421 242 q 303 288 364 268 l 265 300 q 156 344 196 324 q 93 399 117 364 q 69 492 69 435 q 132 626 69 581 q 328 672 194 672 q 514 646 431 672 l 514 546 q 346 575 426 575 q 220 557 257 575 q 183 493 183 539 q 199 443 183 461 q 245 413 215 425 q 350 378 275 401 q 477 328 432 353 q 544 267 522 303 q 565 174 565 231 q 304 -14 565 -14 q 183 -6 242 -14 q 86 17 125 3 l 86 117 q 289 83 181 83 q 415 102 379 83 q 451 172 451 121 m 268 -121 l 379 -121 l 379 -228 l 268 -228 l 268 -121 z "},"ß":{"ha":871,"x_min":90,"x_max":801,"o":"m 504 83 q 640 131 592 83 q 688 267 688 179 q 642 400 688 354 q 494 446 597 446 l 381 446 l 381 532 l 497 532 q 619 578 581 532 q 658 701 658 624 q 607 831 658 786 q 431 875 556 875 q 204 646 204 875 l 204 0 l 90 0 l 90 650 q 132 819 90 746 q 250 932 174 892 q 431 972 326 972 q 616 936 540 972 q 728 839 692 900 q 765 701 765 778 q 733 571 765 626 q 649 490 701 515 q 760 410 719 469 q 801 261 801 350 q 729 58 801 131 q 522 -14 657 -14 q 322 17 404 -14 l 322 114 q 504 83 393 83 z "},"ə":{"ha":740,"x_min":69,"x_max":671,"o":"m 557 382 q 524 501 551 458 q 443 562 497 543 q 297 581 389 581 q 111 546 196 581 l 111 635 q 319 672 197 672 q 583 588 496 672 q 671 326 671 503 q 593 75 671 164 q 356 -14 515 -14 q 142 61 215 -14 q 69 258 69 136 l 69 382 l 557 382 m 353 78 q 512 131 467 78 q 557 300 557 185 l 171 300 l 171 246 q 215 121 171 164 q 353 78 258 78 z "},"t":{"ha":497,"x_min":42,"x_max":456,"o":"m 142 658 l 142 821 l 256 856 l 256 658 l 438 658 l 431 568 l 256 568 l 256 189 q 283 103 256 128 q 376 78 310 78 q 456 92 413 78 l 456 6 q 338 -14 404 -14 q 192 38 242 -14 q 142 183 142 89 l 142 568 l 42 568 l 42 658 l 142 658 z "},"ŧ":{"ha":514,"x_min":42,"x_max":472,"o":"m 393 78 q 472 92 429 78 l 472 6 q 354 -14 421 -14 q 208 38 258 -14 q 158 183 158 89 l 158 306 l 42 306 l 42 386 l 158 386 l 158 568 l 58 568 l 58 658 l 158 658 l 158 821 l 272 856 l 272 658 l 454 658 l 447 568 l 272 568 l 272 386 l 436 386 l 436 306 l 272 306 l 272 189 q 299 103 272 128 q 393 78 326 78 z "},"ť":{"ha":497,"x_min":42,"x_max":551,"o":"m 449 1024 l 551 1024 l 493 778 l 410 778 l 449 1024 m 142 658 l 142 821 l 256 856 l 256 658 l 438 658 l 431 568 l 256 568 l 256 189 q 283 103 256 128 q 376 78 310 78 q 456 92 413 78 l 456 6 q 338 -14 404 -14 q 192 38 242 -14 q 142 183 142 89 l 142 568 l 42 568 l 42 658 l 142 658 z "},"ţ":{"ha":497,"x_min":42,"x_max":481,"o":"m 326 -67 q 441 -99 401 -67 q 481 -192 481 -132 q 282 -333 481 -333 q 231 -330 260 -333 q 185 -322 201 -326 l 185 -253 q 272 -264 225 -264 q 368 -248 339 -264 q 397 -190 397 -232 q 370 -139 397 -151 q 279 -126 343 -126 l 228 -126 l 267 -6 q 173 60 204 13 q 142 183 142 108 l 142 568 l 42 568 l 42 658 l 142 658 l 142 821 l 256 856 l 256 658 l 438 658 l 431 568 l 256 568 l 256 189 q 283 103 256 128 q 376 78 310 78 q 456 92 413 78 l 456 6 q 344 -14 406 -14 l 326 -67 z "},"ț":{"ha":497,"x_min":42,"x_max":456,"o":"m 142 658 l 142 821 l 256 856 l 256 658 l 438 658 l 431 568 l 256 568 l 256 189 q 283 103 256 128 q 376 78 310 78 q 456 92 413 78 l 456 6 q 338 -14 404 -14 q 192 38 242 -14 q 142 183 142 89 l 142 568 l 42 568 l 42 658 l 142 658 m 275 -58 l 378 -58 l 319 -304 l 236 -304 l 275 -58 z "},"ẗ":{"ha":497,"x_min":42,"x_max":456,"o":"m 42 999 l 150 999 l 150 894 l 42 894 l 42 999 m 286 999 l 394 999 l 394 894 l 286 894 l 286 999 m 142 658 l 142 821 l 256 856 l 256 658 l 438 658 l 431 568 l 256 568 l 256 189 q 283 103 256 128 q 376 78 310 78 q 456 92 413 78 l 456 6 q 338 -14 404 -14 q 192 38 242 -14 q 142 183 142 89 l 142 568 l 42 568 l 42 658 l 142 658 z "},"ṭ":{"ha":497,"x_min":42,"x_max":456,"o":"m 142 658 l 142 821 l 256 856 l 256 658 l 438 658 l 431 568 l 256 568 l 256 189 q 283 103 256 128 q 376 78 310 78 q 456 92 413 78 l 456 6 q 338 -14 404 -14 q 192 38 242 -14 q 142 183 142 89 l 142 568 l 42 568 l 42 658 l 142 658 m 254 -114 l 365 -114 l 365 -221 l 254 -221 l 254 -114 z "},"ṯ":{"ha":497,"x_min":42,"x_max":474,"o":"m 142 658 l 142 821 l 256 856 l 256 658 l 438 658 l 431 568 l 256 568 l 256 189 q 283 103 256 128 q 376 78 310 78 q 456 92 413 78 l 456 6 q 338 -14 404 -14 q 192 38 242 -14 q 142 183 142 89 l 142 568 l 42 568 l 42 658 l 142 658 m 474 -174 l 74 -174 l 74 -92 l 474 -92 l 474 -174 z "},"u":{"ha":792,"x_min":90,"x_max":694,"o":"m 204 658 l 204 238 q 245 117 204 156 q 372 78 286 78 q 488 100 433 78 q 581 161 542 122 l 581 658 l 694 658 l 694 0 l 592 0 l 585 75 q 469 10 535 35 q 329 -14 403 -14 q 151 51 211 -14 q 90 242 90 117 l 90 658 l 204 658 z "},"ú":{"ha":792,"x_min":90,"x_max":694,"o":"m 425 958 l 528 958 l 418 725 l 326 725 l 425 958 m 204 658 l 204 238 q 245 117 204 156 q 372 78 286 78 q 488 100 433 78 q 581 161 542 122 l 581 658 l 694 658 l 694 0 l 592 0 l 585 75 q 469 10 535 35 q 329 -14 403 -14 q 151 51 211 -14 q 90 242 90 117 l 90 658 l 204 658 z "},"ŭ":{"ha":792,"x_min":90,"x_max":694,"o":"m 293 900 q 318 823 293 849 q 388 797 343 797 q 485 900 485 797 l 565 900 q 519 772 565 819 q 388 725 474 725 q 258 772 303 725 q 213 900 213 819 l 293 900 m 204 658 l 204 238 q 245 117 204 156 q 372 78 286 78 q 488 100 433 78 q 581 161 542 122 l 581 658 l 694 658 l 694 0 l 592 0 l 585 75 q 469 10 535 35 q 329 -14 403 -14 q 151 51 211 -14 q 90 242 90 117 l 90 658 l 204 658 z "},"ǔ":{"ha":792,"x_min":90,"x_max":694,"o":"m 346 725 l 186 931 l 285 931 l 392 789 l 499 931 l 597 931 l 438 725 l 346 725 m 204 658 l 204 238 q 245 117 204 156 q 372 78 286 78 q 488 100 433 78 q 581 161 542 122 l 581 658 l 694 658 l 694 0 l 592 0 l 585 75 q 469 10 535 35 q 329 -14 403 -14 q 151 51 211 -14 q 90 242 90 117 l 90 658 l 204 658 z "},"û":{"ha":792,"x_min":90,"x_max":694,"o":"m 497 725 l 390 867 l 283 725 l 185 725 l 344 931 l 436 931 l 596 725 l 497 725 m 204 658 l 204 238 q 245 117 204 156 q 372 78 286 78 q 488 100 433 78 q 581 161 542 122 l 581 658 l 694 658 l 694 0 l 592 0 l 585 75 q 469 10 535 35 q 329 -14 403 -14 q 151 51 211 -14 q 90 242 90 117 l 90 658 l 204 658 z "},"ü":{"ha":792,"x_min":90,"x_max":694,"o":"m 211 857 l 319 857 l 319 753 l 211 753 l 211 857 m 456 857 l 564 857 l 564 753 l 456 753 l 456 857 m 204 658 l 204 238 q 245 117 204 156 q 372 78 286 78 q 488 100 433 78 q 581 161 542 122 l 581 658 l 694 658 l 694 0 l 592 0 l 585 75 q 469 10 535 35 q 329 -14 403 -14 q 151 51 211 -14 q 90 242 90 117 l 90 658 l 204 658 z "},"ǘ":{"ha":792,"x_min":90,"x_max":694,"o":"m 435 1014 l 525 1014 l 431 840 l 349 840 l 435 1014 m 203 829 l 311 829 l 311 725 l 203 725 l 203 829 m 475 829 l 583 829 l 583 725 l 475 725 l 475 829 m 204 658 l 204 238 q 245 117 204 156 q 372 78 286 78 q 488 100 433 78 q 581 161 542 122 l 581 658 l 694 658 l 694 0 l 592 0 l 585 75 q 469 10 535 35 q 329 -14 403 -14 q 151 51 211 -14 q 90 242 90 117 l 90 658 l 204 658 z "},"ǚ":{"ha":792,"x_min":90,"x_max":694,"o":"m 292 1004 l 394 889 l 499 1004 l 594 1004 l 440 840 l 349 840 l 194 1004 l 292 1004 m 199 829 l 307 829 l 307 725 l 199 725 l 199 829 m 471 829 l 579 829 l 579 725 l 471 725 l 471 829 m 204 658 l 204 238 q 245 117 204 156 q 372 78 286 78 q 488 100 433 78 q 581 161 542 122 l 581 658 l 694 658 l 694 0 l 592 0 l 585 75 q 469 10 535 35 q 329 -14 403 -14 q 151 51 211 -14 q 90 242 90 117 l 90 658 l 204 658 z "},"ǜ":{"ha":792,"x_min":90,"x_max":694,"o":"m 261 1014 l 351 1014 l 438 840 l 356 840 l 261 1014 m 203 829 l 311 829 l 311 725 l 203 725 l 203 829 m 475 829 l 583 829 l 583 725 l 475 725 l 475 829 m 204 658 l 204 238 q 245 117 204 156 q 372 78 286 78 q 488 100 433 78 q 581 161 542 122 l 581 658 l 694 658 l 694 0 l 592 0 l 585 75 q 469 10 535 35 q 329 -14 403 -14 q 151 51 211 -14 q 90 242 90 117 l 90 658 l 204 658 z "},"ǖ":{"ha":792,"x_min":90,"x_max":694,"o":"m 599 943 l 199 943 l 199 1025 l 599 1025 l 599 943 m 221 854 l 329 854 l 329 750 l 221 750 l 221 854 m 465 854 l 574 854 l 574 750 l 465 750 l 465 854 m 204 658 l 204 238 q 245 117 204 156 q 372 78 286 78 q 488 100 433 78 q 581 161 542 122 l 581 658 l 694 658 l 694 0 l 592 0 l 585 75 q 469 10 535 35 q 329 -14 403 -14 q 151 51 211 -14 q 90 242 90 117 l 90 658 l 204 658 z "},"ụ":{"ha":792,"x_min":90,"x_max":694,"o":"m 204 658 l 204 238 q 245 117 204 156 q 372 78 286 78 q 488 100 433 78 q 581 161 542 122 l 581 658 l 694 658 l 694 0 l 592 0 l 585 75 q 469 10 535 35 q 329 -14 403 -14 q 151 51 211 -14 q 90 242 90 117 l 90 658 l 204 658 m 326 -121 l 438 -121 l 438 -228 l 326 -228 l 326 -121 z "},"ù":{"ha":792,"x_min":90,"x_max":694,"o":"m 249 958 l 351 958 l 450 725 l 358 725 l 249 958 m 204 658 l 204 238 q 245 117 204 156 q 372 78 286 78 q 488 100 433 78 q 581 161 542 122 l 581 658 l 694 658 l 694 0 l 592 0 l 585 75 q 469 10 535 35 q 329 -14 403 -14 q 151 51 211 -14 q 90 242 90 117 l 90 658 l 204 658 z "},"ủ":{"ha":792,"x_min":90,"x_max":694,"o":"m 558 921 q 531 832 558 863 q 435 792 503 801 l 435 725 l 343 725 l 343 840 q 425 851 397 843 q 463 872 453 858 q 472 913 472 886 q 447 960 472 946 q 364 975 421 975 q 316 970 342 975 q 272 958 290 965 l 272 1029 q 326 1042 293 1038 q 390 1047 360 1047 q 515 1014 472 1047 q 558 921 558 981 m 204 658 l 204 238 q 245 117 204 156 q 372 78 286 78 q 488 100 433 78 q 581 161 542 122 l 581 658 l 694 658 l 694 0 l 592 0 l 585 75 q 469 10 535 35 q 329 -14 403 -14 q 151 51 211 -14 q 90 242 90 117 l 90 658 l 204 658 z "},"ư":{"ha":949,"x_min":90,"x_max":907,"o":"m 204 658 l 204 238 q 245 117 204 156 q 372 78 286 78 q 488 100 433 78 q 581 161 542 122 l 581 658 l 694 658 l 694 576 q 785 619 761 582 q 808 744 808 656 l 907 744 q 852 557 907 619 q 694 493 797 494 l 694 0 l 592 0 l 585 75 q 469 10 535 35 q 329 -14 403 -14 q 151 51 211 -14 q 90 242 90 117 l 90 658 l 204 658 z "},"ứ":{"ha":949,"x_min":90,"x_max":907,"o":"m 454 958 l 557 958 l 447 725 l 356 725 l 454 958 m 204 658 l 204 238 q 245 117 204 156 q 372 78 286 78 q 488 100 433 78 q 581 161 542 122 l 581 658 l 694 658 l 694 576 q 785 619 761 582 q 808 744 808 656 l 907 744 q 852 557 907 619 q 694 493 797 494 l 694 0 l 592 0 l 585 75 q 469 10 535 35 q 329 -14 403 -14 q 151 51 211 -14 q 90 242 90 117 l 90 658 l 204 658 z "},"ự":{"ha":949,"x_min":90,"x_max":907,"o":"m 204 658 l 204 238 q 245 117 204 156 q 372 78 286 78 q 488 100 433 78 q 581 161 542 122 l 581 658 l 694 658 l 694 576 q 785 619 761 582 q 808 744 808 656 l 907 744 q 852 557 907 619 q 694 493 797 494 l 694 0 l 592 0 l 585 75 q 469 10 535 35 q 329 -14 403 -14 q 151 51 211 -14 q 90 242 90 117 l 90 658 l 204 658 m 335 -121 l 446 -121 l 446 -228 l 335 -228 l 335 -121 z "},"ừ":{"ha":949,"x_min":90,"x_max":907,"o":"m 256 958 l 358 958 l 457 725 l 365 725 l 256 958 m 204 658 l 204 238 q 245 117 204 156 q 372 78 286 78 q 488 100 433 78 q 581 161 542 122 l 581 658 l 694 658 l 694 576 q 785 619 761 582 q 808 744 808 656 l 907 744 q 852 557 907 619 q 694 493 797 494 l 694 0 l 592 0 l 585 75 q 469 10 535 35 q 329 -14 403 -14 q 151 51 211 -14 q 90 242 90 117 l 90 658 l 204 658 z "},"ử":{"ha":949,"x_min":90,"x_max":907,"o":"m 568 921 q 540 832 568 863 q 444 792 513 801 l 444 725 l 353 725 l 353 840 q 435 851 407 843 q 472 872 463 858 q 482 913 482 886 q 456 960 482 946 q 374 975 431 975 q 326 970 351 975 q 282 958 300 965 l 282 1029 q 336 1042 303 1038 q 400 1047 369 1047 q 525 1014 482 1047 q 568 921 568 981 m 204 658 l 204 238 q 245 117 204 156 q 372 78 286 78 q 488 100 433 78 q 581 161 542 122 l 581 658 l 694 658 l 694 576 q 785 619 761 582 q 808 744 808 656 l 907 744 q 852 557 907 619 q 694 493 797 494 l 694 0 l 592 0 l 585 75 q 469 10 535 35 q 329 -14 403 -14 q 151 51 211 -14 q 90 242 90 117 l 90 658 l 204 658 z "},"ữ":{"ha":949,"x_min":90,"x_max":907,"o":"m 510 751 q 400 779 469 751 q 352 797 376 789 q 310 804 328 804 q 194 756 236 804 l 194 843 q 244 873 211 861 q 310 885 276 885 q 360 878 336 885 q 415 857 385 871 q 469 838 450 843 q 510 832 488 832 q 617 882 581 832 l 617 793 q 574 763 603 774 q 510 751 544 751 m 204 658 l 204 238 q 245 117 204 156 q 372 78 286 78 q 488 100 433 78 q 581 161 542 122 l 581 658 l 694 658 l 694 576 q 785 619 761 582 q 808 744 808 656 l 907 744 q 852 557 907 619 q 694 493 797 494 l 694 0 l 592 0 l 585 75 q 469 10 535 35 q 329 -14 403 -14 q 151 51 211 -14 q 90 242 90 117 l 90 658 l 204 658 z "},"ű":{"ha":792,"x_min":90,"x_max":694,"o":"m 256 936 l 364 936 l 251 725 l 157 725 l 256 936 m 542 936 l 650 936 l 538 725 l 443 725 l 542 936 m 204 658 l 204 238 q 245 117 204 156 q 372 78 286 78 q 488 100 433 78 q 581 161 542 122 l 581 658 l 694 658 l 694 0 l 592 0 l 585 75 q 469 10 535 35 q 329 -14 403 -14 q 151 51 211 -14 q 90 242 90 117 l 90 658 l 204 658 z "},"ū":{"ha":792,"x_min":90,"x_max":694,"o":"m 585 769 l 185 769 l 185 851 l 585 851 l 585 769 m 204 658 l 204 238 q 245 117 204 156 q 372 78 286 78 q 488 100 433 78 q 581 161 542 122 l 581 658 l 694 658 l 694 0 l 592 0 l 585 75 q 469 10 535 35 q 329 -14 403 -14 q 151 51 211 -14 q 90 242 90 117 l 90 658 l 204 658 z "},"ų":{"ha":792,"x_min":90,"x_max":719,"o":"m 650 -226 q 688 -222 668 -226 q 719 -211 707 -218 l 719 -289 q 625 -306 686 -306 q 526 -276 564 -306 q 488 -183 488 -246 q 516 -81 488 -131 q 592 0 544 -32 l 585 75 q 469 10 535 35 q 329 -14 403 -14 q 151 51 211 -14 q 90 242 90 117 l 90 658 l 204 658 l 204 238 q 245 117 204 156 q 372 78 286 78 q 488 100 433 78 q 581 161 542 122 l 581 658 l 694 658 l 694 0 l 681 0 q 606 -79 632 -36 q 581 -167 581 -122 q 597 -213 581 -200 q 650 -226 614 -226 z "},"ů":{"ha":792,"x_min":90,"x_max":694,"o":"m 226 874 q 269 981 226 938 q 378 1024 313 1024 q 489 981 446 1024 q 532 874 532 938 q 489 767 532 810 q 378 725 446 725 q 269 768 313 725 q 226 874 226 811 m 293 874 q 317 813 293 838 q 378 789 342 789 q 440 813 415 789 q 464 874 464 838 q 440 934 464 910 q 378 958 415 958 q 317 934 342 958 q 293 874 293 910 m 204 658 l 204 238 q 245 117 204 156 q 372 78 286 78 q 488 100 433 78 q 581 161 542 122 l 581 658 l 694 658 l 694 0 l 592 0 l 585 75 q 469 10 535 35 q 329 -14 403 -14 q 151 51 211 -14 q 90 242 90 117 l 90 658 l 204 658 z "},"ũ":{"ha":792,"x_min":90,"x_max":694,"o":"m 492 753 q 382 781 451 753 q 334 798 358 790 q 292 806 310 806 q 176 757 218 806 l 176 844 q 226 874 193 863 q 292 886 258 886 q 342 879 318 886 q 397 858 367 872 q 451 839 432 844 q 492 833 469 833 q 599 883 563 833 l 599 794 q 556 764 585 775 q 492 753 526 753 m 204 658 l 204 238 q 245 117 204 156 q 372 78 286 78 q 488 100 433 78 q 581 161 542 122 l 581 658 l 694 658 l 694 0 l 592 0 l 585 75 q 469 10 535 35 q 329 -14 403 -14 q 151 51 211 -14 q 90 242 90 117 l 90 658 l 204 658 z "},"v":{"ha":783,"x_min":69,"x_max":714,"o":"m 69 658 l 188 658 l 392 106 l 596 658 l 714 658 l 456 0 l 328 0 l 69 658 z "},"w":{"ha":1022,"x_min":69,"x_max":953,"o":"m 513 478 l 356 0 l 242 0 l 69 658 l 183 658 l 313 129 l 460 582 l 460 658 l 547 658 l 710 129 l 839 658 l 953 658 l 781 0 l 667 0 l 513 478 z "},"ẃ":{"ha":1022,"x_min":69,"x_max":953,"o":"m 556 958 l 658 958 l 549 725 l 457 725 l 556 958 m 513 478 l 356 0 l 242 0 l 69 658 l 183 658 l 313 129 l 460 582 l 460 658 l 547 658 l 710 129 l 839 658 l 953 658 l 781 0 l 667 0 l 513 478 z "},"ŵ":{"ha":1022,"x_min":69,"x_max":953,"o":"m 619 725 l 513 867 l 406 725 l 307 725 l 467 931 l 558 931 l 718 725 l 619 725 m 513 478 l 356 0 l 242 0 l 69 658 l 183 658 l 313 129 l 460 582 l 460 658 l 547 658 l 710 129 l 839 658 l 953 658 l 781 0 l 667 0 l 513 478 z "},"ẅ":{"ha":1022,"x_min":69,"x_max":953,"o":"m 336 857 l 444 857 l 444 753 l 336 753 l 336 857 m 581 857 l 689 857 l 689 753 l 581 753 l 581 857 m 513 478 l 356 0 l 242 0 l 69 658 l 183 658 l 313 129 l 460 582 l 460 658 l 547 658 l 710 129 l 839 658 l 953 658 l 781 0 l 667 0 l 513 478 z "},"ẁ":{"ha":1022,"x_min":69,"x_max":953,"o":"m 344 958 l 447 958 l 546 725 l 454 725 l 344 958 m 513 478 l 356 0 l 242 0 l 69 658 l 183 658 l 313 129 l 460 582 l 460 658 l 547 658 l 710 129 l 839 658 l 953 658 l 781 0 l 667 0 l 513 478 z "},"x":{"ha":763,"x_min":69,"x_max":693,"o":"m 381 257 l 193 0 l 69 0 l 319 335 l 78 658 l 201 658 l 381 413 l 561 658 l 683 658 l 444 335 l 693 0 l 569 0 l 381 257 z "},"y":{"ha":811,"x_min":69,"x_max":769,"o":"m 188 658 l 417 128 l 653 658 l 769 658 l 493 29 q 418 -121 453 -64 q 335 -211 383 -178 q 221 -244 288 -244 q 107 -226 156 -244 l 107 -135 q 192 -149 146 -149 q 265 -133 238 -149 q 311 -87 292 -117 q 360 7 331 -57 l 69 658 l 188 658 z "},"ý":{"ha":811,"x_min":69,"x_max":769,"o":"m 457 958 l 560 958 l 450 725 l 358 725 l 457 958 m 188 658 l 417 128 l 653 658 l 769 658 l 493 29 q 418 -121 453 -64 q 335 -211 383 -178 q 221 -244 288 -244 q 107 -226 156 -244 l 107 -135 q 192 -149 146 -149 q 265 -133 238 -149 q 311 -87 292 -117 q 360 7 331 -57 l 69 658 l 188 658 z "},"ŷ":{"ha":811,"x_min":69,"x_max":769,"o":"m 526 725 l 419 867 l 313 725 l 214 725 l 374 931 l 465 931 l 625 725 l 526 725 m 188 658 l 417 128 l 653 658 l 769 658 l 493 29 q 418 -121 453 -64 q 335 -211 383 -178 q 221 -244 288 -244 q 107 -226 156 -244 l 107 -135 q 192 -149 146 -149 q 265 -133 238 -149 q 311 -87 292 -117 q 360 7 331 -57 l 69 658 l 188 658 z "},"ÿ":{"ha":811,"x_min":69,"x_max":769,"o":"m 247 871 l 356 871 l 356 767 l 247 767 l 247 871 m 492 871 l 600 871 l 600 767 l 492 767 l 492 871 m 188 658 l 417 128 l 653 658 l 769 658 l 493 29 q 418 -121 453 -64 q 335 -211 383 -178 q 221 -244 288 -244 q 107 -226 156 -244 l 107 -135 q 192 -149 146 -149 q 265 -133 238 -149 q 311 -87 292 -117 q 360 7 331 -57 l 69 658 l 188 658 z "},"ẏ":{"ha":811,"x_min":69,"x_max":769,"o":"m 361 863 l 472 863 l 472 756 l 361 756 l 361 863 m 188 658 l 417 128 l 653 658 l 769 658 l 493 29 q 418 -121 453 -64 q 335 -211 383 -178 q 221 -244 288 -244 q 107 -226 156 -244 l 107 -135 q 192 -149 146 -149 q 265 -133 238 -149 q 311 -87 292 -117 q 360 7 331 -57 l 69 658 l 188 658 z "},"ỵ":{"ha":811,"x_min":69,"x_max":769,"o":"m 188 658 l 417 128 l 653 658 l 769 658 l 493 29 q 418 -121 453 -64 q 335 -211 383 -178 q 221 -244 288 -244 q 107 -226 156 -244 l 107 -135 q 192 -149 146 -149 q 265 -133 238 -149 q 311 -87 292 -117 q 360 7 331 -57 l 69 658 l 188 658 m 540 -100 l 651 -100 l 651 -207 l 540 -207 l 540 -100 z "},"ỳ":{"ha":811,"x_min":69,"x_max":769,"o":"m 271 958 l 374 958 l 472 725 l 381 725 l 271 958 m 188 658 l 417 128 l 653 658 l 769 658 l 493 29 q 418 -121 453 -64 q 335 -211 383 -178 q 221 -244 288 -244 q 107 -226 156 -244 l 107 -135 q 192 -149 146 -149 q 265 -133 238 -149 q 311 -87 292 -117 q 360 7 331 -57 l 69 658 l 188 658 z "},"ỷ":{"ha":811,"x_min":69,"x_max":769,"o":"m 589 921 q 561 832 589 863 q 465 792 533 801 l 465 725 l 374 725 l 374 840 q 456 851 428 843 q 493 872 483 858 q 503 913 503 886 q 477 960 503 946 q 394 975 451 975 q 347 970 372 975 q 303 958 321 965 l 303 1029 q 357 1042 324 1038 q 421 1047 390 1047 q 546 1014 503 1047 q 589 921 589 981 m 188 658 l 417 128 l 653 658 l 769 658 l 493 29 q 418 -121 453 -64 q 335 -211 383 -178 q 221 -244 288 -244 q 107 -226 156 -244 l 107 -135 q 192 -149 146 -149 q 265 -133 238 -149 q 311 -87 292 -117 q 360 7 331 -57 l 69 658 l 188 658 z "},"ỹ":{"ha":811,"x_min":69,"x_max":769,"o":"m 521 753 q 411 781 481 753 q 363 798 388 790 q 321 806 339 806 q 206 757 247 806 l 206 844 q 255 874 222 863 q 321 886 288 886 q 372 879 347 886 q 426 858 396 872 q 480 839 461 844 q 521 833 499 833 q 628 883 592 833 l 628 794 q 585 764 614 775 q 521 753 556 753 m 188 658 l 417 128 l 653 658 l 769 658 l 493 29 q 418 -121 453 -64 q 335 -211 383 -178 q 221 -244 288 -244 q 107 -226 156 -244 l 107 -135 q 192 -149 146 -149 q 265 -133 238 -149 q 311 -87 292 -117 q 360 7 331 -57 l 69 658 l 188 658 z "},"z":{"ha":674,"x_min":69,"x_max":604,"o":"m 69 63 l 457 568 l 88 568 l 88 658 l 594 658 l 594 588 l 213 89 l 604 89 l 604 0 l 69 0 l 69 63 z "},"ź":{"ha":674,"x_min":69,"x_max":604,"o":"m 385 958 l 488 958 l 378 725 l 286 725 l 385 958 m 69 63 l 457 568 l 88 568 l 88 658 l 594 658 l 594 588 l 213 89 l 604 89 l 604 0 l 69 0 l 69 63 z "},"ž":{"ha":674,"x_min":69,"x_max":604,"o":"m 276 725 l 117 931 l 215 931 l 322 789 l 429 931 l 528 931 l 368 725 l 276 725 m 69 63 l 457 568 l 88 568 l 88 658 l 594 658 l 594 588 l 213 89 l 604 89 l 604 0 l 69 0 l 69 63 z "},"ż":{"ha":674,"x_min":69,"x_max":604,"o":"m 281 863 l 392 863 l 392 756 l 281 756 l 281 863 m 69 63 l 457 568 l 88 568 l 88 658 l 594 658 l 594 588 l 213 89 l 604 89 l 604 0 l 69 0 l 69 63 z "},"ẓ":{"ha":674,"x_min":69,"x_max":604,"o":"m 69 63 l 457 568 l 88 568 l 88 658 l 594 658 l 594 588 l 213 89 l 604 89 l 604 0 l 69 0 l 69 63 m 278 -121 l 389 -121 l 389 -228 l 278 -228 l 278 -121 z "},"ﬁ":{"ha":714,"x_min":42,"x_max":617,"o":"m 140 735 q 209 896 140 833 q 388 958 278 958 q 536 938 481 958 l 536 851 q 417 867 493 867 q 254 735 254 867 l 254 658 l 617 658 l 617 0 l 503 0 l 503 568 l 254 568 l 254 0 l 140 0 l 140 568 l 42 568 l 42 658 l 140 658 l 140 735 z "},"ﬂ":{"ha":714,"x_min":42,"x_max":617,"o":"m 140 735 q 209 896 140 833 q 388 958 278 958 q 536 938 481 958 l 617 938 l 617 0 l 503 0 l 503 568 l 254 568 l 254 0 l 140 0 l 140 568 l 42 568 l 42 658 l 140 658 l 140 735 m 503 658 l 503 853 q 417 867 457 867 q 254 735 254 867 l 254 658 l 503 658 z "},"ª":{"ha":482,"x_min":69,"x_max":413,"o":"m 339 576 q 280 540 313 551 q 201 528 247 528 q 106 555 143 528 q 69 636 69 582 q 215 756 69 756 l 336 756 l 336 772 q 315 830 336 814 q 232 846 294 846 q 117 826 172 846 l 117 888 q 249 908 172 908 q 413 774 413 908 l 413 536 l 344 536 l 339 576 m 226 700 q 162 687 181 700 q 143 639 143 674 q 163 597 143 610 q 222 585 183 585 q 287 597 260 585 q 336 638 314 610 l 336 700 l 226 700 z "},"º":{"ha":507,"x_min":69,"x_max":438,"o":"m 253 908 q 391 860 344 908 q 438 718 438 811 q 253 528 438 528 q 69 718 69 528 q 115 860 69 811 q 253 908 161 908 m 253 589 q 335 621 311 589 q 360 718 360 653 q 335 815 360 783 q 253 846 310 846 q 171 814 196 846 q 146 718 146 782 q 170 621 146 653 q 253 589 194 589 z "},"ⁿ":{"ha":503,"x_min":76,"x_max":433,"o":"m 357 536 l 357 760 q 339 828 357 810 q 269 846 321 846 q 207 833 238 846 q 154 797 176 819 l 154 536 l 76 536 l 76 900 l 149 900 l 151 860 q 217 895 182 883 q 297 907 251 907 q 397 874 361 907 q 433 776 433 842 l 433 536 l 357 536 z "},"Δ":{"ha":908,"x_min":69,"x_max":839,"o":"m 396 894 l 510 894 l 839 64 l 839 0 l 69 0 l 69 65 l 396 894 m 181 89 l 724 89 l 453 779 l 181 89 z "},"Ω":{"ha":1068,"x_min":69,"x_max":999,"o":"m 535 868 q 351 822 431 868 q 227 694 271 776 q 183 504 183 611 q 249 266 183 371 q 446 90 315 161 l 446 0 l 79 0 l 79 89 l 300 89 q 131 260 193 156 q 69 504 69 365 q 126 741 69 636 q 287 906 182 846 q 535 965 392 965 q 781 906 676 965 q 942 741 886 846 q 999 504 999 636 q 938 259 999 364 q 769 89 876 154 l 989 89 l 989 0 l 624 0 l 624 90 q 885 504 885 232 q 841 694 885 611 q 718 822 797 776 q 535 868 639 868 z "},"μ":{"ha":799,"x_min":97,"x_max":701,"o":"m 211 658 l 211 238 q 252 117 211 156 q 379 78 293 78 q 494 100 440 78 q 588 161 549 122 l 588 658 l 701 658 l 701 0 l 599 0 l 592 75 q 476 10 542 35 q 336 -14 410 -14 q 211 17 263 -14 l 211 -199 l 97 -199 l 97 658 l 211 658 z "},"π":{"ha":928,"x_min":56,"x_max":872,"o":"m 772 569 l 678 569 l 678 189 q 703 106 678 129 q 793 82 729 82 q 872 96 829 82 l 872 6 q 753 -14 818 -14 q 613 41 663 -14 q 564 190 564 96 l 564 569 l 264 569 l 264 0 l 150 0 l 150 569 l 56 569 l 56 658 l 772 658 l 772 569 z "},"ก":{"ha":844,"x_min":69,"x_max":747,"o":"m 332 433 q 253 389 278 419 q 228 301 228 358 l 228 0 l 114 0 l 114 304 q 141 408 114 365 q 226 467 168 450 l 69 503 l 69 636 q 217 728 128 692 q 418 764 307 764 q 665 694 583 764 q 747 478 747 624 l 747 0 l 633 0 l 633 482 q 585 626 633 585 q 418 667 536 667 q 273 645 340 667 q 169 588 206 624 l 169 558 l 332 519 l 332 433 z "},"ถ":{"ha":844,"x_min":69,"x_max":747,"o":"m 228 161 q 244 110 228 126 q 293 93 260 93 l 372 93 l 372 0 l 242 0 q 148 37 182 0 q 114 133 114 74 l 114 304 q 141 408 114 365 q 226 467 168 450 l 69 503 l 69 636 q 217 728 128 692 q 418 764 307 764 q 665 694 583 764 q 747 478 747 624 l 747 0 l 633 0 l 633 482 q 585 626 633 585 q 418 667 536 667 q 273 645 340 667 q 169 588 206 624 l 169 558 l 332 519 l 332 433 q 253 389 278 419 q 228 301 228 358 l 228 161 z "},"ภ":{"ha":892,"x_min":69,"x_max":794,"o":"m 388 433 q 317 390 336 418 q 299 301 299 363 l 299 153 q 156 0 299 0 l 69 0 l 69 93 l 125 93 q 171 109 157 93 q 185 160 185 125 l 185 304 q 206 408 185 367 q 282 467 228 449 l 117 503 l 117 636 q 265 728 175 692 q 465 764 354 764 q 713 694 631 764 q 794 478 794 624 l 794 0 l 681 0 l 681 482 q 632 626 681 585 q 465 667 583 667 q 320 645 388 667 q 217 588 253 624 l 217 558 l 388 519 l 388 433 z "},"ฤ":{"ha":844,"x_min":69,"x_max":747,"o":"m 228 161 q 244 110 228 126 q 293 93 260 93 l 372 93 l 372 0 l 242 0 q 148 37 182 0 q 114 133 114 74 l 114 304 q 141 408 114 365 q 226 467 168 450 l 69 503 l 69 636 q 217 728 128 692 q 418 764 307 764 q 665 694 583 764 q 747 478 747 624 l 747 -222 l 633 -222 l 633 482 q 585 626 633 585 q 418 667 536 667 q 273 645 340 667 q 169 588 206 624 l 169 558 l 332 519 l 332 433 q 253 389 278 419 q 228 301 228 358 l 228 161 z "},"ฦ":{"ha":892,"x_min":69,"x_max":794,"o":"m 388 433 q 317 390 336 418 q 299 301 299 363 l 299 153 q 156 0 299 0 l 69 0 l 69 93 l 125 93 q 171 109 157 93 q 185 160 185 125 l 185 304 q 206 408 185 367 q 282 467 228 449 l 117 503 l 117 636 q 265 728 175 692 q 465 764 354 764 q 713 694 631 764 q 794 478 794 624 l 794 -222 l 681 -222 l 681 482 q 632 626 681 585 q 465 667 583 667 q 320 645 388 667 q 217 588 253 624 l 217 558 l 388 519 l 388 433 z "},"ฎ":{"ha":892,"x_min":69,"x_max":794,"o":"m 682 -269 q 583 -231 633 -243 q 468 -219 533 -219 q 240 -272 349 -219 l 240 -175 q 475 -122 349 -122 q 590 -135 538 -122 q 681 -168 643 -147 l 681 482 q 632 626 681 585 q 465 667 583 667 q 320 645 388 667 q 217 588 253 624 l 217 558 l 388 519 l 388 433 q 317 390 336 418 q 299 301 299 363 l 299 153 q 156 0 299 0 l 69 0 l 69 93 l 125 93 q 171 109 157 93 q 185 160 185 125 l 185 304 q 206 408 185 367 q 282 467 228 449 l 117 503 l 117 636 q 265 728 175 692 q 465 764 354 764 q 713 694 631 764 q 794 478 794 624 l 794 -269 l 682 -269 z "},"ฏ":{"ha":892,"x_min":69,"x_max":794,"o":"m 794 -89 q 745 -224 794 -176 q 607 -271 696 -271 q 520 -253 560 -271 q 460 -208 481 -236 q 333 -269 426 -269 l 208 -269 l 215 -169 l 311 -169 q 376 -156 353 -169 q 418 -110 400 -143 l 496 -110 q 535 -158 511 -142 q 596 -174 558 -174 q 662 -151 643 -174 q 681 -75 681 -128 l 681 482 q 632 626 681 585 q 465 667 583 667 q 320 645 388 667 q 217 588 253 624 l 217 558 l 388 519 l 388 433 q 317 390 336 418 q 299 301 299 363 l 299 153 q 156 0 299 0 l 69 0 l 69 93 l 125 93 q 171 109 157 93 q 185 160 185 125 l 185 304 q 206 408 185 367 q 282 467 228 449 l 117 503 l 117 636 q 265 728 175 692 q 465 764 354 764 q 713 694 631 764 q 794 478 794 624 l 794 -89 z "},"ญ":{"ha":1343,"x_min":69,"x_max":1246,"o":"m 729 414 q 777 267 729 313 q 931 222 825 222 q 1084 267 1036 222 q 1132 414 1132 313 l 1132 750 l 1246 750 l 1246 422 q 1197 243 1246 313 q 1246 119 1246 197 q 1167 -22 1246 26 q 932 -69 1088 -69 q 784 -55 856 -69 q 660 -11 713 -40 l 660 88 q 788 43 713 58 q 932 28 864 28 q 1088 52 1036 28 q 1140 119 1140 76 q 1124 174 1140 151 q 931 125 1044 125 q 617 422 617 125 l 617 482 q 597 592 617 553 q 532 649 576 632 q 410 667 488 667 q 270 645 335 667 q 169 588 206 624 l 169 558 l 332 519 l 332 433 q 253 389 278 419 q 228 301 228 358 l 228 161 q 244 110 228 126 q 293 93 260 93 l 372 93 l 372 0 l 242 0 q 148 37 182 0 q 114 133 114 74 l 114 304 q 141 408 114 365 q 226 467 168 450 l 69 503 l 69 636 q 215 728 128 692 q 410 764 301 764 q 650 694 571 764 q 729 478 729 625 l 729 414 z "},"ข":{"ha":793,"x_min":69,"x_max":696,"o":"m 85 358 q 105 435 85 399 q 163 524 125 472 q 203 585 190 564 q 215 625 215 606 q 206 654 215 647 q 169 661 196 661 l 69 661 l 79 750 l 233 750 q 329 656 329 750 q 312 577 329 613 q 260 493 294 542 q 213 418 228 447 q 199 354 199 389 l 199 244 q 389 83 199 83 q 582 247 582 83 l 582 750 l 696 750 l 696 258 q 615 57 696 128 q 389 -14 533 -14 q 163 56 242 -14 q 85 257 85 125 l 85 358 z "},"ฃ":{"ha":782,"x_min":69,"x_max":685,"o":"m 86 332 q 111 414 86 372 q 181 513 136 456 q 231 583 215 557 q 247 629 247 608 q 214 664 247 664 q 157 638 183 664 l 157 583 l 69 583 l 69 750 l 157 750 l 157 711 q 257 750 199 750 q 330 724 303 750 q 357 651 357 699 q 337 575 357 611 q 276 486 317 539 q 218 399 236 432 q 200 329 200 365 l 200 244 q 247 122 200 160 q 385 83 293 83 q 524 122 476 83 q 571 247 571 161 l 571 750 l 685 750 l 685 258 q 607 57 685 128 q 385 -14 529 -14 q 162 53 238 -14 q 86 251 86 121 l 86 332 z "},"ช":{"ha":793,"x_min":69,"x_max":696,"o":"m 696 258 q 615 57 696 128 q 389 -14 533 -14 q 163 56 242 -14 q 85 257 85 125 l 85 358 q 105 435 85 399 q 163 524 125 472 q 203 585 190 564 q 215 625 215 606 q 206 654 215 647 q 169 661 196 661 l 69 661 l 79 750 l 233 750 q 329 656 329 750 q 312 577 329 613 q 260 493 294 542 q 213 418 228 447 q 199 354 199 389 l 199 244 q 389 83 199 83 q 582 247 582 83 l 582 343 q 557 449 582 419 q 465 478 532 478 l 426 478 l 432 568 l 463 568 q 556 599 531 568 q 582 703 582 631 l 582 764 l 696 764 l 696 704 q 674 588 696 631 q 593 524 653 544 q 676 458 656 500 q 696 340 696 415 l 696 258 z "},"ซ":{"ha":794,"x_min":69,"x_max":697,"o":"m 86 332 q 111 414 86 372 q 181 513 136 456 q 231 583 215 557 q 247 629 247 608 q 214 664 247 664 q 157 638 183 664 l 157 583 l 69 583 l 69 750 l 157 750 l 157 711 q 257 750 199 750 q 330 724 303 750 q 357 651 357 699 q 337 575 357 611 q 276 486 317 539 q 218 399 236 432 q 200 329 200 365 l 200 244 q 390 83 200 83 q 583 247 583 83 l 583 343 q 558 449 583 419 q 467 478 533 478 l 428 478 l 433 568 l 464 568 q 558 599 532 568 q 583 703 583 631 l 583 764 l 697 764 l 697 704 q 676 588 697 631 q 594 524 654 544 q 677 458 657 500 q 697 340 697 415 l 697 258 q 616 57 697 128 q 390 -14 535 -14 q 165 56 243 -14 q 86 257 86 125 l 86 332 z "},"ค":{"ha":842,"x_min":97,"x_max":744,"o":"m 422 667 q 263 626 315 667 q 211 499 211 586 l 211 325 q 372 382 276 382 l 464 382 l 469 289 l 369 289 q 211 235 275 289 l 211 0 l 97 0 l 97 486 q 422 764 97 764 q 744 486 744 764 l 744 0 l 631 0 l 631 499 q 578 626 631 586 q 422 667 526 667 z "},"ฅ":{"ha":842,"x_min":97,"x_max":744,"o":"m 211 325 q 372 382 276 382 l 464 382 l 469 289 l 369 289 q 211 235 275 289 l 211 0 l 97 0 l 97 561 q 143 714 97 664 q 272 764 189 764 q 422 690 368 764 q 491 745 449 726 q 581 764 533 764 q 709 717 674 764 q 744 560 744 669 l 744 0 l 631 0 l 631 575 q 617 644 631 621 q 563 667 603 667 q 456 601 499 667 l 386 601 q 349 650 369 633 q 300 667 329 667 q 211 574 211 667 l 211 325 z "},"ศ":{"ha":869,"x_min":97,"x_max":814,"o":"m 422 667 q 263 626 315 667 q 211 499 211 586 l 211 325 q 372 382 276 382 l 464 382 l 469 289 l 369 289 q 211 235 275 289 l 211 0 l 97 0 l 97 486 q 422 764 97 764 q 550 750 488 764 l 814 750 l 808 657 l 693 657 q 744 486 744 593 l 744 0 l 631 0 l 631 499 q 578 626 631 586 q 422 667 526 667 z "},"ด":{"ha":885,"x_min":69,"x_max":788,"o":"m 444 764 q 638 723 561 764 q 751 615 715 682 q 788 465 788 547 l 788 0 l 674 0 l 674 464 q 619 613 674 558 q 442 667 564 667 q 244 591 306 667 q 183 368 183 515 q 234 149 183 214 q 389 83 285 83 q 485 94 451 83 l 485 0 q 369 -14 439 -14 q 151 81 233 -14 q 69 368 69 176 q 163 660 69 556 q 444 764 257 764 z "},"ต":{"ha":885,"x_min":69,"x_max":788,"o":"m 674 563 q 656 644 674 622 q 590 667 639 667 q 492 601 518 667 l 415 601 q 374 652 394 638 q 317 667 353 667 q 213 591 242 667 q 183 368 183 515 q 234 149 183 214 q 389 83 285 83 q 485 94 451 83 l 485 0 q 369 -14 439 -14 q 151 81 233 -14 q 69 368 69 176 q 130 661 69 558 q 303 764 190 764 q 390 746 356 764 q 454 690 425 728 q 530 744 485 725 q 622 764 575 764 q 745 716 703 764 q 788 578 788 668 l 788 0 l 674 0 l 674 563 z "},"ท":{"ha":829,"x_min":97,"x_max":732,"o":"m 618 0 l 618 494 q 575 626 618 585 q 442 667 532 667 q 315 639 374 667 q 211 563 257 611 l 211 0 l 97 0 l 97 750 l 200 750 l 207 660 q 329 737 263 710 q 482 764 396 764 q 667 694 601 764 q 732 496 732 625 l 732 0 l 618 0 z "},"ฑ":{"ha":826,"x_min":69,"x_max":729,"o":"m 215 664 q 157 638 183 664 l 157 583 l 69 583 l 69 750 l 157 750 l 157 711 q 257 750 199 750 q 336 708 314 750 q 508 764 413 764 q 678 701 626 764 q 729 506 729 639 l 729 0 l 615 0 l 615 507 q 603 601 615 567 q 563 651 592 635 q 478 667 533 667 q 410 653 446 667 q 350 618 374 640 q 338 557 350 586 q 297 478 325 528 q 253 391 268 428 q 238 313 238 354 l 238 0 l 124 0 l 124 319 q 142 400 124 360 q 194 500 160 440 q 236 578 224 551 q 249 628 249 604 q 215 664 249 664 z "},"น":{"ha":829,"x_min":97,"x_max":732,"o":"m 211 750 l 211 257 q 252 124 211 165 q 385 83 293 83 q 513 111 453 83 q 618 186 574 139 l 618 750 l 732 750 l 732 0 l 629 0 l 622 90 q 347 -14 507 -14 q 162 56 226 -14 q 97 256 97 125 l 97 750 l 211 750 z "},"ม":{"ha":829,"x_min":97,"x_max":732,"o":"m 732 256 q 666 56 732 125 q 479 -14 600 -14 q 328 13 393 -14 q 207 90 264 39 l 200 0 l 97 0 l 97 750 l 211 750 l 211 186 q 315 111 257 139 q 442 83 374 83 q 576 124 533 83 q 618 257 618 165 l 618 750 l 732 750 l 732 256 z "},"ฌ":{"ha":1331,"x_min":69,"x_max":1233,"o":"m 729 186 q 951 83 828 83 q 1079 124 1039 83 q 1119 257 1119 164 l 1119 750 l 1233 750 l 1233 256 q 1169 56 1233 125 q 989 -14 1106 -14 q 844 13 906 -14 q 725 90 782 39 l 718 0 l 617 0 l 617 482 q 597 592 617 553 q 532 649 576 632 q 410 667 488 667 q 270 645 335 667 q 169 588 206 624 l 169 558 l 332 519 l 332 433 q 253 389 278 419 q 228 301 228 358 l 228 161 q 244 110 228 126 q 293 93 260 93 l 372 93 l 372 0 l 242 0 q 148 37 182 0 q 114 133 114 74 l 114 304 q 141 408 114 365 q 226 467 168 450 l 69 503 l 69 636 q 215 728 128 692 q 410 764 301 764 q 650 694 571 764 q 729 478 729 625 l 729 186 z "},"ณ":{"ha":1331,"x_min":69,"x_max":1233,"o":"m 729 257 q 769 124 729 164 q 897 83 810 83 q 1119 186 1021 83 l 1119 750 l 1233 750 l 1233 0 l 1131 0 l 1124 90 q 1005 13 1067 39 q 860 -14 943 -14 q 680 56 743 -14 q 617 256 617 125 l 617 482 q 597 592 617 553 q 532 649 576 632 q 410 667 488 667 q 270 645 335 667 q 169 588 206 624 l 169 558 l 332 519 l 332 433 q 253 389 278 419 q 228 301 228 358 l 228 161 q 244 110 228 126 q 293 93 260 93 l 372 93 l 372 0 l 242 0 q 148 37 182 0 q 114 133 114 74 l 114 304 q 141 408 114 365 q 226 467 168 450 l 69 503 l 69 636 q 215 728 128 692 q 410 764 301 764 q 650 694 571 764 q 729 478 729 625 l 729 257 z "},"ฒ":{"ha":1374,"x_min":69,"x_max":1276,"o":"m 772 186 q 994 83 871 83 q 1122 124 1082 83 q 1163 257 1163 164 l 1163 750 l 1276 750 l 1276 256 q 1213 56 1276 125 q 1032 -14 1149 -14 q 887 13 949 -14 q 768 90 825 39 l 761 0 l 660 0 l 660 563 q 644 644 660 622 q 579 667 628 667 q 483 601 510 667 l 407 601 q 367 653 386 639 q 311 667 347 667 q 212 590 240 667 q 183 368 183 514 q 234 149 183 214 q 389 83 285 83 q 485 94 451 83 l 485 0 q 369 -14 439 -14 q 151 81 233 -14 q 69 368 69 176 q 129 661 69 558 q 297 764 189 764 q 383 746 350 764 q 446 690 417 728 q 520 744 476 725 q 611 764 564 764 q 732 717 692 764 q 772 578 772 669 l 772 186 z "},"ฆ":{"ha":818,"x_min":69,"x_max":721,"o":"m 86 314 q 110 399 86 354 q 181 506 135 443 q 232 582 217 556 q 247 629 247 608 q 214 664 247 664 q 157 638 183 664 l 157 583 l 69 583 l 69 750 l 157 750 l 157 711 q 257 750 199 750 q 330 724 303 750 q 357 651 357 699 q 337 573 357 611 q 276 478 317 535 q 219 384 238 419 q 200 311 200 349 l 200 186 q 304 111 246 139 q 431 83 363 83 q 565 124 522 83 q 607 257 607 165 l 607 750 l 721 750 l 721 256 q 655 56 721 125 q 468 -14 589 -14 q 317 13 382 -14 q 196 90 253 39 l 189 0 l 86 0 l 86 314 z "},"ธ":{"ha":738,"x_min":69,"x_max":668,"o":"m 365 83 q 508 113 463 83 q 554 215 554 142 q 531 304 554 274 q 465 349 507 335 q 324 385 422 363 q 190 421 240 403 q 104 476 139 439 q 69 578 69 514 q 379 764 69 764 q 518 753 447 764 q 631 728 589 743 l 631 628 q 519 656 583 644 q 394 667 454 667 q 233 650 289 667 q 178 581 178 633 q 197 530 178 549 q 249 501 217 511 q 343 476 281 490 l 419 458 q 556 413 506 436 q 638 342 607 389 q 668 215 668 296 q 590 44 668 101 q 374 -14 511 -14 q 215 1 292 -14 q 83 39 139 17 l 83 324 l 189 324 l 189 113 q 365 83 268 83 z "},"ร":{"ha":701,"x_min":69,"x_max":632,"o":"m 518 192 q 499 256 518 232 q 449 293 481 279 q 356 326 418 307 l 306 343 q 181 393 229 368 q 101 459 132 418 q 69 561 69 500 q 143 712 69 660 q 360 764 217 764 q 478 754 418 764 q 581 731 538 744 l 581 631 q 376 667 488 667 q 229 645 275 667 q 183 564 183 624 q 208 501 183 525 q 270 462 232 476 q 399 418 308 447 q 526 366 476 393 q 603 297 575 339 q 632 193 632 256 q 335 -14 632 -14 q 198 -4 264 -14 q 89 22 132 6 l 89 124 q 315 83 192 83 q 472 105 425 83 q 518 192 518 126 z "},"จ":{"ha":790,"x_min":69,"x_max":721,"o":"m 319 667 q 83 631 192 667 l 83 725 q 350 764 200 764 q 721 383 721 764 q 675 167 721 257 q 551 32 629 78 q 381 -14 474 -14 q 324 -10 354 -14 q 275 1 293 -6 l 158 313 l 69 313 l 75 406 l 232 406 l 353 83 l 376 82 q 542 156 476 82 q 607 383 607 231 q 579 550 607 489 q 489 639 551 611 q 319 667 426 667 z "},"ว":{"ha":700,"x_min":69,"x_max":631,"o":"m 69 121 q 253 83 161 83 q 412 113 354 83 q 493 205 469 142 q 517 375 517 268 q 455 599 517 531 q 249 667 393 667 q 69 628 156 667 l 69 725 q 272 764 158 764 q 631 375 631 764 q 547 84 631 182 q 279 -14 464 -14 q 69 25 160 -14 l 69 121 z "},"ง":{"ha":800,"x_min":69,"x_max":731,"o":"m 371 750 l 432 750 q 660 665 589 750 q 731 401 731 581 q 641 88 731 190 q 403 -14 551 -14 q 281 1 321 -14 l 69 515 l 181 515 l 358 83 l 386 82 q 560 160 504 82 q 617 400 617 239 q 599 555 617 500 q 538 633 581 610 q 419 657 496 657 l 371 657 l 371 750 z "},"ฐ":{"ha":850,"x_min":69,"x_max":781,"o":"m 633 657 q 701 540 681 607 q 721 383 721 474 q 675 167 721 257 q 551 32 629 78 q 381 -14 474 -14 q 324 -10 354 -14 q 275 1 293 -6 l 158 313 l 69 313 l 75 406 l 232 406 l 353 83 l 376 82 q 542 156 476 82 q 607 383 607 231 q 579 550 607 489 q 489 639 551 611 q 319 667 426 667 q 83 631 192 667 l 83 725 q 350 764 200 764 q 478 750 415 764 l 781 750 l 775 657 l 633 657 m 581 -89 q 561 -153 581 -132 q 496 -174 542 -174 q 435 -158 458 -174 q 396 -110 411 -142 l 318 -110 q 276 -156 300 -143 q 211 -169 253 -169 l 115 -169 l 108 -269 l 233 -269 q 360 -208 326 -269 q 420 -253 381 -236 q 507 -271 460 -271 q 644 -226 594 -271 q 694 -103 694 -181 l 694 -56 l 581 -56 l 581 -89 z "},"ฉ":{"ha":799,"x_min":69,"x_max":701,"o":"m 599 0 l 592 90 q 472 13 538 40 q 318 -14 407 -14 q 140 52 200 -14 q 79 247 79 118 l 79 417 l 193 417 l 193 247 q 207 150 193 185 q 256 99 221 115 q 358 83 292 83 q 483 110 425 83 q 588 186 542 138 l 588 475 q 565 590 588 549 q 488 649 542 632 q 338 667 433 667 q 202 655 278 667 q 69 625 126 643 l 69 719 q 208 751 128 739 q 367 764 289 764 q 620 693 539 764 q 701 474 701 622 l 701 0 l 599 0 z "},"ล":{"ha":814,"x_min":69,"x_max":717,"o":"m 392 667 q 151 631 261 667 l 151 725 q 274 753 204 743 q 413 764 343 764 q 644 698 571 764 q 717 489 717 632 l 717 0 l 603 0 l 603 344 l 364 344 q 224 313 268 344 q 181 210 181 281 q 220 112 181 140 q 350 83 260 83 q 444 94 404 83 l 444 0 q 319 -14 392 -14 q 138 41 206 -14 q 69 210 69 96 q 142 378 69 318 q 357 439 214 439 l 603 439 l 603 497 q 583 599 603 563 q 519 651 564 635 q 392 667 474 667 z "},"ส":{"ha":821,"x_min":69,"x_max":779,"o":"m 674 657 q 717 489 717 599 l 717 0 l 603 0 l 603 344 l 364 344 q 224 313 268 344 q 181 210 181 281 q 220 112 181 140 q 350 83 260 83 q 444 94 404 83 l 444 0 q 319 -14 392 -14 q 138 41 206 -14 q 69 210 69 96 q 142 378 69 318 q 357 439 214 439 l 603 439 l 603 497 q 583 599 603 563 q 519 651 564 635 q 392 667 474 667 q 151 631 261 667 l 151 725 q 274 753 204 743 q 413 764 343 764 q 540 750 478 764 l 779 750 l 774 657 l 674 657 z "},"บ":{"ha":853,"x_min":97,"x_max":756,"o":"m 426 83 q 588 129 533 83 q 642 275 642 175 l 642 750 l 756 750 l 756 283 q 671 61 756 136 q 426 -14 586 -14 q 182 61 267 -14 q 97 283 97 136 l 97 750 l 211 750 l 211 275 q 265 129 211 175 q 426 83 319 83 z "},"ป":{"ha":853,"x_min":97,"x_max":756,"o":"m 426 83 q 588 129 533 83 q 642 275 642 175 l 642 972 l 756 972 l 756 283 q 671 61 756 136 q 426 -14 586 -14 q 182 61 267 -14 q 97 283 97 136 l 97 750 l 211 750 l 211 275 q 265 129 211 175 q 426 83 319 83 z "},"ษ":{"ha":876,"x_min":97,"x_max":842,"o":"m 426 83 q 588 129 533 83 q 642 275 642 175 l 642 386 l 443 386 l 443 479 l 642 479 l 642 750 l 756 750 l 756 479 l 842 479 l 832 386 l 756 386 l 756 283 q 671 61 756 136 q 426 -14 586 -14 q 182 61 267 -14 q 97 283 97 136 l 97 750 l 211 750 l 211 275 q 265 129 211 175 q 426 83 319 83 z "},"ย":{"ha":821,"x_min":69,"x_max":724,"o":"m 317 667 q 188 554 188 667 q 226 465 188 494 q 333 436 265 436 l 413 436 l 419 350 l 329 350 q 219 315 256 350 q 183 214 183 281 q 235 115 183 147 q 396 83 288 83 q 557 125 504 83 q 610 256 610 167 l 610 750 l 724 750 l 724 275 q 644 59 724 132 q 400 -14 565 -14 q 157 43 244 -14 q 69 214 69 100 q 99 323 69 278 q 183 392 129 368 q 103 449 133 407 q 74 554 74 490 q 135 710 74 656 q 296 764 196 764 q 411 749 363 764 l 411 654 q 317 667 374 667 z "},"ผ":{"ha":892,"x_min":97,"x_max":794,"o":"m 97 613 q 133 711 97 672 q 229 750 169 750 l 349 750 l 353 656 l 279 656 q 226 639 242 656 q 210 582 210 622 l 210 158 l 419 521 l 474 521 l 683 158 l 683 750 l 794 750 l 794 0 l 678 0 l 447 404 l 214 0 l 97 0 l 97 613 z "},"ฝ":{"ha":892,"x_min":97,"x_max":794,"o":"m 97 613 q 133 711 97 672 q 229 750 169 750 l 349 750 l 353 656 l 279 656 q 226 639 242 656 q 210 582 210 622 l 210 158 l 419 521 l 474 521 l 683 158 l 683 972 l 794 972 l 794 0 l 678 0 l 447 404 l 214 0 l 97 0 l 97 613 z "},"ฟ":{"ha":1001,"x_min":56,"x_max":994,"o":"m 340 0 l 228 0 l 56 750 l 172 750 l 296 160 l 454 656 l 454 750 l 539 750 l 708 160 l 879 972 l 994 972 l 775 0 l 661 0 l 507 528 l 340 0 z "},"พ":{"ha":1001,"x_min":56,"x_max":946,"o":"m 340 0 l 228 0 l 56 750 l 172 750 l 296 160 l 454 656 l 454 750 l 539 750 l 708 160 l 831 750 l 946 750 l 775 0 l 661 0 l 507 528 l 340 0 z "},"ห":{"ha":824,"x_min":97,"x_max":735,"o":"m 211 507 l 460 507 q 585 544 549 507 q 621 658 621 581 l 621 750 l 735 750 l 735 660 q 615 463 735 500 q 703 395 681 442 q 726 274 726 349 l 726 0 l 613 0 l 613 260 q 598 353 613 319 q 549 400 583 386 q 453 414 515 414 l 211 414 l 211 0 l 97 0 l 97 750 l 211 750 l 211 507 z "},"ฬ":{"ha":1001,"x_min":56,"x_max":994,"o":"m 661 0 l 507 479 l 340 0 l 228 0 l 56 750 l 172 750 l 300 160 l 454 600 l 454 694 l 539 694 l 704 160 l 806 617 q 813 672 813 654 q 794 724 813 708 q 735 739 775 739 l 679 739 l 693 829 l 751 829 q 834 848 808 829 q 871 917 860 867 l 883 972 l 994 972 l 979 904 q 940 817 965 846 q 871 779 914 788 q 922 683 922 754 q 915 624 922 651 l 775 0 l 661 0 z "},"อ":{"ha":783,"x_min":69,"x_max":714,"o":"m 324 667 q 81 631 190 667 l 81 725 q 206 753 135 743 q 353 764 278 764 q 628 668 542 764 q 714 374 714 572 q 628 83 714 179 q 357 -14 542 -14 q 201 1 276 -14 q 69 39 125 15 l 69 417 l 344 417 l 350 324 l 183 324 l 183 111 q 354 83 264 83 q 499 111 446 83 q 576 202 551 139 q 600 374 600 265 q 574 549 600 486 q 488 640 547 613 q 324 667 429 667 z "},"ฮ":{"ha":828,"x_min":69,"x_max":758,"o":"m 632 657 q 714 374 714 563 q 628 83 714 179 q 357 -14 542 -14 q 201 1 276 -14 q 69 39 125 15 l 69 417 l 344 417 l 350 324 l 183 324 l 183 111 q 354 83 264 83 q 499 111 446 83 q 576 202 551 139 q 600 374 600 265 q 574 549 600 486 q 488 640 547 613 q 324 667 429 667 q 81 631 190 667 l 81 725 q 206 753 135 743 q 353 764 278 764 q 481 750 418 764 l 758 750 l 753 657 l 632 657 z "},"า":{"ha":610,"x_min":28,"x_max":513,"o":"m 399 485 q 385 590 399 553 q 334 647 372 628 q 219 667 296 667 q 123 657 175 667 q 28 631 71 647 l 28 725 q 128 753 71 742 q 240 764 185 764 q 448 701 383 764 q 513 497 513 638 l 513 0 l 399 0 l 399 485 z "},"ำ":{"ha":610,"x_min":-301,"x_max":513,"o":"m -301 988 q -259 1088 -301 1047 q -156 1129 -217 1129 q -53 1088 -94 1129 q -11 988 -11 1047 q -53 888 -11 928 q -156 847 -94 847 q -259 888 -217 847 q -301 988 -301 928 m -225 988 q -205 940 -225 960 q -156 919 -185 919 q -108 940 -128 919 q -87 988 -87 960 q -108 1036 -87 1015 q -156 1057 -128 1057 q -205 1036 -185 1057 q -225 988 -225 1015 m 399 485 q 385 590 399 553 q 334 647 372 628 q 219 667 296 667 q 123 657 175 667 q 28 631 71 647 l 28 725 q 128 753 71 742 q 240 764 185 764 q 448 701 383 764 q 513 497 513 638 l 513 0 l 399 0 l 399 485 z "},"ๅ":{"ha":610,"x_min":28,"x_max":513,"o":"m 399 485 q 385 590 399 553 q 334 647 372 628 q 219 667 296 667 q 123 657 175 667 q 28 631 71 647 l 28 725 q 128 753 71 742 q 240 764 185 764 q 448 701 383 764 q 513 497 513 638 l 513 -222 l 399 -222 l 399 485 z "},"ะ":{"ha":453,"x_min":69,"x_max":383,"o":"m 168 628 l 168 560 l 383 560 l 379 472 l 69 472 l 69 628 l 168 628 m 168 244 l 168 175 l 383 175 l 379 89 l 69 89 l 69 244 l 168 244 z "},"เ":{"ha":425,"x_min":97,"x_max":356,"o":"m 211 750 l 211 161 q 227 110 211 126 q 276 93 243 93 l 356 93 l 356 0 l 225 0 q 131 37 165 0 q 97 133 97 74 l 97 750 l 211 750 z "},"แ":{"ha":729,"x_min":97,"x_max":660,"o":"m 211 750 l 211 161 q 227 110 211 126 q 276 93 243 93 l 342 93 l 342 0 l 225 0 q 131 37 165 0 q 97 133 97 74 l 97 750 l 211 750 m 529 750 l 529 161 q 545 110 529 126 q 594 93 561 93 l 660 93 l 660 0 l 543 0 q 449 37 483 0 q 415 133 415 74 l 415 750 l 529 750 z "},"ไ":{"ha":410,"x_min":7,"x_max":382,"o":"m 121 635 q 153 778 121 718 q 242 872 185 838 l 7 872 l 7 964 l 382 964 l 382 874 q 267 775 299 838 q 235 597 235 713 l 235 161 q 251 110 235 126 q 300 93 267 93 l 379 93 l 379 0 l 249 0 q 155 37 189 0 q 121 133 121 74 l 121 635 z "},"ใ":{"ha":400,"x_min":0,"x_max":372,"o":"m 79 476 q 109 601 79 553 q 192 700 139 650 q 240 755 225 733 q 256 801 256 776 q 231 858 256 843 q 154 874 207 874 q 0 831 78 874 l 0 919 q 90 956 40 943 q 189 968 140 968 q 326 926 279 968 q 372 810 372 885 q 352 733 372 764 q 290 661 332 703 q 218 577 243 617 q 193 475 193 538 l 193 161 q 209 110 193 126 q 258 93 225 93 l 338 93 l 338 0 l 207 0 q 113 37 147 0 q 79 133 79 74 l 79 476 z "},"โ":{"ha":440,"x_min":7,"x_max":413,"o":"m 154 658 q 120 794 154 749 q 7 872 86 839 l 7 964 l 392 964 l 392 872 l 151 872 q 243 783 218 836 q 268 624 268 731 l 268 161 q 284 110 268 126 q 333 93 300 93 l 413 93 l 413 0 l 282 0 q 188 37 222 0 q 154 133 154 74 l 154 658 z "},"ℊ":{"ha":799,"x_min":69,"x_max":701,"o":"m 588 63 q 368 0 497 0 q 69 335 69 0 q 367 672 69 672 q 495 652 440 672 q 596 589 550 632 l 604 658 l 701 658 l 701 13 q 616 -174 701 -104 q 379 -244 531 -244 q 290 -240 342 -244 q 214 -231 239 -236 l 214 -133 q 283 -146 242 -142 q 360 -150 325 -150 q 527 -115 467 -150 q 588 -3 588 -79 l 588 63 m 399 92 q 588 157 514 92 l 588 501 q 396 581 514 581 q 232 523 281 581 q 183 335 183 465 q 235 147 183 203 q 399 92 286 92 z "},"⁄":{"ha":192,"x_min":-181,"x_max":372,"o":"m 258 919 l 372 919 l -65 0 l -181 0 l 258 919 z "},"½":{"ha":875,"x_min":69,"x_max":806,"o":"m 172 831 l 69 808 l 69 872 l 253 908 l 253 514 l 172 514 l 172 831 m 614 894 l 721 894 l 246 0 l 139 0 l 614 894 m 528 44 q 572 101 546 75 q 638 160 597 126 q 703 224 686 200 q 721 276 721 249 q 703 317 721 306 q 640 329 685 329 q 540 310 594 329 l 540 375 q 663 394 601 394 q 765 361 728 394 q 803 276 803 328 q 786 213 803 238 q 724 144 769 188 q 689 114 706 126 q 639 65 654 85 l 806 65 l 806 0 l 528 0 l 528 44 z "},"⅓":{"ha":888,"x_min":69,"x_max":818,"o":"m 172 831 l 69 808 l 69 872 l 253 908 l 253 514 l 172 514 l 172 831 m 614 894 l 721 894 l 246 0 l 139 0 l 614 894 m 818 104 q 651 -12 818 -12 q 588 -8 621 -12 q 536 4 554 -3 l 536 67 q 635 49 582 49 q 711 62 689 49 q 733 107 733 75 q 711 151 733 138 q 643 164 689 164 l 592 164 l 596 221 l 639 221 q 705 235 685 221 q 725 281 725 249 q 704 319 725 308 q 636 331 683 331 q 543 314 590 331 l 543 376 q 594 388 563 383 q 654 393 625 393 q 810 285 810 393 q 794 228 810 253 q 747 192 779 203 q 818 104 818 176 z "},"⅔":{"ha":899,"x_min":69,"x_max":829,"o":"m 69 558 q 113 615 88 589 q 179 674 139 640 q 245 738 228 714 q 263 790 263 763 q 244 831 263 819 q 182 843 226 843 q 82 824 136 843 l 82 889 q 204 908 143 908 q 307 875 269 908 q 344 790 344 842 q 328 726 344 751 q 265 658 311 701 q 231 628 247 640 q 181 579 196 599 l 347 579 l 347 514 l 69 514 l 69 558 m 625 894 l 733 894 l 257 0 l 150 0 l 625 894 m 829 104 q 663 -12 829 -12 q 599 -8 632 -12 q 547 4 565 -3 l 547 67 q 646 49 593 49 q 722 62 700 49 q 744 107 744 75 q 722 151 744 138 q 654 164 700 164 l 603 164 l 607 221 l 650 221 q 716 235 696 221 q 736 281 736 249 q 715 319 736 308 q 647 331 694 331 q 554 314 601 331 l 554 376 q 605 388 574 383 q 665 393 636 393 q 821 285 821 393 q 806 228 821 253 q 758 192 790 203 q 829 104 829 176 z "},"¼":{"ha":878,"x_min":69,"x_max":808,"o":"m 172 831 l 69 808 l 69 872 l 253 908 l 253 514 l 172 514 l 172 831 m 614 894 l 721 894 l 246 0 l 139 0 l 614 894 m 765 0 l 686 0 l 686 81 l 478 81 l 478 140 l 676 394 l 765 394 l 765 140 l 808 140 l 808 81 l 765 81 l 765 0 m 556 142 l 701 142 l 701 331 l 556 142 z "},"¾":{"ha":890,"x_min":69,"x_max":821,"o":"m 351 619 q 185 503 351 503 q 121 508 154 503 q 69 519 88 513 l 69 579 q 168 561 115 561 q 244 576 222 561 q 267 622 267 590 q 244 667 267 653 q 176 681 222 681 l 125 681 l 129 735 l 172 735 q 238 749 217 735 q 258 796 258 764 q 237 836 258 824 q 169 849 215 849 q 76 832 124 849 l 76 892 q 127 903 96 899 q 188 908 158 908 q 343 800 343 908 q 328 743 343 768 q 281 707 313 718 q 351 619 351 692 m 626 894 l 733 894 l 258 0 l 151 0 l 626 894 m 778 0 l 699 0 l 699 81 l 490 81 l 490 140 l 689 394 l 778 394 l 778 140 l 821 140 l 821 81 l 778 81 l 778 0 m 568 142 l 714 142 l 714 331 l 568 142 z "},"⅛":{"ha":896,"x_min":69,"x_max":826,"o":"m 172 831 l 69 808 l 69 872 l 253 908 l 253 514 l 172 514 l 172 831 m 614 894 l 721 894 l 246 0 l 139 0 l 614 894 m 667 392 q 776 363 736 392 q 815 283 815 333 q 802 228 815 251 q 754 189 789 206 q 810 153 794 175 q 826 96 826 131 q 783 15 826 44 q 667 -14 739 -14 q 550 15 594 -14 q 506 96 506 44 q 575 193 506 167 q 517 283 517 218 q 557 363 517 333 q 667 392 597 392 m 682 215 q 729 240 718 226 q 740 282 740 253 q 721 323 740 310 q 667 336 701 336 q 592 282 592 336 q 603 244 592 258 q 640 224 614 229 l 682 215 m 667 40 q 728 55 706 40 q 750 97 750 69 q 737 135 750 122 q 688 156 724 147 l 646 165 q 598 142 613 156 q 583 99 583 128 q 605 55 583 69 q 667 40 626 40 z "},"⅜":{"ha":896,"x_min":69,"x_max":826,"o":"m 351 619 q 185 503 351 503 q 121 508 154 503 q 69 519 88 513 l 69 582 q 168 564 115 564 q 244 577 222 564 q 267 622 267 590 q 244 666 267 653 q 176 679 222 679 l 125 679 l 129 736 l 172 736 q 238 750 218 736 q 258 796 258 764 q 238 835 258 824 q 169 846 217 846 q 76 829 124 846 l 76 892 q 127 903 96 899 q 188 908 158 908 q 343 800 343 908 q 328 743 343 768 q 281 707 313 718 q 351 619 351 692 m 615 894 l 722 894 l 247 0 l 140 0 l 615 894 m 667 392 q 776 363 736 392 q 815 283 815 333 q 802 228 815 251 q 754 189 789 206 q 810 153 794 175 q 826 96 826 131 q 783 15 826 44 q 667 -14 739 -14 q 550 15 594 -14 q 506 96 506 44 q 575 193 506 167 q 517 283 517 218 q 557 363 517 333 q 667 392 597 392 m 682 215 q 729 240 718 226 q 740 282 740 253 q 721 323 740 310 q 667 336 701 336 q 592 282 592 336 q 603 244 592 258 q 640 224 614 229 l 682 215 m 667 40 q 728 55 706 40 q 750 97 750 69 q 737 135 750 122 q 688 156 724 147 l 646 165 q 598 142 613 156 q 583 99 583 128 q 605 55 583 69 q 667 40 626 40 z "},"⅝":{"ha":882,"x_min":69,"x_max":813,"o":"m 351 628 q 308 536 351 569 q 181 503 265 503 q 119 507 150 503 q 69 518 88 511 l 69 585 q 168 568 108 568 q 246 581 222 568 q 269 629 269 594 q 251 678 269 665 q 182 690 233 690 l 71 690 l 71 746 l 81 894 l 324 894 l 319 829 l 150 829 l 146 749 l 213 749 q 351 628 351 749 m 600 894 l 708 894 l 232 0 l 125 0 l 600 894 m 653 392 q 762 363 722 392 q 801 283 801 333 q 788 228 801 251 q 740 189 775 206 q 797 153 781 175 q 813 96 813 131 q 769 15 813 44 q 653 -14 725 -14 q 536 15 581 -14 q 492 96 492 44 q 561 193 492 167 q 503 283 503 218 q 543 363 503 333 q 653 392 583 392 m 668 215 q 715 240 704 226 q 726 282 726 253 q 707 323 726 310 q 653 336 688 336 q 578 282 578 336 q 589 244 578 258 q 626 224 600 229 l 668 215 m 653 40 q 714 55 692 40 q 736 97 736 69 q 723 135 736 122 q 674 156 710 147 l 632 165 q 584 142 599 156 q 569 99 569 128 q 591 55 569 69 q 653 40 613 40 z "},"⅞":{"ha":899,"x_min":69,"x_max":829,"o":"m 139 514 l 272 828 l 69 828 l 69 894 l 360 894 l 360 833 l 224 514 l 139 514 m 617 894 l 725 894 l 249 0 l 142 0 l 617 894 m 669 392 q 778 363 739 392 q 818 283 818 333 q 805 228 818 251 q 757 189 792 206 q 813 153 797 175 q 829 96 829 131 q 785 15 829 44 q 669 -14 742 -14 q 553 15 597 -14 q 508 96 508 44 q 578 193 508 167 q 519 283 519 218 q 560 363 519 333 q 669 392 600 392 m 685 215 q 732 240 721 226 q 743 282 743 253 q 724 323 743 310 q 669 336 704 336 q 594 282 594 336 q 606 244 594 258 q 643 224 617 229 l 685 215 m 669 40 q 731 55 708 40 q 753 97 753 69 q 740 135 753 122 q 690 156 726 147 l 649 165 q 601 142 615 156 q 586 99 586 128 q 608 55 586 69 q 669 40 629 40 z "}}}
